<svg xmlns="http://www.w3.org/2000/svg" width="39.608" height="37.365" viewBox="0 0 39.608 37.365">
  <g id="computadora" transform="translate(0 -14.5)">
    <path id="Trazado_656381" data-name="Trazado 656381" d="M45.174,373.747H8.274a.774.774,0,0,1-.774-.774v-8.2A.774.774,0,0,1,8.274,364h36.9a.774.774,0,0,1,.774.774v8.2A.774.774,0,0,1,45.174,373.747Z" transform="translate(-6.92 -322.463)" fill="#f3eae6"/>
    <path id="Trazado_656382" data-name="Trazado 656382" d="M466.821,364H464.5a.774.774,0,0,1,.774.774v8.2a.774.774,0,0,1-.774.774h2.321a.774.774,0,0,0,.774-.774v-8.2A.774.774,0,0,0,466.821,364Z" transform="translate(-428.566 -322.463)" fill="#d9e7ec"/>
    <path id="Trazado_656383" data-name="Trazado 656383" d="M86.944,462.321H56v-1.573a.748.748,0,0,1,.748-.748H86.2a.748.748,0,0,1,.748.748Z" transform="translate(-51.668 -411.036)" fill="#cecece"/>
    <path id="Trazado_656384" data-name="Trazado 656384" d="M418.651,460H416.33a.748.748,0,0,1,.748.748v1.573H419.4v-1.573A.748.748,0,0,0,418.651,460Z" transform="translate(-384.123 -411.036)" fill="#bfbfbf"/>
    <path id="Trazado_656385" data-name="Trazado 656385" d="M85.287,395.617H71.816a1.457,1.457,0,1,1,0-2.914H85.287a1.457,1.457,0,1,1,0,2.914Z" transform="translate(-64.916 -348.945)" fill="#7ca1b1"/>
    <circle id="Elipse_7895" data-name="Elipse 7895" cx="1.368" cy="1.368" r="1.368" transform="translate(26.307 43.937)" fill="#00cca7"/>
    <circle id="Elipse_7896" data-name="Elipse 7896" cx="1.368" cy="1.368" r="1.368" transform="translate(31.43 43.937)" fill="#7ca1b1"/>
    <path id="Trazado_656386" data-name="Trazado 656386" d="M154,328h15.781v2.785H154Z" transform="translate(-142.087 -289.248)" fill="#cecece"/>
    <path id="Trazado_656387" data-name="Trazado 656387" d="M328,328h2.321v2.785H328Z" transform="translate(-302.626 -289.248)" fill="#bfbfbf"/>
    <path id="Trazado_656388" data-name="Trazado 656388" d="M100.073,45.672H74.241A1.241,1.241,0,0,1,73,44.431V23.241A1.241,1.241,0,0,1,74.241,22h25.832a1.241,1.241,0,0,1,1.241,1.241V44.431A1.241,1.241,0,0,1,100.073,45.672Z" transform="translate(-67.353 -6.92)" fill="#cbc9c2"/>
    <path id="Trazado_656389" data-name="Trazado 656389" d="M395.284,22h-2.321a1.241,1.241,0,0,1,1.241,1.241V44.431a1.241,1.241,0,0,1-1.241,1.241h2.321a1.241,1.241,0,0,0,1.241-1.241V23.241A1.241,1.241,0,0,0,395.284,22Z" transform="translate(-362.563 -6.92)" fill="#d9e7ec"/>
    <path id="Trazado_656390" data-name="Trazado 656390" d="M103,67.163V53.857A1.857,1.857,0,0,1,104.857,52h19.959a1.857,1.857,0,0,1,1.857,1.857V67.163a1.857,1.857,0,0,1-1.857,1.857H104.857A1.857,1.857,0,0,1,103,67.163Z" transform="translate(-95.032 -34.599)" fill="#e8e8e8"/>
    <path id="Trazado_656391" data-name="Trazado 656391" d="M357.321,52H355a1.857,1.857,0,0,1,1.857,1.857V67.163A1.857,1.857,0,0,1,355,69.019h2.321a1.857,1.857,0,0,0,1.857-1.857V53.857A1.857,1.857,0,0,0,357.321,52Z" transform="translate(-327.537 -34.599)" fill="#8f8f8b"/>
    <path id="Trazado_656392" data-name="Trazado 656392" d="M332.511,300.321h-4.642v-1.7a.621.621,0,0,1,.621-.621h3.4a.621.621,0,0,1,.621.621Z" transform="translate(-302.505 -261.568)" fill="#00cca7"/>
    <g id="Grupo_949025" data-name="Grupo 949025" transform="translate(0 14.5)">
      <path id="Trazado_656393" data-name="Trazado 656393" d="M38.254,40.957H28.275V39.333H32.72a1.823,1.823,0,0,0,1.821-1.821V16.321A1.823,1.823,0,0,0,32.72,14.5H6.888a1.823,1.823,0,0,0-1.821,1.821v2.393a.58.58,0,0,0,1.16,0V16.321a.661.661,0,0,1,.66-.66H32.72a.661.661,0,0,1,.66.66V37.512a.661.661,0,0,1-.66.66H30.586v-1.12a1.2,1.2,0,0,0-1.2-1.2h-3.4a1.2,1.2,0,0,0-1.2,1.2v1.12H6.888a.661.661,0,0,1-.66-.66V21.444a.58.58,0,0,0-1.16,0V37.512a1.823,1.823,0,0,0,1.821,1.821h4.445v1.625H1.354A1.355,1.355,0,0,0,0,42.311v8.2a1.355,1.355,0,0,0,1.354,1.354h25.7a.58.58,0,0,0,0-1.16H4.912v-.993a.168.168,0,0,1,.168-.168H34.528a.168.168,0,0,1,.168.168V50.7H29.851a.58.58,0,0,0,0,1.16h8.4a1.355,1.355,0,0,0,1.354-1.354v-8.2A1.355,1.355,0,0,0,38.254,40.957Zm-12.31-3.9a.041.041,0,0,1,.041-.041h3.4a.041.041,0,0,1,.041.041v1.12H25.944Zm-13.45,2.28H27.115v1.625H12.494ZM38.254,50.7h-2.4v-.993a1.33,1.33,0,0,0-1.328-1.328H5.08a1.33,1.33,0,0,0-1.328,1.328V50.7h-2.4a.194.194,0,0,1-.193-.193V49.236H2.1a.58.58,0,0,0,0-1.16H1.16V46.991H2.1a.58.58,0,0,0,0-1.16H1.16V44.746H2.1a.58.58,0,0,0,0-1.16H1.16V42.311a.194.194,0,0,1,.193-.193h36.9a.194.194,0,0,1,.193.193v1.275H37.5a.58.58,0,0,0,0,1.16h.944v1.085H37.5a.58.58,0,0,0,0,1.16h.944v1.085H37.5a.58.58,0,0,0,0,1.16h.944v1.275A.194.194,0,0,1,38.254,50.7Z" transform="translate(0 -14.5)"/>
      <path id="Trazado_656394" data-name="Trazado 656394" d="M78.525,385.2H65.055a2.037,2.037,0,0,0,0,4.075H78.525A2.037,2.037,0,0,0,78.525,385.2Zm0,2.914H65.055a.877.877,0,0,1,0-1.754H78.525A.877.877,0,0,1,78.525,388.117Z" transform="translate(-58.154 -356.526)"/>
      <path id="Trazado_656395" data-name="Trazado 656395" d="M334.51,387.517a1.948,1.948,0,1,0,1.948,1.948A1.95,1.95,0,0,0,334.51,387.517Zm0,2.735a.788.788,0,1,1,.788-.788A.788.788,0,0,1,334.51,390.252Z" transform="translate(-306.835 -358.66)"/>
      <path id="Trazado_656396" data-name="Trazado 656396" d="M400.729,387.517a1.948,1.948,0,1,0,1.948,1.948A1.95,1.95,0,0,0,400.729,387.517Zm0,2.735a.788.788,0,1,1,.788-.788A.788.788,0,0,1,400.729,390.252Z" transform="translate(-367.931 -358.66)"/>
      <path id="Trazado_656397" data-name="Trazado 656397" d="M120.332,60.243V46.937A2.44,2.44,0,0,0,117.9,44.5H97.937A2.44,2.44,0,0,0,95.5,46.937V60.243a2.44,2.44,0,0,0,2.437,2.437H117.9A2.44,2.44,0,0,0,120.332,60.243Zm-23.672,0V46.937a1.278,1.278,0,0,1,1.276-1.276H117.9a1.278,1.278,0,0,1,1.276,1.276V60.243a1.278,1.278,0,0,1-1.276,1.276H97.937A1.278,1.278,0,0,1,96.66,60.243Z" transform="translate(-88.112 -42.179)"/>
      <path id="Trazado_656398" data-name="Trazado 656398" d="M142.387,292.5a.58.58,0,0,0,0,1.16h.734a.58.58,0,0,0,0-1.16Z" transform="translate(-130.84 -270.994)"/>
    </g>
  </g>
</svg>
