<svg xmlns="http://www.w3.org/2000/svg" width="85" height="113" viewBox="0 0 85 113">
  <g id="Grupo_946819" data-name="Grupo 946819" transform="translate(-705 -1415.985)">
    <rect id="Rectángulo_348630" data-name="Rectángulo 348630" width="85" height="113" rx="9" transform="translate(705 1415.985)" fill="#e8e8e8"/>
    <g id="residuos-electronicos_1_" data-name="residuos-electronicos (1)" transform="translate(702.324 1440.802)">
      <g id="Grupo_946822" data-name="Grupo 946822" transform="translate(16.325 3.474)">
        <g id="Grupo_946821" data-name="Grupo 946821" transform="translate(4.825)">
          <path id="Trazado_653320" data-name="Trazado 653320" d="M74.488,70.6,62.047,49.055a1.246,1.246,0,0,1,.456-1.7L95.622,28.232a1.246,1.246,0,0,1,1.7.456l12.441,21.549a1.246,1.246,0,0,1-.456,1.7L76.19,71.059A1.246,1.246,0,0,1,74.488,70.6Z" transform="translate(-61.88 -28.065)" fill="#e9a52d"/>
          <path id="Trazado_653321" data-name="Trazado 653321" d="M329.963,50.236,317.522,28.688a1.246,1.246,0,0,0-1.7-.456l-2.639,1.523a1.237,1.237,0,0,1,1.687.465L327.31,51.769a1.237,1.237,0,0,1-.441,1.693l2.639-1.523A1.246,1.246,0,0,0,329.963,50.236Z" transform="translate(-282.079 -28.065)" fill="#e38523"/>
          <path id="Trazado_653322" data-name="Trazado 653322" d="M348.746,171.08a2.53,2.53,0,1,0,3.456.926A2.53,2.53,0,0,0,348.746,171.08Z" transform="translate(-312.133 -153.082)" fill="#de5791"/>
          <path id="Trazado_653323" data-name="Trazado 653323" d="M302.525,91.022a2.53,2.53,0,1,0,3.456.926,2.53,2.53,0,0,0-3.456-.926Z" transform="translate(-271.633 -82.932)" fill="#f7f3f1"/>
          <path id="Trazado_653324" data-name="Trazado 653324" d="M118.714,138.821l7.423,12.856a.828.828,0,0,0,1.131.3l15.749-9.093a.828.828,0,0,0,.3-1.131L135.9,128.9a.828.828,0,0,0-1.131-.3l-15.749,9.093A.828.828,0,0,0,118.714,138.821Z" transform="translate(-111.583 -116.058)" fill="#5392f9"/>
        </g>
        <path id="Trazado_653325" data-name="Trazado 653325" d="M22.9,239.88v4.346a.619.619,0,0,0,.619.619H79.979a.619.619,0,0,0,.619-.619V239.88a.619.619,0,0,0-.619-.619H23.516A.619.619,0,0,0,22.9,239.88Z" transform="translate(-22.897 -213.122)" fill="#91dafa"/>
        <path id="Trazado_653326" data-name="Trazado 653326" d="M457.816,239.261H454.1a.619.619,0,0,1,.619.619v4.346a.619.619,0,0,1-.619.619h3.713a.619.619,0,0,0,.619-.619V239.88A.619.619,0,0,0,457.816,239.261Z" transform="translate(-400.734 -213.122)" fill="#6cbff8"/>
        <path id="Trazado_653327" data-name="Trazado 653327" d="M57.522,310.593l-4.535-26.217h50.252L98.7,310.593a1.238,1.238,0,0,1-1.22,1.027H58.742A1.238,1.238,0,0,1,57.522,310.593Z" transform="translate(-49.263 -252.653)" fill="#6dc17d"/>
        <path id="Trazado_653328" data-name="Trazado 653328" d="M388.271,284.376l-4.535,26.217a1.238,1.238,0,0,1-1.22,1.027h3.713a1.238,1.238,0,0,0,1.22-1.027l4.535-26.217Z" transform="translate(-338.007 -252.653)" fill="#5ea570"/>
      </g>
      <g id="Grupo_946823" data-name="Grupo 946823" transform="translate(15.397 0)">
        <path id="Trazado_653329" data-name="Trazado 653329" d="M342.538,170.031a3.477,3.477,0,0,0,.9.119,3.468,3.468,0,1,0-.9-.119Zm-.652-3.755a1.6,1.6,0,0,1,1.544-1.188,1.608,1.608,0,0,1,.417.055,1.6,1.6,0,1,1-1.961,1.132Z" transform="translate(-299.802 -143.029)"/>
        <path id="Trazado_653330" data-name="Trazado 653330" d="M300.206,84.919a3.458,3.458,0,1,0-1.266,4.723A3.462,3.462,0,0,0,300.206,84.919Zm-2.194,3.116a1.6,1.6,0,1,1,.586-2.187A1.59,1.59,0,0,1,298.012,88.035Z" transform="translate(-259.301 -72.894)"/>
        <path id="Trazado_653331" data-name="Trazado 653331" d="M73.407,28.684H68.118l.925-.534a2.177,2.177,0,0,0,.795-2.97l-8.487-14.7a.928.928,0,0,0-1.608.928l8.486,14.7a.318.318,0,0,1-.116.434l-3.709,2.142H53.676L46.269,15.854a1.758,1.758,0,0,0-2.4-.644L28.12,24.3a1.758,1.758,0,0,0-.642,2.4l1.145,1.983h-3.8L22.121,24a.318.318,0,0,1,.115-.434L55.354,4.445a.319.319,0,0,1,.436.116l1.783,3.088a.928.928,0,1,0,1.608-.928L57.4,3.633a2.179,2.179,0,0,0-2.97-.8L34.933,14.092,45.388,1.522A.928.928,0,0,0,43.961.335L30.287,16.774l-8.979,5.184a2.177,2.177,0,0,0-.795,2.97l2.169,3.756H16.944A1.549,1.549,0,0,0,15.4,30.232v4.346a1.549,1.549,0,0,0,1.547,1.547h2.324l1.5,8.681a.929.929,0,0,0,.914.77.944.944,0,0,0,.159-.014.928.928,0,0,0,.756-1.073l-1.447-8.365H69.2L64.852,61.256a.309.309,0,0,1-.3.257H25.8a.309.309,0,0,1-.3-.257l-2.161-12.49a.928.928,0,1,0-1.829.316l2.161,12.49a2.161,2.161,0,0,0,2.134,1.8H64.547a2.161,2.161,0,0,0,2.134-1.8l4.4-25.447h2.324a1.549,1.549,0,0,0,1.547-1.547V30.232a1.549,1.549,0,0,0-1.547-1.547ZM29.135,25.86,44.71,16.868l6.822,11.817H30.766ZM73.1,34.268H17.254V30.541H73.1Z" transform="translate(-15.397 0)"/>
        <path id="Trazado_653332" data-name="Trazado 653332" d="M209.24,313.615a2.238,2.238,0,0,0-3.877,0l-2.8,4.856-.319-1.062a.928.928,0,0,0-1.778.534l.87,2.9a1.171,1.171,0,0,0,.536.678h0l.028.013a1.163,1.163,0,0,0,.83.112l2.945-.7a.928.928,0,0,0-.427-1.807l-1.079.255,2.8-4.856a.381.381,0,0,1,.661,0l1.779,3.082a.928.928,0,0,0,1.608-.928Z" transform="translate(-177.523 -273.819)"/>
        <path id="Trazado_653333" data-name="Trazado 653333" d="M177.3,401.9l-1.779,3.082a2.238,2.238,0,0,0,1.938,3.358h5.607l-.76.807a.928.928,0,0,0,1.352,1.273l2.075-2.2a1.175,1.175,0,0,0,0-1.612l-2.075-2.2a.928.928,0,1,0-1.352,1.273l.761.807h-5.607a.381.381,0,0,1-.331-.573l1.779-3.082a.928.928,0,0,0-1.608-.928Z" transform="translate(-155.434 -351.75)"/>
        <path id="Trazado_653334" data-name="Trazado 653334" d="M287.37,374.283a.928.928,0,0,0-.69-1.117l-2.945-.7a1.175,1.175,0,0,0-1.4.806l-.87,2.9a.928.928,0,0,0,1.778.534l.319-1.062,2.8,4.856a.381.381,0,0,1-.331.573H282.48a.928.928,0,0,0,0,1.857h3.559a2.238,2.238,0,0,0,1.938-3.358l-2.8-4.856,1.08.255A.93.93,0,0,0,287.37,374.283Z" transform="translate(-248.503 -326.344)"/>
      </g>
    </g>
  </g>
</svg>
