<svg xmlns="http://www.w3.org/2000/svg" width="85" height="113" viewBox="0 0 85 113">
  <g id="Grupo_949295" data-name="Grupo 949295" transform="translate(-705 -1415.985)">
    <rect id="Rectángulo_348630" data-name="Rectángulo 348630" width="85" height="113" rx="9" transform="translate(705 1415.985)" fill="#e8e8e8"/>
    <g id="Grupo_946804" data-name="Grupo 946804" transform="translate(716.326 1446)">
      <g id="Grupo_946804-2" data-name="Grupo 946804" transform="translate(0 0)">
        <g id="nota" transform="translate(7.127 0)">
          <g id="Grupo_946769" data-name="Grupo 946769" transform="translate(0.879 0.878)">
            <g id="Grupo_946767" data-name="Grupo 946767">
              <g id="Grupo_946763" data-name="Grupo 946763">
                <g id="Grupo_946762" data-name="Grupo 946762">
                  <path id="Trazado_652132" data-name="Trazado 652132" d="M64.452,65.711h-38.3a3.628,3.628,0,0,1-3.628-3.628V11.128A3.628,3.628,0,0,1,26.156,7.5h38.3a3.628,3.628,0,0,1,3.628,3.628V62.084A3.628,3.628,0,0,1,64.452,65.711Z" transform="translate(-22.528 -7.5)" fill="#f1e2c5"/>
                  <path id="Trazado_652133" data-name="Trazado 652133" d="M331.918,7.5h-6.44a3.628,3.628,0,0,1,3.628,3.628V62.084a3.628,3.628,0,0,1-3.628,3.628h6.44a3.628,3.628,0,0,0,3.628-3.628V11.128A3.628,3.628,0,0,0,331.918,7.5Z" transform="translate(-289.995 -7.5)" fill="#ffd3ae"/>
                  <path id="Trazado_652134" data-name="Trazado 652134" d="M64.452,7.5h-38.3a3.628,3.628,0,0,0-3.628,3.628v6.256H68.079V11.128A3.628,3.628,0,0,0,64.452,7.5Z" transform="translate(-22.528 -7.5)" fill="#b4dd7f"/>
                  <path id="Trazado_652135" data-name="Trazado 652135" d="M335.551,17.384V11.128A3.628,3.628,0,0,0,331.923,7.5h-6.44a3.628,3.628,0,0,1,3.627,3.628v6.256Z" transform="translate(-289.999 -7.5)" fill="#85b745"/>
                </g>
              </g>
              <g id="Grupo_946766" data-name="Grupo 946766" transform="translate(22.776 26.296)">
                <path id="Trazado_652136" data-name="Trazado 652136" d="M224.248,261.132l-6.34,2.737a.66.66,0,0,1-.867-.867l2.737-6.34a2.96,2.96,0,0,1,.624-.919l23.085-23.085a2.211,2.211,0,0,1,3.127,0l1.638,1.638a2.211,2.211,0,0,1,0,3.127l-23.085,23.085A2.958,2.958,0,0,1,224.248,261.132Z" transform="translate(-216.984 -232.009)" fill="#e8a887"/>
                <g id="Grupo_946764" data-name="Grupo 946764" transform="translate(23.971 0)">
                  <path id="Trazado_652137" data-name="Trazado 652137" d="M426.407,239.956l2.531-2.531a2.211,2.211,0,0,0,0-3.128l-1.638-1.638a2.211,2.211,0,0,0-3.128,0l-2.531,2.531Z" transform="translate(-421.641 -232.011)" fill="#6aa4ef"/>
                </g>
                <g id="Grupo_946765" data-name="Grupo 946765" transform="translate(3.41 5.679)">
                  <path id="Trazado_652138" data-name="Trazado 652138" d="M0,0H25.53V6.739H0Z" transform="translate(0 18.052) rotate(-45)" fill="#fdd966"/>
                </g>
                <path id="Trazado_652139" data-name="Trazado 652139" d="M218.7,463.69l-1.665,3.857a.66.66,0,0,0,.867.867l3.857-1.665Z" transform="translate(-216.984 -436.554)" fill="#538ef6"/>
              </g>
            </g>
            <g id="Grupo_946768" data-name="Grupo 946768" transform="translate(44.248 29.475)">
              <path id="Trazado_652140" data-name="Trazado 652140" d="M407.572,263.918l-4.766-4.766-2.5,2.5,4.766,4.766Z" transform="translate(-400.307 -259.152)" fill="#dbe8f9"/>
            </g>
          </g>
          <g id="Grupo_946771" data-name="Grupo 946771" transform="translate(0 0)">
            <g id="Grupo_946770" data-name="Grupo 946770">
              <path id="Trazado_652141" data-name="Trazado 652141" d="M95.386,155.526H60.208a.875.875,0,1,0,0,1.75H95.386a.875.875,0,1,0,0-1.75Z" transform="translate(-54.144 -137.31)"/>
              <path id="Trazado_652142" data-name="Trazado 652142" d="M95.386,208.843H60.208a.875.875,0,1,0,0,1.75H95.386a.875.875,0,1,0,0-1.75Z" transform="translate(-54.144 -184.382)"/>
              <path id="Trazado_652143" data-name="Trazado 652143" d="M96.261,263.034a.875.875,0,0,0-.875-.875H60.208a.875.875,0,1,0,0,1.75H95.386A.875.875,0,0,0,96.261,263.034Z" transform="translate(-54.144 -231.453)"/>
              <path id="Trazado_652144" data-name="Trazado 652144" d="M85.407,316.351a.875.875,0,0,0-.875-.875H60.208a.875.875,0,1,0,0,1.75H84.532A.875.875,0,0,0,85.407,316.351Z" transform="translate(-54.144 -278.526)"/>
              <path id="Trazado_652145" data-name="Trazado 652145" d="M79.087,369.668a.875.875,0,0,0-.875-.875h-18a.875.875,0,1,0,0,1.75h18A.875.875,0,0,0,79.087,369.668Z" transform="translate(-54.144 -325.598)"/>
              <path id="Trazado_652146" data-name="Trazado 652146" d="M60.208,422.11a.875.875,0,0,0,0,1.75H72a.875.875,0,0,0,0-1.75Z" transform="translate(-54.144 -372.67)"/>
              <path id="Trazado_652147" data-name="Trazado 652147" d="M43.792,58.182l2.5-1.079a3.815,3.815,0,0,0,1.191-.809L70.57,33.207a3.085,3.085,0,0,0,0-4.365L68.932,27.2a3.09,3.09,0,0,0-4.365,0L41.479,50.291h0a3.816,3.816,0,0,0-.808,1.19l-2.737,6.341a1.546,1.546,0,0,0-.111.395H19.53a2.756,2.756,0,0,1-2.753-2.753V11.635H60.584V27.119a.875.875,0,0,0,1.75,0V4.5a4.508,4.508,0,0,0-4.5-4.5H19.53a4.508,4.508,0,0,0-4.5,4.5V55.465a4.508,4.508,0,0,0,4.5,4.5h38.3a4.508,4.508,0,0,0,4.5-4.5V45.572a.875.875,0,1,0-1.75,0v9.893a2.756,2.756,0,0,1-2.753,2.753H43.709l.081-.035h0ZM16.777,4.5A2.756,2.756,0,0,1,19.53,1.75h38.3A2.756,2.756,0,0,1,60.584,4.5V9.885H16.777ZM65.8,28.441a1.338,1.338,0,0,1,1.89,0l1.638,1.638a1.338,1.338,0,0,1,0,1.89L67.42,33.882l-3.529-3.529Zm-3.15,3.15,3.529,3.529-1.262,1.262-3.529-3.529Zm-2.5,2.5,3.529,3.529-16.82,16.82L43.335,50.91Zm-20.4,23.929.939-2.176,1.237,1.237Zm3.9-1.685L41.44,54.114l.791-1.833,3.261,3.261Z" transform="translate(-15.027 0)"/>
            </g>
          </g>
        </g>
        <g id="Elipse_7750" data-name="Elipse 7750" transform="translate(0 15.815)" fill="#bcea73" stroke="#000" stroke-width="2">
          <ellipse cx="9.025" cy="9.025" rx="9.025" ry="9.025" stroke="none"/>
          <ellipse cx="9.025" cy="9.025" rx="8.025" ry="8.025" fill="none"/>
        </g>
        <path id="Trazado_653319" data-name="Trazado 653319" d="M372.047,133.1l-4.343,4.343-.8-.8a.939.939,0,0,0-1.327,1.327l1.46,1.46a.938.938,0,0,0,1.327,0l5.007-5.006a.939.939,0,0,0-1.328-1.328Z" transform="translate(-360.345 -111.907)"/>
      </g>
    </g>
  </g>
</svg>
