<svg xmlns="http://www.w3.org/2000/svg" width="69.947" height="65.368" viewBox="0 0 69.947 65.368">
  <g id="desperdicio_1_" data-name="desperdicio (1)" transform="translate(-7.991 -24.223)">
    <g id="Grupo_946555" data-name="Grupo 946555" transform="translate(9.12 25.353)">
      <g id="Grupo_946552" data-name="Grupo 946552" transform="translate(0 0)">
        <path id="Trazado_652871" data-name="Trazado 652871" d="M83.49,210.81H49.012a1.1,1.1,0,0,0-1.094,1.2l3.107,33.825a3.222,3.222,0,0,0,3.243,2.9H78.235a3.222,3.222,0,0,0,3.243-2.9l3.107-33.825a1.1,1.1,0,0,0-1.095-1.2Z" transform="translate(-43.413 -185.629)" fill="#eceff1" fill-rule="evenodd"/>
        <path id="Trazado_652872" data-name="Trazado 652872" d="M73.057,247.165a3.262,3.262,0,0,0,2.81,1.571H99.833a3.222,3.222,0,0,0,3.244-2.9l3.107-33.825a1.1,1.1,0,0,0-1.094-1.2q0,.05-.005.1l-3.107,33.825a3.222,3.222,0,0,1-3.243,2.9H74.768A3.305,3.305,0,0,1,73.057,247.165Z" transform="translate(-65.011 -185.629)" fill="#d1d1d6" fill-rule="evenodd"/>
        <path id="Trazado_652873" data-name="Trazado 652873" d="M116.214,264.314l-1.8,19.548H110.77l1.8-19.548Zm-23.347,0,1.8,19.548h3.649l-1.8-19.548Zm13.841,0-.049,19.548h-3.633l.049-19.548Z" transform="translate(-82.028 -231.588)" fill="#d1d1d6" fill-rule="evenodd"/>
        <path id="Trazado_652874" data-name="Trazado 652874" d="M116.214,264.314l-1.8,19.548H113.8l1.8-19.548Zm-23.347,0,1.8,19.548h.616l-1.8-19.548Z" transform="translate(-82.028 -231.588)" fill="#b1b1b5" fill-rule="evenodd"/>
        <path id="Trazado_652875" data-name="Trazado 652875" d="M18.092,50.422,48.461,32.889c1.507-.87,3.52-.946,4.228.28l2.117,3.666a.443.443,0,0,1-.178.63L18.972,58.05a.443.443,0,0,1-.635-.161l-2.116-3.666c-.7-1.216.365-2.931,1.871-3.8Z" transform="translate(-16 -32.241)" fill="#9facba" fill-rule="evenodd"/>
        <path id="Trazado_652876" data-name="Trazado 652876" d="M18.094,50.422,48.463,32.889c1.507-.87,3.52-.946,4.228.28l2.117,3.666a.443.443,0,0,1-.178.63l-.364.21-1.9-3.3c-.708-1.227-2.721-1.15-4.228-.28L17.765,51.632A4.675,4.675,0,0,0,16,53.4a3.861,3.861,0,0,1,2.092-2.979Z" transform="translate(-16.002 -32.241)" fill="#8d9ca8" fill-rule="evenodd"/>
      </g>
      <g id="Grupo_946553" data-name="Grupo 946553" transform="translate(33.302 1.073)">
        <path id="Trazado_652877" data-name="Trazado 652877" d="M258.848,61.075a.985.985,0,0,1-1.341-.359l-5.217-9.037a.985.985,0,0,1,.359-1.341l17.937-10.356a.985.985,0,0,1,1.341.359l5.217,9.037a.985.985,0,0,1-.359,1.341Z" transform="translate(-252.158 -39.85)" fill="#d8ecfe" fill-rule="evenodd"/>
        <path id="Trazado_652878" data-name="Trazado 652878" d="M258.848,119.25a.985.985,0,0,1-1.341-.359l-5.217-9.037a.985.985,0,0,1,.277-1.288l.013.023,5.217,9.037a.985.985,0,0,0,1.341.359l17.937-10.356a.968.968,0,0,0,.082-.053.985.985,0,0,1-.372,1.318Z" transform="translate(-252.158 -98.026)" fill="#c4e2ff" fill-rule="evenodd"/>
        <path id="Trazado_652879" data-name="Trazado 652879" d="M387.947,59.207l1.819,3.151a.7.7,0,0,0,.806.325L392.6,62.1l-3.01-5.214-1.52,1.462A.7.7,0,0,0,387.947,59.207Z" transform="translate(-368.716 -54.482)" fill="#add5fa" fill-rule="evenodd"/>
      </g>
      <g id="Grupo_946554" data-name="Grupo 946554" transform="translate(44.391 22.34)">
        <path id="Trazado_652880" data-name="Trazado 652880" d="M387.436,293.686h7.322v5.594h-7.322Z" transform="translate(-379.449 -279.158)" fill="#a79ba7" fill-rule="evenodd"/>
        <path id="Trazado_652881" data-name="Trazado 652881" d="M430.772,293.686h1.211v5.594h-1.211Z" transform="translate(-416.674 -279.158)" fill="#837683" fill-rule="evenodd"/>
        <path id="Trazado_652882" data-name="Trazado 652882" d="M332.585,190.66H352.3a1.8,1.8,0,0,1,1.791,1.791v12.321a1.8,1.8,0,0,1-1.791,1.791H332.585a1.8,1.8,0,0,1-1.791-1.791V192.451A1.8,1.8,0,0,1,332.585,190.66Z" transform="translate(-330.794 -190.66)" fill="#d8ecfe" fill-rule="evenodd"/>
        <path id="Trazado_652883" data-name="Trazado 652883" d="M353.6,191.654a1.8,1.8,0,0,1,1.1,1.651v12.321a1.8,1.8,0,0,1-1.791,1.791H333.2a1.8,1.8,0,0,1-1.691-1.2,1.774,1.774,0,0,0,.693.14h19.715a1.8,1.8,0,0,0,1.791-1.791V192.243A1.777,1.777,0,0,0,353.6,191.654Z" transform="translate(-331.406 -191.514)" fill="#c4e2ff" fill-rule="evenodd"/>
        <path id="Trazado_652884" data-name="Trazado 652884" d="M357.7,326.568h14.983a.424.424,0,0,0,.423-.423v-1.313a1.4,1.4,0,0,0-1.527-1.22H358.8a1.4,1.4,0,0,0-1.527,1.22v1.313A.424.424,0,0,0,357.7,326.568Z" transform="translate(-353.539 -304.863)" fill="#eceff1" fill-rule="evenodd"/>
        <path id="Trazado_652885" data-name="Trazado 652885" d="M357.7,327.683h14.983a.424.424,0,0,0,.423-.423v-1.313a1.2,1.2,0,0,0-.725-1.037.993.993,0,0,1,.082.394v1.313a.424.424,0,0,1-.423.423H357.273v.22A.424.424,0,0,0,357.7,327.683Z" transform="translate(-353.539 -305.979)" fill="#d1d1d6" fill-rule="evenodd"/>
      </g>
    </g>
    <path id="Trazado_652886" data-name="Trazado 652886" d="M75.68,61.807a.672.672,0,0,1-.664.662H55.3a.672.672,0,0,1-.664-.662V49.484a.674.674,0,0,1,.664-.662H75.017a.674.674,0,0,1,.664.662ZM67.7,65.315H62.631v-.589H67.7Zm4.248,2.39v.565H58.377V67.7a.567.567,0,0,1,.4-.133h12.77A.56.56,0,0,1,71.944,67.705Zm3.073-21.139H55.3a2.921,2.921,0,0,0-2.92,2.918V61.807a2.922,2.922,0,0,0,2.92,2.919h5.071v.589h-1.6a2.517,2.517,0,0,0-2.655,2.348V69.4a1.128,1.128,0,0,0,1.128,1.128H73.072A1.128,1.128,0,0,0,74.2,69.4V67.663a2.517,2.517,0,0,0-2.655-2.348H69.953v-.589h5.064a2.922,2.922,0,0,0,2.921-2.919V49.484a2.922,2.922,0,0,0-2.921-2.918ZM40.688,59.209h1.381L40.482,76.5H39.1ZM37.86,78.757h3.651a1.132,1.132,0,0,0,1.128-1.025l1.792-19.547a1.132,1.132,0,0,0-1.122-1.231H39.659a1.126,1.126,0,0,0-1.122,1.025l-1.8,19.547a1.142,1.142,0,0,0,.292.863,1.123,1.123,0,0,0,.83.368ZM31.3,59.209H32.67L32.63,76.5H31.25ZM30.121,78.757h3.631a1.126,1.126,0,0,0,1.128-1.126l.053-19.547a1.132,1.132,0,0,0-1.128-1.131H30.168a1.127,1.127,0,0,0-1.128,1.126l-.046,19.547a1.152,1.152,0,0,0,.325.8,1.138,1.138,0,0,0,.8.331Zm-7.54-19.548L24.168,76.5H22.787L21.194,59.209ZM20.63,77.731a1.137,1.137,0,0,0,1.128,1.025H25.4a1.126,1.126,0,0,0,.836-.368,1.142,1.142,0,0,0,.292-.863l-1.8-19.547a1.126,1.126,0,0,0-1.122-1.025H19.959a1.132,1.132,0,0,0-1.122,1.231Zm25.435,7.725,3.106-33.792H14.756l3.1,33.793a2.093,2.093,0,0,0,2.124,1.876H43.947a2.091,2.091,0,0,0,2.117-1.878ZM10.322,46.774a1.053,1.053,0,0,1,.126-.937,3.562,3.562,0,0,1,1.328-1.324L42.148,26.98a3.668,3.668,0,0,1,1.746-.5,1.056,1.056,0,0,1,.943.365l1.779,3.084L12.1,49.859ZM21.048,35.036l.657,1.14,8.257-4.766L29.3,30.27a.079.079,0,0,0-.053-.038.084.084,0,0,0-.066.007l-8.1,4.681a.08.08,0,0,0-.04.051.072.072,0,0,0,.006.064ZM50.405,49.409H17.391L48.314,31.556a1.573,1.573,0,0,0,.591-2.172l-2.117-3.665C45.7,23.83,43,23.883,41.02,25.025l-9.106,5.256-.657-1.139a2.343,2.343,0,0,0-3.2-.858l-8.1,4.682a2.345,2.345,0,0,0-.856,3.2l.657,1.14-9.106,5.256a5.83,5.83,0,0,0-2.19,2.218A3.139,3.139,0,0,0,8.364,47.9l2.117,3.665a1.568,1.568,0,0,0,1.361.8,1.628,1.628,0,0,0,.7-.163l3.073,33.463a4.339,4.339,0,0,0,4.367,3.927H43.947a4.343,4.343,0,0,0,4.367-3.927L51.527,50.64a1.131,1.131,0,0,0-1.122-1.231Zm-1.832-6.257a1.124,1.124,0,0,0,.418-1.54l-.909-1.568a1.127,1.127,0,1,0-1.951,1.128l.9,1.568a1.138,1.138,0,0,0,.982.564A1.1,1.1,0,0,0,48.573,43.151ZM61.291,27.609l.591,1.022-1.288,1.233a1.13,1.13,0,0,0-.192,1.376l2.369,4.108a1.13,1.13,0,0,0,1.294.519l1.706-.494.591,1.021L48.679,46.6,43.6,37.818Zm1.752,3.033-.246.234,1.487,2.577.325-.094ZM41.365,37.219a2.112,2.112,0,0,0,.212,1.6l5.217,9.036a2.114,2.114,0,0,0,1.832,1.055,2.082,2.082,0,0,0,1.049-.282L67.616,38.274a2.1,2.1,0,0,0,.982-1.282,2.077,2.077,0,0,0-.212-1.6l-5.217-9.038a2.11,2.11,0,0,0-2.881-.771L42.347,35.939a2.1,2.1,0,0,0-.982,1.28Z" transform="translate(0)" fill-rule="evenodd"/>
  </g>
</svg>
