<svg xmlns="http://www.w3.org/2000/svg" xmlns:xlink="http://www.w3.org/1999/xlink" width="88" height="88" viewBox="0 0 88 88">
  <defs>
    <filter id="Elipse_7199" x="0" y="0" width="88" height="88" filterUnits="userSpaceOnUse">
      <feOffset dy="3" input="SourceAlpha"/>
      <feGaussianBlur stdDeviation="3" result="blur"/>
      <feFlood flood-opacity="0.161"/>
      <feComposite operator="in" in2="blur"/>
      <feComposite in="SourceGraphic"/>
    </filter>
  </defs>
  <g id="Grupo_949288" data-name="Grupo 949288" transform="translate(3788.5 9426.654)">
    <g transform="matrix(1, 0, 0, 1, -3788.5, -9426.65)" filter="url(#Elipse_7199)">
      <circle id="Elipse_7199-2" data-name="Elipse 7199" cx="35" cy="35" r="35" transform="translate(9 6)" fill="#00cca7"/>
    </g>
    <g id="lingotes-de-oro" transform="translate(-3771.448 -9466.779)">
      <g id="Grupo_946662" data-name="Grupo 946662" transform="translate(0.77 77.991)">
        <path id="Trazado_653073" data-name="Trazado 653073" d="M400.509,342.27l-2.909-7.318a1.755,1.755,0,0,0-1.631-1.107h-3.109l-.812.4-3.407,8.2.349,1.317.828.331h9.452A1.335,1.335,0,0,0,400.509,342.27Z" transform="translate(-349.258 -313.337)" fill="#ffe02f"/>
        <path id="Trazado_653074" data-name="Trazado 653074" d="M344.353,342.27l2.909-7.318a1.755,1.755,0,0,1,1.631-1.107h-5.476a1.755,1.755,0,0,0-1.631,1.107l-2.909,7.318a1.335,1.335,0,0,0,1.241,1.829h5.476A1.335,1.335,0,0,1,344.353,342.27Z" transform="translate(-304.551 -313.337)" fill="#fbc700"/>
        <path id="Trazado_653075" data-name="Trazado 653075" d="M234.844,342.27l-2.909-7.318a1.755,1.755,0,0,0-1.631-1.107h-3.109l-.812.4-3.407,8.2.349,1.317.828.331H233.6A1.335,1.335,0,0,0,234.844,342.27Z" transform="translate(-200.708 -313.337)" fill="#ffe02f"/>
        <path id="Trazado_653076" data-name="Trazado 653076" d="M178.688,342.27l2.909-7.318a1.755,1.755,0,0,1,1.631-1.107h-5.476a1.755,1.755,0,0,0-1.631,1.107l-2.909,7.318a1.335,1.335,0,0,0,1.241,1.829h5.476A1.335,1.335,0,0,1,178.688,342.27Z" transform="translate(-156.001 -313.337)" fill="#fbc700"/>
        <path id="Trazado_653077" data-name="Trazado 653077" d="M69.178,342.27l-2.909-7.318a1.755,1.755,0,0,0-1.631-1.107H61.528l-.812.4-3.407,8.2.349,1.317.828.331h9.452a1.335,1.335,0,0,0,1.241-1.829Z" transform="translate(-52.158 -313.337)" fill="#ffe02f"/>
        <path id="Trazado_653078" data-name="Trazado 653078" d="M13.022,342.27l2.909-7.318a1.755,1.755,0,0,1,1.631-1.107H12.087a1.755,1.755,0,0,0-1.631,1.107L7.547,342.27A1.335,1.335,0,0,0,8.788,344.1h5.476A1.335,1.335,0,0,1,13.022,342.27Z" transform="translate(-7.451 -313.337)" fill="#fbc700"/>
        <path id="Trazado_653079" data-name="Trazado 653079" d="M317.676,243.021l-2.909-7.318a1.755,1.755,0,0,0-1.631-1.107h-3.109l-.812.4-3.407,8.2.349,1.317.828.331h9.452A1.335,1.335,0,0,0,317.676,243.021Z" transform="translate(-274.982 -224.342)" fill="#ffe02f"/>
        <path id="Trazado_653080" data-name="Trazado 653080" d="M261.52,243.021l2.909-7.318a1.755,1.755,0,0,1,1.631-1.107h-5.476a1.755,1.755,0,0,0-1.631,1.107l-2.909,7.318a1.335,1.335,0,0,0,1.241,1.829h5.476A1.335,1.335,0,0,1,261.52,243.021Z" transform="translate(-230.275 -224.342)" fill="#fbc700"/>
        <g id="Grupo_946661" data-name="Grupo 946661" transform="translate(17.116 0)">
          <path id="Trazado_653081" data-name="Trazado 653081" d="M234.844,143.772l-2.909-7.318a1.755,1.755,0,0,0-1.631-1.107h-3.109l-.812.4-3.407,8.2.349,1.317.828.331H233.6A1.335,1.335,0,0,0,234.844,143.772Z" transform="translate(-217.824 -135.347)" fill="#ffe02f"/>
          <path id="Trazado_653082" data-name="Trazado 653082" d="M178.688,143.772l2.909-7.318a1.755,1.755,0,0,1,1.631-1.107h-5.476a1.755,1.755,0,0,0-1.631,1.107l-2.909,7.318a1.335,1.335,0,0,0,1.241,1.829h5.476A1.335,1.335,0,0,1,178.688,143.772Z" transform="translate(-173.117 -135.347)" fill="#fbc700"/>
        </g>
        <path id="Trazado_653083" data-name="Trazado 653083" d="M152.011,243.021,149.1,235.7a1.755,1.755,0,0,0-1.631-1.107h-3.109l-.812.4-3.407,8.2.349,1.317.828.331h9.452A1.335,1.335,0,0,0,152.011,243.021Z" transform="translate(-126.433 -224.342)" fill="#ffe02f"/>
        <path id="Trazado_653084" data-name="Trazado 653084" d="M95.855,243.021l2.909-7.318A1.755,1.755,0,0,1,100.4,234.6H94.92a1.755,1.755,0,0,0-1.631,1.107l-2.909,7.318a1.335,1.335,0,0,0,1.241,1.829H97.1A1.335,1.335,0,0,1,95.855,243.021Z" transform="translate(-81.726 -224.342)" fill="#fbc700"/>
      </g>
      <g id="Grupo_946663" data-name="Grupo 946663" transform="translate(0 71.383)">
        <path id="Trazado_653085" data-name="Trazado 653085" d="M3.059,149.95.15,157.268a2.11,2.11,0,0,0,1.961,2.89H16.553a2.107,2.107,0,0,0,1.337-.478,2.107,2.107,0,0,0,1.337.478H33.669a2.107,2.107,0,0,0,1.337-.478,2.107,2.107,0,0,0,1.337.478h5.413a.775.775,0,1,0,0-1.55H36.342a.561.561,0,0,1-.521-.768l2.909-7.318a.975.975,0,0,1,.911-.618h7.843a.976.976,0,0,1,.911.618l2.909,7.318a.561.561,0,0,1-.521.768H45.371a.775.775,0,0,0,0,1.55h5.413a2.11,2.11,0,0,0,1.961-2.89l-2.909-7.318a2.517,2.517,0,0,0-2.351-1.6H44.26a2.107,2.107,0,0,0-.073-1.34L41.278,139.7a2.517,2.517,0,0,0-2.351-1.6H35.7a2.107,2.107,0,0,0-.073-1.34l-2.909-7.318a2.517,2.517,0,0,0-2.351-1.6H28.256a.775.775,0,1,0,0,1.55h2.114a.975.975,0,0,1,.911.618l2.909,7.318a.561.561,0,0,1-.521.768H19.226a.561.561,0,0,1-.521-.768l2.909-7.318a.975.975,0,0,1,.911-.618H24.64a.775.775,0,1,0,0-1.55H22.526a2.517,2.517,0,0,0-2.351,1.6l-2.909,7.318a2.108,2.108,0,0,0-.073,1.34H13.968a2.517,2.517,0,0,0-2.351,1.6l-2.909,7.318a2.108,2.108,0,0,0-.073,1.34H5.41a2.517,2.517,0,0,0-2.351,1.6Zm12.546,0c-.006-.016-.014-.03-.02-.046H20.2c-.007.015-.014.03-.02.046L17.89,155.7Zm18.528,8.413a.555.555,0,0,1-.464.246H19.227a.561.561,0,0,1-.521-.768l2.909-7.318a.975.975,0,0,1,.911-.618h7.843a.975.975,0,0,1,.911.618l2.909,7.318A.555.555,0,0,1,34.133,158.363Zm3.158-8.413L35.006,155.7,32.72,149.95c-.006-.016-.014-.03-.02-.046h4.611C37.3,149.92,37.3,149.935,37.291,149.95Zm-6.207-10.3h7.843a.975.975,0,0,1,.911.618l2.909,7.318a.561.561,0,0,1-.521.768H27.784a.561.561,0,0,1-.521-.768l2.909-7.318A.976.976,0,0,1,31.084,139.651Zm-2.331,0c-.007.015-.014.03-.02.046l-2.285,5.748L24.163,139.7c-.006-.016-.014-.03-.02-.046Zm-18.605,7.937,2.909-7.318a.975.975,0,0,1,.911-.618h7.843a.976.976,0,0,1,.911.618l2.909,7.318a.561.561,0,0,1-.521.768H10.669a.56.56,0,0,1-.521-.768ZM5.41,149.9h7.843a.975.975,0,0,1,.911.618l2.909,7.318a.561.561,0,0,1-.521.768H2.111a.561.561,0,0,1-.521-.768L4.5,150.523A.975.975,0,0,1,5.41,149.9Z" transform="translate(0 -122.013)"/>
        <path id="Trazado_653086" data-name="Trazado 653086" d="M412.46,185.084a.775.775,0,0,0,.775.775h3.634a.775.775,0,0,0,0-1.55h-3.634A.775.775,0,0,0,412.46,185.084Z" transform="translate(-369.847 -172.642)"/>
        <path id="Trazado_653087" data-name="Trazado 653087" d="M400.361,120.1l-3.132,1.842a.775.775,0,0,0,.785,1.336l3.132-1.842a.775.775,0,0,0-.785-1.336Z" transform="translate(-355.846 -114.969)"/>
        <path id="Trazado_653088" data-name="Trazado 653088" d="M371.425,71.515a.775.775,0,0,0-1.075.211l-2.028,3.015a.775.775,0,0,0,1.286.865l2.028-3.015A.775.775,0,0,0,371.425,71.515Z" transform="translate(-330.15 -71.383)"/>
        <path id="Trazado_653089" data-name="Trazado 653089" d="M49.346,185.084a.775.775,0,0,0,.775.775h3.634a.775.775,0,0,0,0-1.55H50.121A.775.775,0,0,0,49.346,185.084Z" transform="translate(-44.248 -172.642)"/>
        <path id="Trazado_653090" data-name="Trazado 653090" d="M69.915,120.372a.775.775,0,0,0,.275,1.061l3.132,1.842a.775.775,0,1,0,.785-1.336L70.976,120.1A.775.775,0,0,0,69.915,120.372Z" transform="translate(-62.596 -114.968)"/>
        <path id="Trazado_653091" data-name="Trazado 653091" d="M109.5,71.515a.775.775,0,0,0-.211,1.075l2.028,3.015a.775.775,0,1,0,1.286-.865l-2.028-3.015A.775.775,0,0,0,109.5,71.515Z" transform="translate(-97.88 -71.383)"/>
      </g>
    </g>
  </g>
</svg>
