<svg xmlns="http://www.w3.org/2000/svg" xmlns:xlink="http://www.w3.org/1999/xlink" width="88" height="88" viewBox="0 0 88 88">
  <defs>
    <filter id="Elipse_7199" x="0" y="0" width="88" height="88" filterUnits="userSpaceOnUse">
      <feOffset dy="3" input="SourceAlpha"/>
      <feGaussianBlur stdDeviation="3" result="blur"/>
      <feFlood flood-opacity="0.161"/>
      <feComposite operator="in" in2="blur"/>
      <feComposite in="SourceGraphic"/>
    </filter>
  </defs>
  <g id="Grupo_949291" data-name="Grupo 949291" transform="translate(2986.5 9426.654)">
    <g transform="matrix(1, 0, 0, 1, -2986.5, -9426.65)" filter="url(#Elipse_7199)">
      <circle id="Elipse_7199-2" data-name="Elipse 7199" cx="35" cy="35" r="35" transform="translate(9 6)" fill="#00cca7"/>
    </g>
    <g id="filled_outline" data-name="filled outline" transform="translate(-3037.528 -9423.813)">
      <path id="Trazado_653163" data-name="Trazado 653163" d="M80,24h43.1V80.809H80Z" transform="translate(-7.021 -7.021)" fill="#7496a6"/>
      <path id="Trazado_653164" data-name="Trazado 653164" d="M112,56h33.3l1.959,3.918v41.137l-1.959,3.918h-27.18A6.122,6.122,0,0,1,112,98.851Z" transform="translate(-35.103 -35.103)" fill="#607d8b"/>
      <circle id="Elipse_7212" data-name="Elipse 7212" cx="17.667" cy="17.667" r="17.667" transform="translate(76.86 20.65)" fill="#dedde2"/>
      <circle id="Elipse_7213" data-name="Elipse 7213" cx="7.067" cy="7.067" r="7.067" transform="translate(87.461 31.25)" fill="#607d8b"/>
      <circle id="Elipse_7214" data-name="Elipse 7214" cx="1.767" cy="1.767" r="1.767" transform="translate(92.761 36.55)" fill="#dedde2"/>
      <path id="Trazado_653165" data-name="Trazado 653165" d="M182.988,282.648,194.643,264l-18.605,12.4.016,6.245Z" transform="translate(-91.3 -217.637)" fill="#f5be41"/>
      <path id="Trazado_653166" data-name="Trazado 653166" d="M288,384h9.795v4.9H288Z" transform="translate(-189.555 -322.945)" fill="#3d5966"/>
      <path id="Trazado_653167" data-name="Trazado 653167" d="M120.815,346.938a.979.979,0,0,0-.979-.979A1.959,1.959,0,0,1,117.877,344H112v3.918h3.918a5.877,5.877,0,0,0,5.877,5.877h6.856a.979.979,0,0,0,.979-.979v-1.959a.979.979,0,0,0-.979-.979h-4.9A2.938,2.938,0,0,1,120.815,346.938Z" transform="translate(-35.103 -287.842)" fill="#e6ad2c"/>
      <path id="Trazado_653168" data-name="Trazado 653168" d="M116.076,74.768a.979.979,0,0,0,.979-.979V16.979a.979.979,0,0,0-.979-.979h-43.1a.979.979,0,0,0-.979.979V73.788a.979.979,0,0,0,.979.979ZM73.959,17.959H115.1v54.85H73.959Z"/>
      <path id="Trazado_653169" data-name="Trazado 653169" d="M199.836,136a7.836,7.836,0,1,0,7.836,7.836A7.836,7.836,0,0,0,199.836,136Zm0,13.712a5.877,5.877,0,1,1,5.877-5.877,5.877,5.877,0,0,1-5.877,5.877Z" transform="translate(-105.308 -105.308)"/>
      <path id="Trazado_653170" data-name="Trazado 653170" d="M234.938,176a2.938,2.938,0,1,0,2.938,2.938A2.938,2.938,0,0,0,234.938,176Zm0,3.918a.979.979,0,1,1,.979-.979.979.979,0,0,1-.979.979Z" transform="translate(-140.411 -140.411)"/>
      <path id="Trazado_653171" data-name="Trazado 653171" d="M139.157,48.541a.979.979,0,0,0-.876-.541h-33.3a.979.979,0,0,0-.979.979V91.831a7.109,7.109,0,0,0,7.1,7.1h27.18a.979.979,0,0,0,.876-.541l1.959-3.918a.979.979,0,0,0,.1-.438V52.9a.979.979,0,0,0-.1-.438Zm-33.2,36.678h4.086a2.941,2.941,0,0,0,2.768,1.958h0a3.922,3.922,0,0,0,3.918,3.918h4.9v1.959h-6.856a4.9,4.9,0,0,1-4.9-4.9.979.979,0,0,0-.979-.979h-2.938Zm15.128,3.918h-4.354a1.961,1.961,0,0,1-1.959-1.959,1.956,1.956,0,0,0-.047-.424l13.457-8.971Zm11.168-14.173a.979.979,0,0,0-1.374-1.335l-13.29,8.86a16.643,16.643,0,1,1,9.938.035Zm-26.3-25.006h8.347a18.735,18.735,0,0,0-8.347,8.347Zm1.863,27.95a18.784,18.784,0,0,0,7.748,5.929l-2.2,1.464a1.949,1.949,0,0,0-.559-.082.981.981,0,0,1-.979-.979.979.979,0,0,0-.979-.979h-4.9V74.937A18.723,18.723,0,0,0,107.822,77.909ZM139.261,93.8l-1.585,3.17H111.1a5.148,5.148,0,0,1-5.142-5.142V89.137h2.029a6.867,6.867,0,0,0,6.786,5.877h6.856a1.961,1.961,0,0,0,1.959-1.959V91.1a1.951,1.951,0,0,0-.56-1.369l3.015-4.824a18.617,18.617,0,0,0,13.217-9.982Zm-8.347-43.844h6.762l1.585,3.17v5.177a18.735,18.735,0,0,0-8.347-8.347Z" transform="translate(-28.082 -28.082)"/>
      <path id="Trazado_653172" data-name="Trazado 653172" d="M280.979,376a.979.979,0,0,0-.979.979v4.9a.979.979,0,0,0,.979.979h9.795a.979.979,0,0,0,.979-.979v-4.9a.979.979,0,0,0-.979-.979Zm8.815,4.9h-7.836v-2.938h7.836Z" transform="translate(-182.534 -315.924)"/>
    </g>
  </g>
</svg>
