<svg xmlns="http://www.w3.org/2000/svg" xmlns:xlink="http://www.w3.org/1999/xlink" width="1030" height="375" viewBox="0 0 1030 375">
  <defs>
    <linearGradient id="linear-gradient" x1="0.049" y1="0.149" x2="1.264" y2="1.286" gradientUnits="objectBoundingBox">
      <stop offset="0" stop-color="#3c0061"/>
      <stop offset="1" stop-color="#b3009d"/>
    </linearGradient>
    <clipPath id="clip-path">
      <rect id="Rectángulo_336759" data-name="Rectángulo 336759" width="387.99" height="354.575" fill="#ffd947"/>
    </clipPath>
    <clipPath id="clip-path-2">
      <rect id="Rectángulo_336759-2" data-name="Rectángulo 336759" width="387.99" height="354.576" fill="#ffd947"/>
    </clipPath>
  </defs>
  <g id="Grupo_902005" data-name="Grupo 902005" transform="translate(-285 -3354)">
    <rect id="Rectángulo_336758" data-name="Rectángulo 336758" width="1030" height="375" rx="26" transform="translate(285 3354)" fill="url(#linear-gradient)"/>
    <g id="Grupo_902004" data-name="Grupo 902004" transform="translate(0 -3.834)" opacity="0.18">
      <g id="Grupo_902002" data-name="Grupo 902002" transform="translate(295.443 3722.41) rotate(-90)">
        <g id="Grupo_902001" data-name="Grupo 902001" transform="translate(354.575 0) rotate(90)" clip-path="url(#clip-path)">
          <path id="Trazado_629969" data-name="Trazado 629969" d="M71.3,4.847V19.382H0V31.737H41.871V30.11H1.639v-9.1h71.3V4.847a2.514,2.514,0,1,0-1.639,0" transform="translate(25.432)" fill="#ffd947"/>
          <path id="Trazado_629970" data-name="Trazado 629970" d="M5.029,2.5A2.515,2.515,0,0,0,0,2.5,2.493,2.493,0,0,0,1.593,4.816V36.3L27.5,58.189H62.909V56.561H28.619V16.651a2.5,2.5,0,1,0-1.639.218V55.614l-11.325-9.57V10.917a2.515,2.515,0,1,0-1.639,0V44.659L3.233,35.545V4.878a2.491,2.491,0,0,0,1.8-2.38" transform="translate(6.014 68.482)" fill="#ffd947"/>
          <path id="Trazado_629971" data-name="Trazado 629971" d="M4.881,3.311h58.67V1.684H4.881a2.5,2.5,0,1,0,0,1.627" transform="translate(3.752 135.696)" fill="#ffd947"/>
          <path id="Trazado_629972" data-name="Trazado 629972" d="M3.575,131.723V44.043L43.621,1.627H62.712V0h-19.8L1.936,43.4v88.157a2.492,2.492,0,0,0,.578,4.921,2.49,2.49,0,0,0,1.06-4.753" transform="translate(6.751 149.18)" fill="#ffd947"/>
          <path id="Trazado_629973" data-name="Trazado 629973" d="M3.334,119.327V35.454L34.206,1.627H53.289V0H33.48L1.7,34.827v84.5a2.476,2.476,0,0,0,0,4.7v.147H3.334v-.147a2.476,2.476,0,0,0,0-4.7" transform="translate(16.175 162.052)" fill="#ffd947"/>
          <path id="Trazado_629974" data-name="Trazado 629974" d="M44.306,126.214V69.977H34.967a2.511,2.511,0,0,0-4.88,0H15.625V1.627H55.779V0H13.987V71.6H30.253a2.51,2.51,0,0,0,4.548,0h7.867v32.548H1.695v41.589a2.488,2.488,0,0,0,.819,4.847,2.488,2.488,0,0,0,.819-4.847V105.78H42.668v20.434a2.514,2.514,0,1,0,1.639,0" transform="translate(26.498 203.986)" fill="#ffd947"/>
          <path id="Trazado_629975" data-name="Trazado 629975" d="M3.333,39.963V0H1.695V39.963a2.488,2.488,0,0,0,.819,4.847,2.488,2.488,0,0,0,.819-4.847" transform="translate(206.779 239.789)" fill="#ffd947"/>
          <path id="Trazado_629976" data-name="Trazado 629976" d="M2.861,39.85V0H1.222V40.181a2.487,2.487,0,0,0,1.293,4.628,2.49,2.49,0,0,0,.346-4.959" transform="translate(222.002 239.789)" fill="#ffd947"/>
          <path id="Trazado_629977" data-name="Trazado 629977" d="M383.019,64.595a2.513,2.513,0,1,0,.212-1.627H356.87l-18.433,18.3h-.49v.487L320.41,99.172H295.336v-83h59V32.449h28.725a2.482,2.482,0,1,0,.1-1.627H355.976V14.547H293.7V23.5h-25.4V4.848a2.514,2.514,0,1,0-1.639-.005V25.126H293.7V100.8h25.074l-19.677,19.538H180.941L157.188,96.75H50.3V35.071H13.568V11.489H69.251a2.494,2.494,0,1,0-.166-1.627H11.929V36.7h36.73V65.106H39.014L23.891,50.088H4.959a2.5,2.5,0,1,0-.177,1.627h18.43L38.336,66.733H48.659V98.378h107.85l23.754,23.587H365.809v34.166H330.273a2.493,2.493,0,1,0,.318,1.627h35.218V178.1H330.48a2.5,2.5,0,1,0,0,1.627h35.328v28.294a2.5,2.5,0,0,0-2.213,1.813H330.572v40.685h1.639V211.461H363.69a2.517,2.517,0,0,0,4.834-.963,2.486,2.486,0,0,0-1.076-2.044V120.338H301.411L321.088,100.8h62.021a2.5,2.5,0,1,0,0-1.627H322.727L339.117,82.9h44.042a2.51,2.51,0,1,0-.1-1.628H340.755l16.793-16.675Z" transform="translate(0 1.475)" fill="#ffd947"/>
          <path id="Trazado_629978" data-name="Trazado 629978" d="M20.543,37.43H1.7V62.747a2.488,2.488,0,0,0,.819,4.846,2.488,2.488,0,0,0,.819-4.846V39.058H22.182V0H20.543Z" transform="translate(98.611 238.161)" fill="#ffd947"/>
          <path id="Trazado_629979" data-name="Trazado 629979" d="M5.736,0a5.7,5.7,0,1,0,5.736,5.7A5.723,5.723,0,0,0,5.736,0m0,9.765A4.069,4.069,0,1,1,9.833,5.7a4.087,4.087,0,0,1-4.1,4.068" transform="translate(372.365 120.989)" fill="#ffd947"/>
          <path id="Trazado_629980" data-name="Trazado 629980" d="M0,5.7A5.736,5.736,0,1,0,5.737,0,5.723,5.723,0,0,0,0,5.7m9.834,0a4.1,4.1,0,1,1-4.1-4.068A4.087,4.087,0,0,1,9.834,5.7" transform="translate(42.124 181.203)" fill="#ffd947"/>
          <path id="Trazado_629981" data-name="Trazado 629981" d="M5.736,11.392A5.7,5.7,0,1,0,0,5.7a5.723,5.723,0,0,0,5.736,5.7m0-9.765A4.068,4.068,0,1,1,1.639,5.7a4.088,4.088,0,0,1,4.1-4.068" transform="translate(122.431 3.004)" fill="#ffd947"/>
          <path id="Trazado_629982" data-name="Trazado 629982" d="M5.736,11.392A5.7,5.7,0,1,0,0,5.7a5.723,5.723,0,0,0,5.736,5.7m0-9.765A4.068,4.068,0,1,1,1.639,5.7a4.087,4.087,0,0,1,4.1-4.068" transform="translate(155.209 3.004)" fill="#ffd947"/>
          <path id="Trazado_629983" data-name="Trazado 629983" d="M5.736,0a5.7,5.7,0,1,0,5.736,5.7A5.723,5.723,0,0,0,5.736,0m0,9.765A4.068,4.068,0,1,1,9.833,5.7a4.087,4.087,0,0,1-4.1,4.068" transform="translate(43.763 342.314)" fill="#ffd947"/>
          <path id="Trazado_629984" data-name="Trazado 629984" d="M5.736,0a5.7,5.7,0,1,0,5.736,5.7A5.723,5.723,0,0,0,5.736,0m0,9.765A4.069,4.069,0,1,1,9.833,5.7a4.087,4.087,0,0,1-4.1,4.068" transform="translate(80.639 273.15)" fill="#ffd947"/>
          <path id="Trazado_629985" data-name="Trazado 629985" d="M5.736,0a5.7,5.7,0,1,0,5.736,5.7A5.723,5.723,0,0,0,5.736,0m0,9.765A4.069,4.069,0,1,1,9.833,5.7a4.087,4.087,0,0,1-4.1,4.068" transform="translate(372.365 192.594)" fill="#ffd947"/>
        </g>
      </g>
      <g id="Grupo_902003" data-name="Grupo 902003" transform="translate(905.35 3722.41) rotate(-90)">
        <g id="Grupo_902001-2" data-name="Grupo 902001" transform="translate(0 387.99) rotate(-90)" clip-path="url(#clip-path-2)">
          <path id="Trazado_629969-2" data-name="Trazado 629969" d="M71.3,26.891V12.355H0V0H41.871V1.627H1.639v9.1h71.3V26.891a2.514,2.514,0,1,1-1.639,0" transform="translate(25.432 322.838)" fill="#ffd947"/>
          <path id="Trazado_629970-2" data-name="Trazado 629970" d="M5.029,55.692a2.515,2.515,0,0,1-5.029,0,2.493,2.493,0,0,1,1.593-2.318V21.892L27.5,0H62.909V1.628H28.619v39.91a2.5,2.5,0,1,1-1.639-.218V2.575l-11.325,9.57V47.272a2.515,2.515,0,1,1-1.639,0V13.53L3.233,22.644V53.311a2.491,2.491,0,0,1,1.8,2.38" transform="translate(6.014 227.904)" fill="#ffd947"/>
          <path id="Trazado_629971-2" data-name="Trazado 629971" d="M4.881,1.683h58.67V3.31H4.881a2.5,2.5,0,1,1,0-1.627" transform="translate(3.752 213.886)" fill="#ffd947"/>
          <path id="Trazado_629972-2" data-name="Trazado 629972" d="M3.575,4.753v87.68l40.046,42.416H62.712v1.627h-19.8L1.936,93.078V4.921A2.492,2.492,0,0,1,2.515,0a2.49,2.49,0,0,1,1.06,4.753" transform="translate(6.751 68.92)" fill="#ffd947"/>
          <path id="Trazado_629973-2" data-name="Trazado 629973" d="M3.334,4.847V88.72l30.872,33.826H53.289v1.627H33.48L1.7,89.348V4.847a2.476,2.476,0,0,1,0-4.7V0H3.334V.148a2.476,2.476,0,0,1,0,4.7" transform="translate(16.175 68.349)" fill="#ffd947"/>
          <path id="Trazado_629974-2" data-name="Trazado 629974" d="M44.306,24.375V80.612H34.967a2.511,2.511,0,0,1-4.88,0H15.625v68.35H55.779v1.627H13.987v-71.6H30.253a2.51,2.51,0,0,1,4.548,0h7.867V46.436H1.695V4.847A2.488,2.488,0,0,1,2.514,0a2.488,2.488,0,0,1,.819,4.847V44.809H42.668V24.375a2.514,2.514,0,1,1,1.639,0" transform="translate(26.498 0)" fill="#ffd947"/>
          <path id="Trazado_629975-2" data-name="Trazado 629975" d="M3.333,4.847V44.809H1.695V4.847A2.488,2.488,0,0,1,2.514,0a2.488,2.488,0,0,1,.819,4.847" transform="translate(206.779 69.978)" fill="#ffd947"/>
          <path id="Trazado_629976-2" data-name="Trazado 629976" d="M2.861,4.959v39.85H1.222V4.628A2.487,2.487,0,0,1,2.515,0a2.49,2.49,0,0,1,.346,4.959" transform="translate(222.002 69.978)" fill="#ffd947"/>
          <path id="Trazado_629977-2" data-name="Trazado 629977" d="M383.019,185.924a2.513,2.513,0,1,1,.212,1.627H356.87l-18.433-18.3h-.49v-.487L320.41,151.347H295.336v83h59V218.07h28.725a2.482,2.482,0,1,1,.1,1.627H355.976v16.274H293.7v-8.951h-25.4v18.65a2.514,2.514,0,1,1-1.639.005V225.393H293.7V149.72h25.074l-19.677-19.538H180.941l-23.754,23.587H50.3v61.679H13.568V239.03H69.251a2.494,2.494,0,1,1-.166,1.627H11.929V213.821h36.73V185.413H39.014L23.891,200.43H4.959a2.5,2.5,0,1,1-.177-1.627h18.43l15.124-15.018H48.659V152.141h107.85l23.754-23.587H365.809V94.388H330.273a2.493,2.493,0,1,1,.318-1.627h35.218V72.419H330.48a2.5,2.5,0,1,1,0-1.627h35.328V42.5a2.5,2.5,0,0,1-2.213-1.813H330.572V0h1.639V39.058H363.69a2.517,2.517,0,0,1,4.834.963,2.486,2.486,0,0,1-1.076,2.044v88.117H301.411l19.677,19.538h62.021a2.5,2.5,0,1,1,0,1.627H322.727l16.39,16.274h44.042a2.51,2.51,0,1,1-.1,1.628H340.755l16.793,16.675Z" transform="translate(0 102.581)" fill="#ffd947"/>
          <path id="Trazado_629978-2" data-name="Trazado 629978" d="M20.543,30.162H1.7V4.846A2.488,2.488,0,0,1,2.515,0a2.488,2.488,0,0,1,.819,4.846V28.535H22.182V67.592H20.543Z" transform="translate(98.611 48.822)" fill="#ffd947"/>
          <path id="Trazado_629979-2" data-name="Trazado 629979" d="M5.736,11.392a5.7,5.7,0,1,1,5.736-5.7,5.723,5.723,0,0,1-5.736,5.7m0-9.765A4.069,4.069,0,1,0,9.833,5.7a4.087,4.087,0,0,0-4.1-4.068" transform="translate(372.365 222.194)" fill="#ffd947"/>
          <path id="Trazado_629980-2" data-name="Trazado 629980" d="M0,5.7a5.736,5.736,0,1,1,5.737,5.7A5.723,5.723,0,0,1,0,5.7m9.834,0a4.1,4.1,0,1,0-4.1,4.068A4.087,4.087,0,0,0,9.834,5.7" transform="translate(42.124 161.981)" fill="#ffd947"/>
          <path id="Trazado_629981-2" data-name="Trazado 629981" d="M5.736,0A5.7,5.7,0,1,1,0,5.7,5.723,5.723,0,0,1,5.736,0m0,9.765A4.068,4.068,0,1,0,1.639,5.7a4.088,4.088,0,0,0,4.1,4.068" transform="translate(122.431 340.179)" fill="#ffd947"/>
          <path id="Trazado_629982-2" data-name="Trazado 629982" d="M5.736,0A5.7,5.7,0,1,1,0,5.7,5.723,5.723,0,0,1,5.736,0m0,9.765A4.068,4.068,0,1,0,1.639,5.7a4.087,4.087,0,0,0,4.1,4.068" transform="translate(155.209 340.179)" fill="#ffd947"/>
          <path id="Trazado_629983-2" data-name="Trazado 629983" d="M5.736,11.392a5.7,5.7,0,1,1,5.736-5.7,5.723,5.723,0,0,1-5.736,5.7m0-9.765A4.068,4.068,0,1,0,9.833,5.7a4.087,4.087,0,0,0-4.1-4.068" transform="translate(43.763 0.869)" fill="#ffd947"/>
          <path id="Trazado_629984-2" data-name="Trazado 629984" d="M5.736,11.392a5.7,5.7,0,1,1,5.736-5.7,5.723,5.723,0,0,1-5.736,5.7m0-9.765A4.069,4.069,0,1,0,9.833,5.7a4.087,4.087,0,0,0-4.1-4.068" transform="translate(80.639 70.034)" fill="#ffd947"/>
          <path id="Trazado_629985-2" data-name="Trazado 629985" d="M5.736,11.392a5.7,5.7,0,1,1,5.736-5.7,5.723,5.723,0,0,1-5.736,5.7m0-9.765A4.069,4.069,0,1,0,9.833,5.7a4.087,4.087,0,0,0-4.1-4.068" transform="translate(372.365 150.589)" fill="#ffd947"/>
        </g>
      </g>
    </g>
  </g>
</svg>
