<svg xmlns="http://www.w3.org/2000/svg" width="38.662" height="38.662" viewBox="0 0 38.662 38.662">
  <g id="electrodomestico_2_" data-name="electrodomestico (2)" transform="translate(-5 -5)">
    <rect id="Rectángulo_350307" data-name="Rectángulo 350307" width="21.803" height="36.971" rx="2" transform="translate(35.335 42.714) rotate(180)" fill="#f2f1f1"/>
    <path id="Trazado_656399" data-name="Trazado 656399" d="M0,0H21.479V12.887a1.432,1.432,0,0,1-1.432,1.432H1.432A1.432,1.432,0,0,1,0,12.887Z" transform="translate(35.071 20.035) rotate(180)" fill="#edebea"/>
    <path id="Trazado_656400" data-name="Trazado 656400" d="M17,8.864h7.16L25.592,6h-7.16A1.432,1.432,0,0,0,17,7.432Z" transform="translate(-3.408 -0.284)" fill="#e1dedd"/>
    <path id="Trazado_656415" data-name="Trazado 656415" d="M1.432,0H20.047a1.432,1.432,0,0,1,1.432,1.432V24.343a1.432,1.432,0,0,1-1.432,1.432H1.432A1.432,1.432,0,0,1,0,24.343V1.432A1.432,1.432,0,0,1,1.432,0Z" transform="translate(5.716 17.171)" fill="#dbeaff"/>
    <path id="Trazado_656401" data-name="Trazado 656401" d="M7.432,22H26.047a1.432,1.432,0,0,1,1.432,1.432v4.3H6v-4.3A1.432,1.432,0,0,1,7.432,22Z" transform="translate(-0.284 -4.829)" fill="#c3ddff"/>
    <circle id="Elipse_7897" data-name="Elipse 7897" cx="4.74" cy="4.74" r="4.74" transform="translate(11.636 27.547)" fill="#edebea"/>
    <path id="Trazado_656402" data-name="Trazado 656402" d="M16.863,41.291v1.532a1.432,1.432,0,0,1-1.117,1.432l-1.131.251a5.012,5.012,0,0,1,0-4.826l1.131.251A1.432,1.432,0,0,1,16.863,41.291Z" transform="translate(-2.555 -9.85)" fill="#e1dedd"/>
    <path id="Trazado_656416" data-name="Trazado 656416" d="M1.432,0H17.183a1.432,1.432,0,0,1,1.432,1.432V12.887a1.432,1.432,0,0,1-1.432,1.432H1.432A1.432,1.432,0,0,1,0,12.887V1.432A1.432,1.432,0,0,1,1.432,0Z" transform="translate(24.331 28.627)" fill="#c8c5c9"/>
    <path id="Trazado_656403" data-name="Trazado 656403" d="M0,0H8.592V8.592H0Z" transform="translate(35.786 31.491) rotate(90)" fill="#c3ddff"/>
    <path id="Trazado_656404" data-name="Trazado 656404" d="M42.716,17.3a.716.716,0,0,0,.716-.716V13.716a.716.716,0,0,0-1.432,0V16.58A.716.716,0,0,0,42.716,17.3Z" transform="translate(-10.509 -2.272)"/>
    <path id="Trazado_656405" data-name="Trazado 656405" d="M42.716,29a.716.716,0,0,0-.716.716V32.58a.716.716,0,0,0,1.432,0V29.716A.716.716,0,0,0,42.716,29Z" transform="translate(-10.509 -6.817)"/>
    <path id="Trazado_656406" data-name="Trazado 656406" d="M18.728,46.455A5.728,5.728,0,1,0,13,40.728,5.728,5.728,0,0,0,18.728,46.455Zm0-10.024a4.3,4.3,0,1,1-3.179,7.16h.064a2.148,2.148,0,0,0,1.683-2.1V39.962a2.148,2.148,0,0,0-1.683-2.1h-.072a4.3,4.3,0,0,1,3.186-1.432Zm-4.3,4.3a4.36,4.36,0,0,1,.308-1.589l.566.129a.716.716,0,0,1,.558.716v1.532a.716.716,0,0,1-.558.716l-.566.129a4.36,4.36,0,0,1-.308-1.632Z" transform="translate(-2.272 -8.521)"/>
    <path id="Trazado_656407" data-name="Trazado 656407" d="M29.716,26.432h1.432a.716.716,0,0,0,0-1.432H29.716a.716.716,0,1,0,0,1.432Z" transform="translate(-6.817 -5.681)"/>
    <path id="Trazado_656408" data-name="Trazado 656408" d="M9.716,26.432h1.432a.716.716,0,1,0,0-1.432H9.716a.716.716,0,0,0,0,1.432Z" transform="translate(-1.136 -5.681)"/>
    <path id="Trazado_656409" data-name="Trazado 656409" d="M15.716,26.432h7.16a.716.716,0,1,0,0-1.432h-7.16a.716.716,0,0,0,0,1.432Z" transform="translate(-2.84 -5.681)"/>
    <path id="Trazado_656410" data-name="Trazado 656410" d="M41.514,27.911H35.786V7.148A2.148,2.148,0,0,0,33.639,5H15.024a2.148,2.148,0,0,0-2.148,2.148v9.308H7.148A2.148,2.148,0,0,0,5,18.6V41.514a2.148,2.148,0,0,0,2.148,2.148H41.514a2.148,2.148,0,0,0,2.148-2.148V30.059A2.148,2.148,0,0,0,41.514,27.911Zm-13.6,0v-7.16h6.444v7.16ZM14.308,7.148a.716.716,0,0,1,.716-.716h6l-.716,1.432h-6Zm0,2.148h6.444a.716.716,0,0,0,.637-.394l1.239-2.47H33.639a.716.716,0,0,1,.716.716V19.319H27.911V18.6a2.148,2.148,0,0,0-2.148-2.148H14.308Zm-7.16,8.592H25.763a.716.716,0,0,1,.716.716v3.58H6.432V18.6A.716.716,0,0,1,7.148,17.887ZM6.432,41.514v-17.9H26.479v4.3h-.716a2.148,2.148,0,0,0-2.148,2.148v9.308H8.58a.716.716,0,1,0,0,1.432H23.615v.716a2.148,2.148,0,0,0,.129.716H7.148A.716.716,0,0,1,6.432,41.514Zm35.8,0a.716.716,0,0,1-.716.716H25.763a.716.716,0,0,1-.716-.716V30.059a.716.716,0,0,1,.716-.716H41.514a.716.716,0,0,1,.716.716Z"/>
    <path id="Trazado_656411" data-name="Trazado 656411" d="M44.308,41H35.716a.716.716,0,0,0-.716.716v8.592a.716.716,0,0,0,.716.716h8.592a.716.716,0,0,0,.716-.716V41.716A.716.716,0,0,0,44.308,41Zm-.716,8.592h-7.16v-7.16h7.16Z" transform="translate(-8.521 -10.225)"/>
    <path id="Trazado_656412" data-name="Trazado 656412" d="M53.148,47H51.716a.716.716,0,1,0,0,1.432h1.432a.716.716,0,1,0,0-1.432Z" transform="translate(-13.066 -11.929)"/>
    <path id="Trazado_656413" data-name="Trazado 656413" d="M53.148,43H51.716a.716.716,0,1,0,0,1.432h1.432a.716.716,0,1,0,0-1.432Z" transform="translate(-13.066 -10.793)"/>
    <path id="Trazado_656414" data-name="Trazado 656414" d="M53.148,51H51.716a.716.716,0,1,0,0,1.432h1.432a.716.716,0,1,0,0-1.432Z" transform="translate(-13.066 -13.066)"/>
  </g>
</svg>
