<svg xmlns="http://www.w3.org/2000/svg" width="54.3" height="54.31" viewBox="0 0 54.3 54.31">
  <g id="condensador" transform="translate(-0.047 0)">
    <path id="Trazado_652978" data-name="Trazado 652978" d="M48.952,16.388a.905.905,0,0,1-.9-.9V1a.9.9,0,0,1,1.81,0v14.48A.9.9,0,0,1,48.952,16.388Zm0,0" transform="translate(-42.57 -0.086)" fill="#3e434f"/>
    <path id="Trazado_652979" data-name="Trazado 652979" d="M160.952,16.388a.905.905,0,0,1-.9-.9V1a.9.9,0,0,1,1.81,0v14.48A.9.9,0,0,1,160.952,16.388Zm0,0" transform="translate(-141.9 -0.086)" fill="#3e434f"/>
    <path id="Trazado_652980" data-name="Trazado 652980" d="M40.047,136.1h3.62v5.43h-3.62Zm0,0" transform="translate(-35.475 -120.702)" fill="#2f5591"/>
    <path id="Trazado_652981" data-name="Trazado 652981" d="M152.047,136.1h3.62v5.43h-3.62Zm0,0" transform="translate(-134.805 -120.702)" fill="#2f5591"/>
    <path id="Trazado_652982" data-name="Trazado 652982" d="M288.952,267.247a.9.9,0,1,1,0-1.81c1.108,0,2.715-3.173,2.715-8.145V241a.9.9,0,1,1,1.81,0v16.29C293.477,262.119,291.891,267.247,288.952,267.247Zm0,0" transform="translate(-255.421 -212.937)" fill="#3e434f"/>
    <path id="Trazado_652983" data-name="Trazado 652983" d="M404.572,267.247c-2.939,0-4.525-5.128-4.525-9.955V241a.9.9,0,1,1,1.81,0v16.29c0,4.972,1.608,8.145,2.715,8.145a.9.9,0,0,1,0,1.81Zm0,0" transform="translate(-354.751 -212.937)" fill="#3e434f"/>
    <path id="Trazado_652984" data-name="Trazado 652984" d="M27.957,202.487H11.667a3.62,3.62,0,0,1-3.62-3.62,10.2,10.2,0,0,0,1.81-1.81,3,3,0,0,0,0-1.81,8.7,8.7,0,0,0-1.81-1.81v-16.29a10.2,10.2,0,0,0,1.81-1.81,3,3,0,0,0,0-1.81,8.7,8.7,0,0,0-1.81-1.81,3.62,3.62,0,0,1,3.62-3.62h16.29a3.62,3.62,0,0,1,3.62,3.62,10.229,10.229,0,0,0-1.81,1.81,3.012,3.012,0,0,0,0,1.81,8.73,8.73,0,0,0,1.81,1.81v16.29a10.229,10.229,0,0,0-1.81,1.81,3.012,3.012,0,0,0,0,1.81,8.729,8.729,0,0,0,1.81,1.81A3.62,3.62,0,0,1,27.957,202.487Zm0,0" transform="translate(-7.095 -149.082)" fill="#6680ab"/>
    <path id="Trazado_652985" data-name="Trazado 652985" d="M287.566,19.771a11.765,11.765,0,1,0-18.1,9.9v5.482h3.62V31.208a11.408,11.408,0,0,0,5.43,0v3.948h3.62V29.674a11.745,11.745,0,0,0,5.43-9.9Zm0,0" transform="translate(-234.125 -7.09)" fill="#0569f5"/>
    <g id="Grupo_946595" data-name="Grupo 946595" transform="translate(18.147 3.631)">
      <path id="Trazado_652986" data-name="Trazado 652986" d="M160.952,286.578a.905.905,0,0,1-.9-.9V273a.9.9,0,1,1,1.81,0v12.67A.9.9,0,0,1,160.952,286.578Zm0,0" transform="translate(-160.047 -244.949)" fill="#d5e8ff"/>
      <path id="Trazado_652987" data-name="Trazado 652987" d="M160.952,419.718a.905.905,0,0,1-.9-.9V417a.9.9,0,1,1,1.81,0v1.81A.9.9,0,0,1,160.952,419.718Zm0,0" transform="translate(-160.047 -372.659)" fill="#d5e8ff"/>
      <path id="Trazado_652988" data-name="Trazado 652988" d="M369.1,42.053a.905.905,0,0,1-.9-.9,7.248,7.248,0,0,0-7.24-7.24.9.9,0,1,1,0-1.81,9.059,9.059,0,0,1,9.05,9.05A.9.9,0,0,1,369.1,42.053Zm0,0" transform="translate(-337.423 -32.098)" fill="#d5e8ff"/>
    </g>
    <path id="Trazado_652989" data-name="Trazado 652989" d="M20.861,196.3H4.572a4.531,4.531,0,0,1-4.525-4.525.906.906,0,0,1,.336-.7,9.575,9.575,0,0,0,1.565-1.505,2.421,2.421,0,0,0-.025-1.064,8.663,8.663,0,0,0-1.529-1.442.906.906,0,0,1-.346-.714v-16.29a.906.906,0,0,1,.336-.7,9.574,9.574,0,0,0,1.565-1.506,2.421,2.421,0,0,0-.025-1.064,8.663,8.663,0,0,0-1.529-1.442.906.906,0,0,1-.346-.714A4.531,4.531,0,0,1,4.572,160.1h16.29a4.53,4.53,0,0,1,4.525,4.525.9.9,0,0,1-.335.7,9.575,9.575,0,0,0-1.565,1.506,2.418,2.418,0,0,0,.025,1.063,8.665,8.665,0,0,0,1.529,1.443.9.9,0,0,1,.346.714v16.29a.9.9,0,0,1-.335.7,9.575,9.575,0,0,0-1.565,1.506,2.418,2.418,0,0,0,.025,1.063,8.665,8.665,0,0,0,1.529,1.443.9.9,0,0,1,.346.714A4.53,4.53,0,0,1,20.861,196.3ZM1.886,192.173a2.72,2.72,0,0,0,2.686,2.314h16.29a2.716,2.716,0,0,0,2.684-2.306,6.6,6.6,0,0,1-1.711-1.874,3.8,3.8,0,0,1,.023-2.553,7.8,7.8,0,0,1,1.718-1.839V170.487a6.7,6.7,0,0,1-1.741-1.9,3.8,3.8,0,0,1,.023-2.553,7.692,7.692,0,0,1,1.689-1.81,2.72,2.72,0,0,0-2.686-2.316H4.572a2.715,2.715,0,0,0-2.684,2.306A6.592,6.592,0,0,1,3.6,166.087a3.8,3.8,0,0,1-.022,2.553,7.792,7.792,0,0,1-1.72,1.839v15.429a6.7,6.7,0,0,1,1.741,1.9,3.8,3.8,0,0,1-.022,2.551,7.707,7.707,0,0,1-1.691,1.814Zm0,0" transform="translate(0 -141.987)"/>
    <path id="Trazado_652990" data-name="Trazado 652990" d="M36.572,133.528h-3.62a.905.905,0,0,1-.9-.9V129a.905.905,0,0,1,.9-.9h3.62a.9.9,0,0,1,.9.9v3.62A.9.9,0,0,1,36.572,133.528Zm-2.715-1.81h1.81v-1.81h-1.81Zm0,0" transform="translate(-28.38 -113.607)"/>
    <path id="Trazado_652991" data-name="Trazado 652991" d="M148.572,133.528h-3.62a.905.905,0,0,1-.9-.9V129a.905.905,0,0,1,.9-.9h3.62a.9.9,0,0,1,.9.9v3.62A.9.9,0,0,1,148.572,133.528Zm-2.715-1.81h1.81v-1.81h-1.81Zm0,0" transform="translate(-127.71 -113.607)"/>
    <path id="Trazado_652992" data-name="Trazado 652992" d="M48.952,16.388a.905.905,0,0,1-.9-.9V1a.9.9,0,0,1,1.81,0v14.48A.9.9,0,0,1,48.952,16.388Zm0,0" transform="translate(-42.57 -0.086)"/>
    <path id="Trazado_652993" data-name="Trazado 652993" d="M160.952,16.388a.905.905,0,0,1-.9-.9V1a.9.9,0,0,1,1.81,0v14.48A.9.9,0,0,1,160.952,16.388Zm0,0" transform="translate(-141.9 -0.086)"/>
    <path id="Trazado_652994" data-name="Trazado 652994" d="M275.046,28.971h-3.62a.905.905,0,0,1-.9-.9V25.214a12.093,12.093,0,0,1-3.62,0v2.851a.9.9,0,0,1-.9.9h-3.62a.9.9,0,0,1-.9-.9v-5a12.67,12.67,0,1,1,14.48,0v5a.9.9,0,0,1-.9.9Zm-2.715-1.81h1.81V22.584a.9.9,0,0,1,.417-.762,10.86,10.86,0,1,0-11.693,0,.9.9,0,0,1,.416.762v4.577h1.81V24.118a.905.905,0,0,1,1.113-.88,10.581,10.581,0,0,0,5.014,0,.9.9,0,0,1,1.113.88Zm0,0" transform="translate(-227.035)"/>
    <path id="Trazado_652995" data-name="Trazado 652995" d="M288.952,267.247a.9.9,0,1,1,0-1.81c1.108,0,2.715-3.173,2.715-8.145V241a.9.9,0,1,1,1.81,0v16.29C293.477,262.119,291.891,267.247,288.952,267.247Zm0,0" transform="translate(-255.421 -212.937)"/>
    <path id="Trazado_652996" data-name="Trazado 652996" d="M404.572,267.247c-2.939,0-4.525-5.128-4.525-9.955V241a.9.9,0,1,1,1.81,0v16.29c0,4.972,1.608,8.145,2.715,8.145a.9.9,0,0,1,0,1.81Zm0,0" transform="translate(-354.751 -212.937)"/>
  </g>
</svg>
