<svg xmlns="http://www.w3.org/2000/svg" xmlns:xlink="http://www.w3.org/1999/xlink" width="87.279" height="87.279" viewBox="0 0 87.279 87.279">
  <defs>
    <filter id="Elipse_7746" x="0" y="0" width="87.279" height="87.279" filterUnits="userSpaceOnUse">
      <feOffset dy="3" input="SourceAlpha"/>
      <feGaussianBlur stdDeviation="3" result="blur"/>
      <feFlood flood-opacity="0.161"/>
      <feComposite operator="in" in2="blur"/>
      <feComposite in="SourceGraphic"/>
    </filter>
  </defs>
  <g id="Grupo_949293" data-name="Grupo 949293" transform="translate(-362 -3721.129)">
    <g transform="matrix(1, 0, 0, 1, 362, 3721.13)" filter="url(#Elipse_7746)">
      <ellipse id="Elipse_7746-2" data-name="Elipse 7746" cx="34.639" cy="34.639" rx="34.639" ry="34.639" transform="translate(9 6)" fill="#ffd947"/>
    </g>
    <g id="Layer_x0020_1" transform="translate(380.97 3525.089)">
      <path id="Trazado_653211" data-name="Trazado 653211" d="M16.51,241.273H14.679v1.25h4.244v-1.25ZM48.95,253.248H43.776a.652.652,0,0,1-.639-.669v-2.413a.652.652,0,0,1,.639-.669H48.95a.652.652,0,0,1,.639.669v2.413A.652.652,0,0,1,48.95,253.248Zm-4.505-1.308h3.837v-1.1H44.444Zm-2.529,1.6H39.5a.652.652,0,0,1-.669-.639v-5.174a.652.652,0,0,1,.669-.639h2.413a.652.652,0,0,1,.669.639V252.9A.652.652,0,0,1,41.915,253.539Zm-1.744-1.308h1.1v-3.837h-1.1Zm-6.686-2.122H4.8a.654.654,0,1,1,0-1.308h28.69A.654.654,0,0,1,33.486,250.109ZM37,254.179H1.279a.676.676,0,0,1-.669-.669V245.4a.658.658,0,0,1,.669-.669h3.75a3.751,3.751,0,1,1,5.7,0H22.12a3.792,3.792,0,0,1-.756-3.459H20.231v1.918a.645.645,0,0,1-.639.639H14.011a.645.645,0,0,1-.639-.639v-1.918c-.523,0-1.25.029-1.25-.669v-2.965H4.738l-1.192,2.732a.632.632,0,0,1-.581.407H.872A.894.894,0,0,1,0,239.906v-6.831a.586.586,0,0,1,.087-.32l2.907-4.912a.67.67,0,0,1,.581-.32H16.51a.658.658,0,0,1,.669.669v8.139H27.294l-2.5-2.5a.672.672,0,0,1,.291-1.1l2.151-.581-6.6-3.808a.657.657,0,0,1-.233-.9l5.726-9.941a.684.684,0,0,1,.9-.233l15.958,9.214a.639.639,0,0,1,.349.581v7.906a.669.669,0,0,1-1.337,0v-5.436l-3.924,6.8c.494,0,1.221-.058,1.221.639V240.6c0,.9-1.221.669-2.035.669a3.792,3.792,0,0,1-.756,3.459c.494,0,1.134-.029,1.134.669v8.11A.671.671,0,0,1,37,254.179ZM24.94,244.732c3.372,0,3.168-4.883.058-4.883a2.442,2.442,0,0,0-.058,4.883Zm2.907,0h2.965a3.888,3.888,0,0,1-.785-3.459H28.6A3.792,3.792,0,0,1,27.847,244.732Zm5.755,0a2.438,2.438,0,0,0,2.064-3.837,2.443,2.443,0,0,0-4.447,1.4A2.445,2.445,0,0,0,33.6,244.732Zm-31.655,8.11H36.334v-6.773H1.948Zm31.713-8.633a1.919,1.919,0,0,1,0-3.837A1.919,1.919,0,0,1,33.66,244.208Zm0-2.5a.583.583,0,0,0-.581.581.582.582,0,1,0,1.163,0A.583.583,0,0,0,33.66,241.709ZM25,244.208a1.919,1.919,0,0,1,0-3.837A1.919,1.919,0,0,1,25,244.208Zm0-2.5a.59.59,0,0,0-.61.581.6.6,0,1,0,1.192,0A.583.583,0,0,0,25,241.709Zm-17.121,2.5a1.919,1.919,0,0,1,0-3.837A1.919,1.919,0,0,1,7.877,244.208Zm0-2.5a.609.609,0,0,0-.61.581.634.634,0,0,0,.61.61.609.609,0,0,0,.581-.61A.583.583,0,0,0,7.877,241.709Zm40.665,6.8H46.13a.658.658,0,0,1-.669-.669V242.7a.652.652,0,0,1,.669-.639h2.413a.652.652,0,0,1,.669.639v5.145A.658.658,0,0,1,48.543,248.51ZM46.8,247.2h1.1v-3.837H46.8Zm-2.7-1.4H38.95a.658.658,0,0,1-.669-.669v-2.413a.658.658,0,0,1,.669-.669H44.1a.676.676,0,0,1,.669.669v2.413A.676.676,0,0,1,44.1,245.807ZM39.59,244.5h3.837v-1.1H39.59Zm7.122-3.459H41.567a.652.652,0,0,1-.669-.639v-2.442a.652.652,0,0,1,.669-.639h5.145a.652.652,0,0,1,.669.639V240.4A.652.652,0,0,1,46.711,241.04Zm-4.476-1.308h3.808v-1.1H42.235ZM29.271,231.8a.028.028,0,0,1,.029.029l7.383,4.244,5.087-8.778-14.824-8.546-5.087,8.778Zm-.407,1.279-2.325.639,2.616,2.616h5.319Zm8.691-5.029a.586.586,0,0,1-.32-.087l-8.575-4.971a.651.651,0,0,1,.639-1.134l8.575,4.941A.671.671,0,0,1,37.555,228.047Zm-.349,3.139a.758.758,0,0,1-.32-.087L26.1,224.879a.664.664,0,0,1,.639-1.163l10.813,6.25A.662.662,0,0,1,37.206,231.186Zm-2.558,1.86a.758.758,0,0,1-.32-.087l-8.575-4.941a.671.671,0,0,1,.669-1.163L35,231.826A.658.658,0,0,1,34.648,233.047Zm-23.254,2.209H5.784a.658.658,0,0,1-.669-.669v-4.011a.658.658,0,0,1,.669-.669h5.61a.658.658,0,0,1,.669.669v4.011A.658.658,0,0,1,11.394,235.256Zm-4.941-1.308h4.3v-2.732h-4.3Zm24.271,6.017a3.75,3.75,0,0,1,5.872,0h1.4v-2.325H17.179v2.325h4.854a3.78,3.78,0,0,1,5.9,0Zm-22.847-.116a2.442,2.442,0,1,0,2.442,2.442A2.456,2.456,0,0,0,7.877,239.848Zm6.1.116h1.86V228.832H3.953L1.337,233.25v6.191H2.529l1.192-2.732a.62.62,0,0,1,.61-.378H12.79a.652.652,0,0,1,.669.639v2.994Z" fill="#000002" fill-rule="evenodd"/>
      <g id="Grupo_946712" data-name="Grupo 946712" transform="translate(39.59 238.627)">
        <path id="Trazado_653212" data-name="Trazado 653212" d="M1529,1375v1.1h3.837V1375Z" transform="translate(-1524.146 -1362.792)" fill="#87cc46" fill-rule="evenodd"/>
        <path id="Trazado_653213" data-name="Trazado 653213" d="M1383.1,1294.837V1291H1382v3.837Z" transform="translate(-1381.419 -1281.233)" fill="#87cc46" fill-rule="evenodd"/>
        <path id="Trazado_653214" data-name="Trazado 653214" d="M1610,1118v3.837h1.1V1118Z" transform="translate(-1602.791 -1113.262)" fill="#87cc46" fill-rule="evenodd"/>
        <path id="Trazado_653215" data-name="Trazado 653215" d="M1365.837,1120.1V1119H1362v1.1Z" transform="translate(-1362 -1114.233)" fill="#87cc46" fill-rule="evenodd"/>
        <path id="Trazado_653216" data-name="Trazado 653216" d="M1453,956.1h3.808V955H1453Z" transform="translate(-1450.355 -955)" fill="#87cc46" fill-rule="evenodd"/>
      </g>
      <path id="Trazado_653217" data-name="Trazado 653217" d="M604.545,923.325a3.75,3.75,0,0,1,5.872,0h1.4V921H591v2.325h4.854a3.78,3.78,0,0,1,5.9,0Z" transform="translate(-573.821 -683.361)" fill="#b3b3b3" fill-rule="evenodd"/>
      <path id="Trazado_653218" data-name="Trazado 653218" d="M840.192,1061.581a.583.583,0,0,0-.581-.581.59.59,0,0,0-.61.581.6.6,0,1,0,1.192,0Z" transform="translate(-814.612 -819.291)" fill="#fefefe" fill-rule="evenodd"/>
      <path id="Trazado_653219" data-name="Trazado 653219" d="M778.442,997.523a1.919,1.919,0,0,1,0,3.837A1.919,1.919,0,0,1,778.442,997.523Zm0-.523a2.442,2.442,0,0,0-.058,4.883C781.755,1001.883,781.552,997,778.442,997Z" transform="translate(-753.444 -757.152)" fill="#4d4d4d" fill-rule="evenodd"/>
      <path id="Trazado_653220" data-name="Trazado 653220" d="M1138.581,1061a.583.583,0,0,0-.581.581.582.582,0,1,0,1.163,0A.583.583,0,0,0,1138.581,1061Z" transform="translate(-1104.921 -819.291)" fill="#fefefe" fill-rule="evenodd"/>
      <path id="Trazado_653221" data-name="Trazado 653221" d="M1076.442,997.523a1.919,1.919,0,0,1,0,3.837A1.919,1.919,0,0,1,1076.442,997.523ZM1074,999.442a2.443,2.443,0,1,0,4.447-1.4,2.443,2.443,0,0,0-4.447,1.4Z" transform="translate(-1042.781 -757.152)" fill="#4d4d4d" fill-rule="evenodd"/>
      <path id="Trazado_653222" data-name="Trazado 653222" d="M250.61,1062.192a.609.609,0,0,0,.581-.61.583.583,0,0,0-.581-.581.609.609,0,0,0-.61.581A.634.634,0,0,0,250.61,1062.192Z" transform="translate(-242.733 -819.291)" fill="#fefefe" fill-rule="evenodd"/>
      <path id="Trazado_653223" data-name="Trazado 653223" d="M189.442,997.523a1.919,1.919,0,0,1,0,3.837A1.919,1.919,0,0,1,189.442,997.523Zm2.442,1.918a2.442,2.442,0,1,0-2.442,2.442A2.456,2.456,0,0,0,191.883,999.442Z" transform="translate(-181.564 -757.152)" fill="#4d4d4d" fill-rule="evenodd"/>
      <path id="Trazado_653224" data-name="Trazado 653224" d="M101.387,1211H67v6.773h34.387Zm-31.538,2.732h28.69a.654.654,0,0,1,0,1.308H69.849A.654.654,0,0,1,69.849,1213.732Z" transform="translate(-65.052 -964.931)" fill="#7f522d" fill-rule="evenodd"/>
      <path id="Trazado_653225" data-name="Trazado 653225" d="M505,1047.25h4.244V1046H505Z" transform="translate(-490.321 -804.727)" fill="#fefefe" fill-rule="evenodd"/>
      <path id="Trazado_653226" data-name="Trazado 653226" d="M58.644,629.133H60.5V618H48.616L46,622.418v6.191h1.192l1.192-2.732a.619.619,0,0,1,.61-.378h8.459a.652.652,0,0,1,.669.64v2.994Zm-2.587-4.709h-5.61a.658.658,0,0,1-.669-.669v-4.011a.658.658,0,0,1,.669-.669h5.61a.658.658,0,0,1,.669.669v4.011A.658.658,0,0,1,56.057,624.424Z" transform="translate(-44.663 -389.168)" fill="#b3b3b3" fill-rule="evenodd"/>
      <path id="Trazado_653227" data-name="Trazado 653227" d="M222,702.732h4.3V700H222Z" transform="translate(-215.547 -468.785)" fill="#d9f2f2" fill-rule="evenodd"/>
      <path id="Trazado_653228" data-name="Trazado 653228" d="M756.564,279.11l8.575,4.971a.658.658,0,0,1-.349,1.221.758.758,0,0,1-.32-.087l-8.575-4.941A.671.671,0,0,1,756.564,279.11Zm-4.564.669,7.412,4.273.029.029,7.383,4.244,5.087-8.778L757.087,271Zm15.028,3.575-10.784-6.22a.664.664,0,0,1,.64-1.163l10.813,6.25a.662.662,0,0,1-.349,1.221A.758.758,0,0,1,767.028,283.354Zm.349-3.139-8.575-4.971a.651.651,0,0,1,.639-1.134l8.575,4.941a.671.671,0,0,1-.32,1.25A.586.586,0,0,1,767.377,280.214Z" transform="translate(-730.141 -52.255)" fill="#999" fill-rule="evenodd"/>
    </g>
  </g>
</svg>
