<svg xmlns="http://www.w3.org/2000/svg" width="68.064" height="63.533" viewBox="0 0 68.064 63.533">
  <g id="Grupo_949294" data-name="Grupo 949294" transform="translate(-28.219 -39.413)">
    <g id="cubo-de-la-basura" transform="translate(20.399 23.593)">
      <path id="Trazado_653230" data-name="Trazado 653230" d="M83.231,125.4H42.756a2.832,2.832,0,0,1-2.822-2.6l-2.62-32.219h51.36L86.053,122.8a2.832,2.832,0,0,1-2.822,2.6Z" transform="translate(-21.141 -53.588)" fill="#cecece"/>
      <g id="Grupo_946716" data-name="Grupo 946716" transform="translate(16.172 36.989)">
        <path id="Trazado_653231" data-name="Trazado 653231" d="M44.086,122.8l-2.62-32.219H37.313l2.62,32.219a2.832,2.832,0,0,0,2.822,2.6h4.153A2.832,2.832,0,0,1,44.086,122.8Z" transform="translate(-37.313 -90.577)" fill="#afafaf"/>
      </g>
      <g id="Grupo_946717" data-name="Grupo 946717" transform="translate(57.936 36.989)">
        <path id="Trazado_653232" data-name="Trazado 653232" d="M187.623,122.8l2.62-32.219H194.4l-2.62,32.219a2.832,2.832,0,0,1-2.822,2.6H184.8A2.832,2.832,0,0,0,187.623,122.8Z" transform="translate(-184.801 -90.577)" fill="#e2e2e2"/>
      </g>
      <path id="Trazado_653233" data-name="Trazado 653233" d="M82.7,79.706H28.623a1.539,1.539,0,1,0,0,3.079H82.7a1.539,1.539,0,1,0,0-3.079Z" transform="translate(-13.809 -45.795)" fill="#63bce7"/>
      <path id="Trazado_653234" data-name="Trazado 653234" d="M82.7,53.173H28.623a1.539,1.539,0,1,0,0,3.079H82.7a1.539,1.539,0,1,0,0-3.079Z" transform="translate(-13.809 -26.776)" fill="#63bce7"/>
      <g id="Grupo_946718" data-name="Grupo 946718" transform="translate(13.275 26.397)">
        <path id="Trazado_653235" data-name="Trazado 653235" d="M31.237,54.712a1.544,1.544,0,0,1,1.539-1.539H28.623a1.539,1.539,0,1,0,0,3.079h4.153A1.544,1.544,0,0,1,31.237,54.712Z" transform="translate(-27.084 -53.173)" fill="#6377e7"/>
      </g>
      <g id="Grupo_946719" data-name="Grupo 946719" transform="translate(64.736 26.397)">
        <path id="Trazado_653236" data-name="Trazado 653236" d="M210.352,54.712a1.544,1.544,0,0,0-1.539-1.539h4.153a1.539,1.539,0,0,1,0,3.079h-4.153A1.544,1.544,0,0,0,210.352,54.712Z" transform="translate(-208.813 -53.173)" fill="#63e2e7"/>
      </g>
      <g id="Grupo_946720" data-name="Grupo 946720" transform="translate(13.275 33.911)">
        <path id="Trazado_653237" data-name="Trazado 653237" d="M31.237,81.245a1.544,1.544,0,0,1,1.539-1.539H28.623a1.539,1.539,0,1,0,0,3.079h4.153A1.544,1.544,0,0,1,31.237,81.245Z" transform="translate(-27.084 -79.706)" fill="#6377e7"/>
      </g>
      <g id="Grupo_946721" data-name="Grupo 946721" transform="translate(64.736 33.911)">
        <path id="Trazado_653238" data-name="Trazado 653238" d="M210.352,81.245a1.544,1.544,0,0,0-1.539-1.539h4.153a1.539,1.539,0,0,1,0,3.079h-4.153A1.544,1.544,0,0,0,210.352,81.245Z" transform="translate(-208.813 -79.706)" fill="#63e2e7"/>
      </g>
      <path id="Trazado_653239" data-name="Trazado 653239" d="M37.313,64.044h51.36v4.435H37.313Z" transform="translate(-21.141 -34.568)" fill="#707070"/>
      <g id="Grupo_946722" data-name="Grupo 946722" transform="translate(16.172 29.476)">
        <path id="Trazado_653240" data-name="Trazado 653240" d="M37.313,64.044h4.153v4.435H37.313Z" transform="translate(-37.313 -64.044)" fill="#5b5b5b"/>
      </g>
      <g id="Grupo_946723" data-name="Grupo 946723" transform="translate(63.379 29.476)">
        <path id="Trazado_653241" data-name="Trazado 653241" d="M204.021,64.044h4.153v4.435h-4.153Z" transform="translate(-204.021 -64.044)" fill="#9e9e9e"/>
      </g>
      <path id="Trazado_653242" data-name="Trazado 653242" d="M72.538,17.321H49.607a15.854,15.854,0,0,0-13.845,8.13l-1.128,2.022H87.511l-1.128-2.022a15.853,15.853,0,0,0-13.845-8.13Z" transform="translate(-19.221 -1.076)" fill="#63bce7"/>
      <g id="Grupo_946724" data-name="Grupo 946724" transform="translate(15.413 16.245)">
        <path id="Trazado_653243" data-name="Trazado 653243" d="M53.761,17.321H49.607a15.854,15.854,0,0,0-13.845,8.13l-1.128,2.022h4.153l1.128-2.022a15.854,15.854,0,0,1,13.845-8.13Z" transform="translate(-34.634 -17.321)" fill="#6377e7"/>
      </g>
      <g id="Grupo_946725" data-name="Grupo 946725" transform="translate(49.164 16.245)">
        <path id="Trazado_653244" data-name="Trazado 653244" d="M153.822,17.321h4.153a15.854,15.854,0,0,1,13.845,8.13l1.128,2.022H168.8l-1.128-2.022a15.854,15.854,0,0,0-13.845-8.13Z" transform="translate(-153.822 -17.321)" fill="#63e2e7"/>
      </g>
      <g id="Grupo_946727" data-name="Grupo 946727" transform="translate(29.817 42.365)">
        <circle id="Elipse_7747" data-name="Elipse 7747" cx="12.035" cy="12.035" r="12.035" transform="translate(0 0)" fill="#f8af23"/>
        <g id="Grupo_946726" data-name="Grupo 946726" transform="translate(4.223 5.035)">
          <path id="Trazado_653245" data-name="Trazado 653245" d="M120.779,130.363a.251.251,0,0,0-.3-.067l-.436.168-1.343-2.971a.253.253,0,0,0-.235-.151H114.1a.239.239,0,0,0-.2.1L111.43,130.4a.221.221,0,0,0-.05.2.4.4,0,0,0,.1.185l2.468,1.83a.265.265,0,0,0,.369-.05l1.612-2.182.772,1.376-.487.252a.237.237,0,0,0-.134.252.249.249,0,0,0,.2.218l2.753.671h.067a.288.288,0,0,0,.218-.118l1.477-2.367a.251.251,0,0,0-.017-.3Z" transform="translate(-108.269 -127.341)" fill="#3f3679"/>
          <path id="Trazado_653246" data-name="Trazado 653246" d="M107.115,150.827l-2.719-.118.705-1.41.47.268a.253.253,0,0,0,.3-.034.233.233,0,0,0,.067-.285l-.991-2.652a.258.258,0,0,0-.252-.168l-2.8.1a.252.252,0,0,0-.235.185.273.273,0,0,0,.1.285l.386.269-1.7,2.787a.288.288,0,0,0,0,.285l1.88,2.77.722,1.091a.287.287,0,0,0,.218.118H107.1a.265.265,0,0,0,.268-.268V151.1A.287.287,0,0,0,107.115,150.827Z" transform="translate(-100.413 -141.023)" fill="#3f3679"/>
          <path id="Trazado_653247" data-name="Trazado 653247" d="M136.839,149.76,135.16,146.3a.238.238,0,0,0-.151-.134.222.222,0,0,0-.2.034l-2.686,1.494a.27.27,0,0,0-.1.353l1.309,2.367-1.578.134-.017-.537a.252.252,0,0,0-.185-.235.264.264,0,0,0-.285.084l-1.746,2.233a.282.282,0,0,0-.017.3l1.561,2.317a.282.282,0,0,0,.218.118.26.26,0,0,0,.252-.252l.017-.47h3.257a.263.263,0,0,0,.235-.151l1.8-3.978A.25.25,0,0,0,136.839,149.76Z" transform="translate(-121.24 -140.829)" fill="#3f3679"/>
        </g>
      </g>
      <g id="Grupo_946728" data-name="Grupo 946728" transform="translate(24.153 71.811)">
        <path id="Trazado_653248" data-name="Trazado 653248" d="M68.226,217.556A2.725,2.725,0,0,1,65.5,214.83v-1.284h5.451v1.284A2.725,2.725,0,0,1,68.226,217.556Z" transform="translate(-65.5 -213.546)" fill="#707070"/>
        <path id="Trazado_653249" data-name="Trazado 653249" d="M173.976,217.556a2.725,2.725,0,0,1-2.726-2.726v-1.284H176.7v1.284A2.725,2.725,0,0,1,173.976,217.556Z" transform="translate(-141.304 -213.546)" fill="#707070"/>
      </g>
      <path id="Trazado_653250" data-name="Trazado 653250" d="M110.222,54.1H96.8a2.962,2.962,0,0,1-2.962-2.962v-1.1A2.962,2.962,0,0,1,96.8,47.082h13.425a2.962,2.962,0,0,1,2.962,2.962v1.1A2.962,2.962,0,0,1,110.222,54.1Z" transform="translate(-61.657 -22.409)" fill="#63bce7"/>
      <g id="Grupo_946729" data-name="Grupo 946729" transform="translate(7.82 15.82)">
        <path id="Trazado_653251" data-name="Trazado 653251" d="M13.343,237.179h-5.1a.425.425,0,1,0,0,.85h5.1a.425.425,0,1,0,0-.85Z" transform="translate(-7.82 -174.496)" fill="#3f3679"/>
        <path id="Trazado_653252" data-name="Trazado 653252" d="M232.7,237.179h-5.1a.425.425,0,1,0,0,.85h5.1a.425.425,0,1,0,0-.85Z" transform="translate(-165.061 -174.496)" fill="#3f3679"/>
        <path id="Trazado_653253" data-name="Trazado 653253" d="M87.688,237.179H36.446a.425.425,0,1,0,0,.85H87.689a.425.425,0,1,0,0-.85Z" transform="translate(-28.035 -174.496)" fill="#3f3679"/>
        <path id="Trazado_653254" data-name="Trazado 653254" d="M8.245,76.245H75.459a.425.425,0,1,0,0-.85H58.97a3.139,3.139,0,0,0,1.005-2.3v-.86h2.114a3.274,3.274,0,0,0,3.246-2.993l2.588-31.829h.965a1.964,1.964,0,0,0,0-3.928h-.932V29.9h.932a1.964,1.964,0,0,0,0-3.928H68.54l-1.006-1.8A16.291,16.291,0,0,0,53.317,15.82H30.386A16.291,16.291,0,0,0,16.17,24.168l-1.006,1.8h-.349a1.964,1.964,0,1,0,0,3.928h.932v3.586h-.932a1.964,1.964,0,1,0,0,3.928h.965l2.588,31.829a3.274,3.274,0,0,0,3.246,2.993h2.115v.86a3.139,3.139,0,0,0,1.005,2.3H8.245a.425.425,0,1,0,0,.849Zm20.779-.85a3.139,3.139,0,0,0,1.005-2.3v-.86H53.674v.86a3.139,3.139,0,0,0,1.005,2.3Zm30.1-2.3a2.3,2.3,0,1,1-4.6,0v-.86h4.6ZM70,27.937a1.116,1.116,0,0,1-1.115,1.115H51.935c.01-.105.016-.212.016-.32v-1.1a3.371,3.371,0,0,0-.1-.812h17.04A1.116,1.116,0,0,1,70,27.937Zm-37.4.671H44.4a.425.425,0,0,0,0-.85H32.6v-.123A2.54,2.54,0,0,1,35.139,25.1H48.564A2.54,2.54,0,0,1,51.1,27.635v1.1a2.54,2.54,0,0,1-2.538,2.538H35.139A2.54,2.54,0,0,1,32.6,28.731ZM16.912,24.582A15.441,15.441,0,0,1,30.386,16.67H53.317a15.441,15.441,0,0,1,13.474,7.912l.776,1.391H51.513a3.388,3.388,0,0,0-2.948-1.725H35.139a3.388,3.388,0,0,0-2.948,1.725H16.137ZM13.7,27.937a1.116,1.116,0,0,1,1.115-1.115h17.04a3.373,3.373,0,0,0-.1.812v1.1c0,.108.006.215.016.32H14.815A1.116,1.116,0,0,1,13.7,27.937ZM16.6,29.9H31.965a3.39,3.39,0,0,0,3.175,2.218H48.564A3.39,3.39,0,0,0,51.739,29.9H67.107v3.586H16.6Zm-2.9,5.55a1.116,1.116,0,0,1,1.115-1.115H68.889a1.115,1.115,0,0,1,0,2.229H14.815A1.116,1.116,0,0,1,13.7,35.45Zm5.515,33.724-2.583-31.76H67.071l-2.583,31.76a2.42,2.42,0,0,1-2.4,2.212H21.614A2.42,2.42,0,0,1,19.215,69.174Zm5.363,3.921v-.86h4.6v.86a2.3,2.3,0,1,1-4.6,0Z" transform="translate(-7.82 -15.82)" fill="#3f3679"/>
        <path id="Trazado_653255" data-name="Trazado 653255" d="M96.46,132.981A12.46,12.46,0,1,0,84,120.522,12.474,12.474,0,0,0,96.46,132.981Zm0-24.07a11.61,11.61,0,1,1-11.61,11.61A11.623,11.623,0,0,1,96.46,108.912Z" transform="translate(-62.428 -81.941)" fill="#3f3679"/>
        <path id="Trazado_653256" data-name="Trazado 653256" d="M146.435,58.829h1.685a.425.425,0,0,0,0-.85h-1.685a.425.425,0,1,0,0,.85Z" transform="translate(-106.878 -46.041)" fill="#3f3679"/>
      </g>
    </g>
    <g id="bateria_1_" data-name="bateria (1)" transform="translate(63.207 60.824)">
      <g id="Grupo_946734" data-name="Grupo 946734" transform="translate(17.51 14.201)">
        <path id="Trazado_653262" data-name="Trazado 653262" d="M42.79,22.4h8.858V36.618H42.79Z" transform="translate(-42.79 -20.426)" fill="#63bce7"/>
        <g id="Grupo_946732" data-name="Grupo 946732" transform="translate(0 1.97)">
          <path id="Trazado_653263" data-name="Trazado 653263" d="M42.79,22.4h4.064V36.618H42.79Z" transform="translate(-42.79 -22.396)" fill="#6377e7"/>
        </g>
        <path id="Trazado_653264" data-name="Trazado 653264" d="M55.491,15.286H54.106a.831.831,0,0,0-.831.831v1.139h3.047V16.117A.831.831,0,0,0,55.491,15.286Z" transform="translate(-50.37 -15.286)" fill="#6377e7"/>
      </g>
      <g id="Grupo_946740" data-name="Grupo 946740" transform="translate(7.82 13.785)">
        <path id="Trazado_653279" data-name="Trazado 653279" d="M41.706,30.809h8.858a.415.415,0,0,0,.416-.416V16.171a.415.415,0,0,0-.416-.416h-2.49v-.723a1.248,1.248,0,0,0-1.247-1.247H45.442A1.248,1.248,0,0,0,44.2,15.032v.723H41.706a.415.415,0,0,0-.416.416V30.393A.416.416,0,0,0,41.706,30.809Zm3.321-15.776a.416.416,0,0,1,.416-.416h1.385a.416.416,0,0,1,.416.416v.723H45.027Zm-2.905,1.554h8.027v13.39H42.121Z" transform="translate(-32.016 -13.785)" fill="#3f3679"/>
        <path id="Trazado_653280" data-name="Trazado 653280" d="M55.339,39.829H53.809l.968-1.982a.416.416,0,1,0-.747-.365l-1.26,2.58a.416.416,0,0,0,.374.6h1.529l-.968,1.982a.416.416,0,1,0,.747.365l1.26-2.58a.416.416,0,0,0-.373-.6Z" transform="translate(-40.284 -30.748)" fill="#3f3679"/>
      </g>
    </g>
    <g id="bateria_1_2" data-name="bateria (1)" transform="translate(16.207 52.313)">
      <g id="Grupo_946734-2" data-name="Grupo 946734" transform="translate(17.51 14.201)">
        <path id="Trazado_653262-2" data-name="Trazado 653262" d="M42.79,22.4h8.858V36.618H42.79Z" transform="translate(-42.79 -20.426)" fill="#63bce7"/>
        <g id="Grupo_946732-2" data-name="Grupo 946732" transform="translate(0 1.97)">
          <path id="Trazado_653263-2" data-name="Trazado 653263" d="M42.79,22.4h4.064V36.618H42.79Z" transform="translate(-42.79 -22.396)" fill="#6377e7"/>
        </g>
        <path id="Trazado_653264-2" data-name="Trazado 653264" d="M55.491,15.286H54.106a.831.831,0,0,0-.831.831v1.139h3.047V16.117A.831.831,0,0,0,55.491,15.286Z" transform="translate(-50.37 -15.286)" fill="#6377e7"/>
      </g>
      <g id="Grupo_946740-2" data-name="Grupo 946740" transform="translate(7.82 13.785)">
        <path id="Trazado_653279-2" data-name="Trazado 653279" d="M41.706,30.809h8.858a.415.415,0,0,0,.416-.416V16.171a.415.415,0,0,0-.416-.416h-2.49v-.723a1.248,1.248,0,0,0-1.247-1.247H45.442A1.248,1.248,0,0,0,44.2,15.032v.723H41.706a.415.415,0,0,0-.416.416V30.393A.416.416,0,0,0,41.706,30.809Zm3.321-15.776a.416.416,0,0,1,.416-.416h1.385a.416.416,0,0,1,.416.416v.723H45.027Zm-2.905,1.554h8.027v13.39H42.121Z" transform="translate(-32.016 -13.785)" fill="#3f3679"/>
        <path id="Trazado_653280-2" data-name="Trazado 653280" d="M55.339,39.829H53.809l.968-1.982a.416.416,0,1,0-.747-.365l-1.26,2.58a.416.416,0,0,0,.374.6h1.529l-.968,1.982a.416.416,0,1,0,.747.365l1.26-2.58a.416.416,0,0,0-.373-.6Z" transform="translate(-40.284 -30.748)" fill="#3f3679"/>
      </g>
    </g>
  </g>
</svg>
