<svg xmlns="http://www.w3.org/2000/svg" width="85" height="69" viewBox="0 0 85 69">
  <g id="Grupo_949287" data-name="Grupo 949287" transform="translate(-36 -1860)">
    <rect id="Rectángulo_348428" data-name="Rectángulo 348428" width="85" height="69" rx="8" transform="translate(36 1860)" fill="#d9f8f2"/>
    <g id="residuos-electronicos" transform="translate(39.94 1869.854)">
      <g id="Grupo_925923" data-name="Grupo 925923" transform="translate(16.119 2.702)">
        <g id="Grupo_925922" data-name="Grupo 925922" transform="translate(3.753)">
          <path id="Trazado_649630" data-name="Trazado 649630" d="M71.687,61.153,62.01,44.392a.969.969,0,0,1,.355-1.324L88.126,28.195a.969.969,0,0,1,1.324.355l9.677,16.761a.969.969,0,0,1-.355,1.324L73.011,61.508a.969.969,0,0,1-1.324-.355Z" transform="translate(-61.88 -28.065)" fill="#e9a52d"/>
          <path id="Trazado_649631" data-name="Trazado 649631" d="M326.235,45.311,316.558,28.55a.969.969,0,0,0-1.323-.355l-2.053,1.185a.962.962,0,0,1,1.312.361L324.171,46.5a.962.962,0,0,1-.343,1.317l2.052-1.185A.969.969,0,0,0,326.235,45.311Z" transform="translate(-288.989 -28.065)" fill="#e38523"/>
          <path id="Trazado_649632" data-name="Trazado 649632" d="M348.465,171a1.968,1.968,0,1,0,2.688.72A1.968,1.968,0,0,0,348.465,171Z" transform="translate(-319.986 -157.005)" fill="#de5791"/>
          <path id="Trazado_649633" data-name="Trazado 649633" d="M302.245,90.946a1.968,1.968,0,1,0,2.688.72A1.968,1.968,0,0,0,302.245,90.946Z" transform="translate(-278.215 -84.654)" fill="#f7f3f1"/>
          <path id="Trazado_649634" data-name="Trazado 649634" d="M118.69,136.525l5.774,10a.644.644,0,0,0,.88.236l12.25-7.073a.644.644,0,0,0,.236-.88l-5.774-10a.644.644,0,0,0-.88-.236l-12.25,7.073A.644.644,0,0,0,118.69,136.525Z" transform="translate(-113.142 -118.819)" fill="#5392f9"/>
        </g>
        <path id="Trazado_649635" data-name="Trazado 649635" d="M22.9,239.742v3.381a.481.481,0,0,0,.481.481H67.3a.481.481,0,0,0,.481-.481v-3.381a.481.481,0,0,0-.481-.481H23.378A.481.481,0,0,0,22.9,239.742Z" transform="translate(-22.897 -218.929)" fill="#91dafa"/>
        <path id="Trazado_649636" data-name="Trazado 649636" d="M456.991,239.261H454.1a.481.481,0,0,1,.481.481v3.381a.481.481,0,0,1-.481.481h2.888a.481.481,0,0,0,.481-.481v-3.381A.481.481,0,0,0,456.991,239.261Z" transform="translate(-412.59 -218.929)" fill="#6cbff8"/>
        <path id="Trazado_649637" data-name="Trazado 649637" d="M56.515,304.769l-3.528-20.393H92.076l-3.528,20.393a.963.963,0,0,1-.949.8H57.463A.963.963,0,0,1,56.515,304.769Z" transform="translate(-50.09 -259.701)" fill="#6dc17d"/>
        <path id="Trazado_649638" data-name="Trazado 649638" d="M386.992,284.376l-3.528,20.393a.963.963,0,0,1-.949.8H385.4a.963.963,0,0,0,.949-.8l3.528-20.393Z" transform="translate(-347.895 -259.701)" fill="#5ea570"/>
      </g>
      <g id="Grupo_925924" data-name="Grupo 925924" transform="translate(15.397 0)">
        <path id="Trazado_649639" data-name="Trazado 649639" d="M341.968,168.521a2.7,2.7,0,0,0,.7.093,2.7,2.7,0,1,0-.7-.093Zm-.507-2.92a1.247,1.247,0,0,1,1.2-.924,1.249,1.249,0,0,1,1.081.623,1.246,1.246,0,1,1-2.282.3Z" transform="translate(-308.726 -147.517)"/>
        <path id="Trazado_649640" data-name="Trazado 649640" d="M298.772,84.535a2.69,2.69,0,1,0-.985,3.674,2.693,2.693,0,0,0,.985-3.674Zm-1.707,2.424a1.246,1.246,0,1,1,.456-1.7A1.237,1.237,0,0,1,297.065,86.958Z" transform="translate(-266.954 -75.182)"/>
        <path id="Trazado_649641" data-name="Trazado 649641" d="M60.52,22.312H56.405l.72-.416a1.694,1.694,0,0,0,.618-2.31l-6.6-11.433a.722.722,0,1,0-1.251.722l6.6,11.433a.248.248,0,0,1-.09.338l-2.885,1.666H45.172l-5.762-9.98a1.367,1.367,0,0,0-1.866-.5L25.294,18.9a1.368,1.368,0,0,0-.5,1.866l.89,1.542H22.731l-2.1-3.644a.248.248,0,0,1,.09-.338L46.477,3.458a.248.248,0,0,1,.339.09L48.2,5.95a.722.722,0,1,0,1.25-.722l-1.387-2.4a1.7,1.7,0,0,0-2.31-.62L30.593,10.961l8.132-9.777a.722.722,0,0,0-1.11-.923L26.979,13.048,19.995,17.08a1.694,1.694,0,0,0-.618,2.31l1.687,2.922H16.6a1.2,1.2,0,0,0-1.2,1.2V26.9a1.2,1.2,0,0,0,1.2,1.2h1.807l1.168,6.753a.722.722,0,0,0,.711.6.735.735,0,0,0,.124-.011A.722.722,0,0,0,21,34.606L19.873,28.1H57.247L53.865,47.647a.24.24,0,0,1-.237.2H23.492a.24.24,0,0,1-.237-.2l-1.681-9.715a.722.722,0,0,0-1.423.246l1.681,9.715a1.681,1.681,0,0,0,1.66,1.4H53.628a1.681,1.681,0,0,0,1.66-1.4L58.712,28.1H60.52a1.2,1.2,0,0,0,1.2-1.2V23.515a1.2,1.2,0,0,0-1.2-1.2Zm-34.437-2.2L38.2,13.121,43.5,22.312H27.351Zm34.2,6.54H16.841v-2.9H60.279Z" transform="translate(-15.397 0)"/>
        <path id="Trazado_649642" data-name="Trazado 649642" d="M207.281,313.366a1.741,1.741,0,0,0-3.016,0l-2.181,3.777-.248-.826a.722.722,0,0,0-1.383.415l.677,2.255a.911.911,0,0,0,.417.527h0l.021.01a.9.9,0,0,0,.646.088l2.291-.541a.722.722,0,0,0-.332-1.405l-.84.2,2.181-3.777a.3.3,0,0,1,.514,0l1.384,2.4a.722.722,0,0,0,1.251-.722Z" transform="translate(-182.611 -282.412)"/>
        <path id="Trazado_649643" data-name="Trazado 649643" d="M176.835,401.8l-1.384,2.4a1.741,1.741,0,0,0,1.508,2.612h4.361l-.591.628a.722.722,0,1,0,1.051.99l1.614-1.713a.914.914,0,0,0,0-1.254l-1.614-1.713a.722.722,0,0,0-1.051.99l.592.628h-4.362a.3.3,0,0,1-.257-.445l1.384-2.4a.722.722,0,0,0-1.251-.722Z" transform="translate(-159.829 -362.788)"/>
        <path id="Trazado_649644" data-name="Trazado 649644" d="M286.05,373.874a.722.722,0,0,0-.537-.869l-2.291-.541a.914.914,0,0,0-1.085.627l-.677,2.254a.722.722,0,0,0,1.383.415l.248-.826,2.181,3.777a.3.3,0,0,1-.257.445h-2.768a.722.722,0,0,0,0,1.444h2.768a1.741,1.741,0,0,0,1.508-2.612l-2.181-3.777.84.2A.723.723,0,0,0,286.05,373.874Z" transform="translate(-255.818 -336.584)"/>
      </g>
    </g>
  </g>
</svg>
