<svg xmlns="http://www.w3.org/2000/svg" width="66.594" height="66.594" viewBox="0 0 66.594 66.594">
  <g id="electrodomesticos_1_" data-name="electrodomesticos (1)" transform="translate(-0.001 0)">
    <path id="Trazado_649559" data-name="Trazado 649559" d="M319.02,24.182H298.168a2.085,2.085,0,0,1-2.085-2.085V9.585A2.085,2.085,0,0,1,298.168,7.5h20.853a2.086,2.086,0,0,1,2.085,2.085V22.1A2.086,2.086,0,0,1,319.02,24.182Zm0,0" transform="translate(-257.572 -6.525)" fill="#c8c5c9"/>
    <path id="Trazado_649560" data-name="Trazado 649560" d="M34.608,72.143H9.585A2.086,2.086,0,0,1,7.5,70.058V11.671A4.171,4.171,0,0,1,11.67,7.5H32.523a4.171,4.171,0,0,1,4.171,4.171V70.058a2.086,2.086,0,0,1-2.086,2.085Zm0,0" transform="translate(-6.524 -6.525)" fill="#eceaec"/>
    <path id="Trazado_649561" data-name="Trazado 649561" d="M100.889,75.8H96.719a1.043,1.043,0,0,1-1.043-1.043V72.671a1.043,1.043,0,0,1,1.043-1.043h4.171a1.043,1.043,0,0,1,1.043,1.043v2.085A1.043,1.043,0,0,1,100.889,75.8Zm0,0" transform="translate(-83.231 -62.312)" fill="#dbeaff"/>
    <path id="Trazado_649562" data-name="Trazado 649562" d="M10.7,62.7V8.633a4.225,4.225,0,0,0-3.2,4.023V71.044a2.086,2.086,0,0,0,2.085,2.085H34.608a2.085,2.085,0,0,0,2.085-2.085V70H18a7.307,7.307,0,0,1-7.3-7.3Zm0,0" transform="translate(-6.524 -7.51)" fill="#dad8db"/>
    <path id="Trazado_649563" data-name="Trazado 649563" d="M307.159,267.4H282.136a2.085,2.085,0,0,1-2.085-2.085V234.039a2.085,2.085,0,0,1,2.085-2.085h25.023a2.085,2.085,0,0,1,2.085,2.085v31.279A2.085,2.085,0,0,1,307.159,267.4Zm0,0" transform="translate(-243.625 -201.784)" fill="#eceaec"/>
    <path id="Trazado_649564" data-name="Trazado 649564" d="M283.253,258.019V231.953h-1.117a2.085,2.085,0,0,0-2.085,2.085v31.279a2.085,2.085,0,0,0,2.085,2.085h25.023a2.086,2.086,0,0,0,2.085-2.085v-1.043H289.509a6.263,6.263,0,0,1-6.256-6.256Zm0,0" transform="translate(-243.625 -201.784)" fill="#dad8db"/>
    <path id="Trazado_649565" data-name="Trazado 649565" d="M344.826,344.5a8.341,8.341,0,1,1-8.341-8.341A8.341,8.341,0,0,1,344.826,344.5Zm0,0" transform="translate(-285.463 -292.437)" fill="#dad8db"/>
    <path id="Trazado_649566" data-name="Trazado 649566" d="M368.552,372.4a4.171,4.171,0,1,1-4.171-4.17A4.171,4.171,0,0,1,368.552,372.4Zm0,0" transform="translate(-313.359 -320.333)" fill="#fff"/>
    <path id="Trazado_649567" data-name="Trazado 649567" d="M312.113,264.016h6.256v4.171h-6.256Zm0,0" transform="translate(-271.517 -229.676)" fill="#c8c5c9"/>
    <path id="Trazado_649568" data-name="Trazado 649568" d="M396.444,266.1a2.085,2.085,0,1,1-2.086-2.085A2.085,2.085,0,0,1,396.444,266.1Zm0,0" transform="translate(-341.251 -229.676)" fill="#fff"/>
    <path id="Trazado_649569" data-name="Trazado 649569" d="M364.343,376.431a3.634,3.634,0,0,1-1.481-1.478,4.21,4.21,0,0,1-.191-3.843,4.224,4.224,0,0,0-1.939,5.9,3.483,3.483,0,0,0,1.541,1.542,4.225,4.225,0,0,0,5.9-1.939A4.214,4.214,0,0,1,364.343,376.431Zm0,0" transform="translate(-313.358 -322.841)" fill="#dbeaff"/>
    <path id="Trazado_649570" data-name="Trazado 649570" d="M337.528,47.907h-8.341a1.043,1.043,0,0,1-1.043-1.043V40.609a1.042,1.042,0,0,1,1.043-1.043h8.341a1.042,1.042,0,0,1,1.043,1.043v6.256A1.042,1.042,0,0,1,337.528,47.907Zm0,0" transform="translate(-285.463 -34.42)" fill="#dbeaff"/>
    <path id="Trazado_649571" data-name="Trazado 649571" d="M335.443,44.776a4.171,4.171,0,0,1-4.171-4.171V39.562h-2.085a1.043,1.043,0,0,0-1.043,1.043v6.256a1.042,1.042,0,0,0,1.043,1.043h8.341a1.042,1.042,0,0,0,1.043-1.043V44.776Zm0,0" transform="translate(-285.463 -34.417)" fill="#c3ddff"/>
    <path id="Trazado_649572" data-name="Trazado 649572" d="M301.295,20.011a1.043,1.043,0,0,1-1.043-1.043V7.5h-2.085a2.085,2.085,0,0,0-2.085,2.085V22.1a2.085,2.085,0,0,0,2.085,2.085H319.02A2.085,2.085,0,0,0,321.1,22.1V20.011Zm0,0" transform="translate(-257.571 -6.524)" fill="#b6b1b7"/>
    <path id="Trazado_649573" data-name="Trazado 649573" d="M63.534,29.194H52V18.633h9.451a3.064,3.064,0,0,0,3.061-3.061V3.06A3.065,3.065,0,0,0,61.449,0H40.6A3.064,3.064,0,0,0,37.536,3.06v5.28h-6.39v-3.2A5.152,5.152,0,0,0,26,0H5.146A5.152,5.152,0,0,0,0,5.146V63.533a3.065,3.065,0,0,0,3.061,3.061H28.084a3.064,3.064,0,0,0,3.061-3.061V48.869h4.3V63.533a3.064,3.064,0,0,0,3.061,3.061H63.534a3.065,3.065,0,0,0,3.061-3.061V32.254a3.064,3.064,0,0,0-3.061-3.061Zm1.11,3.061v5.28H55.959a3.061,3.061,0,1,0-5.7,0H47.828v-3.2a.976.976,0,0,0-.976-.976H40.6a.976.976,0,0,0-.976.976v3.2H37.4v-5.28a1.111,1.111,0,0,1,1.11-1.11H63.534a1.111,1.111,0,0,1,1.11,1.11ZM52,36.425a1.11,1.11,0,1,1,1.11,1.11A1.111,1.111,0,0,1,52,36.425Zm-10.426,1.11v-2.22h4.3v2.22ZM61.449,16.682h-3.2V8.207h4.3v7.366a1.111,1.111,0,0,1-1.11,1.11ZM62.559,3.06v3.2h-4.3v-4.3h3.195a1.111,1.111,0,0,1,1.11,1.11Zm-23.072,0a1.111,1.111,0,0,1,1.11-1.11H56.3V16.682H40.6a1.111,1.111,0,0,1-1.11-1.11ZM1.952,43.656H4.1a.067.067,0,0,1,.067.067v7.3a.067.067,0,0,1-.067.067H1.952Zm0-17.725H4.1A.067.067,0,0,1,4.171,26v7.3a.067.067,0,0,1-.067.067H1.952Zm27.243,37.6a1.111,1.111,0,0,1-1.11,1.11H3.061a1.111,1.111,0,0,1-1.11-1.11V53.04H4.1a2.02,2.02,0,0,0,2.018-2.018v-7.3A2.02,2.02,0,0,0,4.1,41.705H1.951V39.486H23.914a.976.976,0,0,0,0-1.951H1.951V35.316H4.1A2.02,2.02,0,0,0,6.122,33.3V26A2.02,2.02,0,0,0,4.1,23.98H1.951V5.146A3.2,3.2,0,0,1,5.146,1.951H26a3.2,3.2,0,0,1,3.195,3.195V37.534H28.085a.976.976,0,1,0,0,1.951h1.109V63.534Zm1.951-16.615V10.292h6.39v5.28A3.064,3.064,0,0,0,40.6,18.633h9.451V29.194H38.511a3.064,3.064,0,0,0-3.061,3.061V46.918ZM63.534,64.643H38.511a1.111,1.111,0,0,1-1.11-1.11V39.486H64.644V63.533a1.111,1.111,0,0,1-1.11,1.11Zm0,0" transform="translate(0 0)"/>
    <path id="Trazado_649574" data-name="Trazado 649574" d="M94.365,64.129H90.194a2.02,2.02,0,0,0-2.018,2.018v2.085a2.02,2.02,0,0,0,2.018,2.018h4.171a2.02,2.02,0,0,0,2.018-2.018V66.147A2.02,2.02,0,0,0,94.365,64.129Zm.067,4.1a.067.067,0,0,1-.067.067H90.194a.067.067,0,0,1-.067-.067V66.147a.067.067,0,0,1,.067-.067h4.171a.067.067,0,0,1,.067.067Zm0,0" transform="translate(-76.707 -55.788)"/>
    <path id="Trazado_649575" data-name="Trazado 649575" d="M441.862,258.467h3.128a.976.976,0,0,0,0-1.951h-3.128a.976.976,0,0,0,0,1.951Zm0,0" transform="translate(-383.542 -223.152)"/>
    <path id="Trazado_649576" data-name="Trazado 649576" d="M329.961,328.66a9.317,9.317,0,1,0,9.317,9.317A9.327,9.327,0,0,0,329.961,328.66Zm0,16.682a7.366,7.366,0,1,1,7.366-7.366A7.374,7.374,0,0,1,329.961,345.342Zm0,0" transform="translate(-278.938 -285.912)"/>
    <path id="Trazado_649577" data-name="Trazado 649577" d="M361.652,363.884a.975.975,0,0,0-.7,1.188,3.19,3.19,0,1,1-2.294-2.293.976.976,0,0,0,.487-1.889,5.141,5.141,0,1,0,3.7,3.7A.976.976,0,0,0,361.652,363.884Zm0,0" transform="translate(-306.834 -313.808)"/>
    <path id="Trazado_649578" data-name="Trazado 649578" d="M321.62,42.354h10.427a.975.975,0,0,0,.975-.975V33.038a.976.976,0,0,0-.975-.976h-2.085a.975.975,0,0,0,0,1.951h1.11V40.4H322.6v-6.39h3.2a.975.975,0,1,0,0-1.951H321.62a.976.976,0,0,0-.975.976v8.341a.975.975,0,0,0,.975.975Zm0,0" transform="translate(-278.939 -27.892)"/>
  </g>
</svg>
