<svg xmlns="http://www.w3.org/2000/svg" width="64.206" height="56.94" viewBox="0 0 64.206 56.94">
  <g id="precaucion" transform="translate(-0.001 0)">
    <path id="Trazado_656373" data-name="Trazado 656373" d="M18.3,68.179c-2.959,0-4.17-2.1-2.69-4.659l26.9-46.6c1.479-2.563,3.9-2.563,5.381,0l26.9,46.6c1.48,2.562.269,4.659-2.69,4.659Zm0,0" transform="translate(-13.1 -13.12)" fill="#fedb41"/>
    <path id="Trazado_656374" data-name="Trazado 656374" d="M285.593,63.519l-26.9-46.6A3.269,3.269,0,0,0,256,15V68.178h26.9c2.959,0,4.17-2.1,2.69-4.659Zm0,0" transform="translate(-223.897 -13.119)" fill="#fcbf29"/>
    <g id="Grupo_949022" data-name="Grupo 949022" transform="translate(0.001 0)">
      <path id="Trazado_656375" data-name="Trazado 656375" d="M59.006,56.941H5.2A5.111,5.111,0,0,1,.562,54.632,5.112,5.112,0,0,1,.881,49.46l26.9-46.6A5.112,5.112,0,0,1,32.1,0a5.112,5.112,0,0,1,4.32,2.863l26.9,46.6a4.69,4.69,0,0,1-4.319,7.481ZM32.1,3.763c-.246,0-.67.3-1.061.981l-26.9,46.6c-.391.678-.443,1.2-.319,1.41s.6.428,1.38.428H59.006c.783,0,1.257-.215,1.381-.428s.072-.731-.32-1.409l-26.9-46.6c-.391-.678-.815-.981-1.061-.981Zm0,0" transform="translate(-0.001 -0.001)" fill="#555a66"/>
      <path id="Trazado_656376" data-name="Trazado 656376" d="M221.8,327.652a4.9,4.9,0,1,0,4.9,4.9A4.909,4.909,0,0,0,221.8,327.652Zm0,0" transform="translate(-189.699 -286.564)" fill="#555a66"/>
      <path id="Trazado_656377" data-name="Trazado 656377" d="M221.8,99.484a4.909,4.909,0,0,0-4.9,4.9v16.523a4.9,4.9,0,0,0,9.807,0V104.388A4.909,4.909,0,0,0,221.8,99.484Zm0,0" transform="translate(-189.699 -87.009)" fill="#555a66"/>
    </g>
    <path id="Trazado_656378" data-name="Trazado 656378" d="M287.223,49.459l-26.9-46.6A5.112,5.112,0,0,0,256,0V3.762c.246,0,.669.3,1.061.981l26.9,46.6c.391.678.443,1.2.32,1.409s-.6.428-1.381.428H256V56.94h26.9a4.69,4.69,0,0,0,4.32-7.481Zm0,0" transform="translate(-223.897 0)" fill="#3c3a41"/>
    <path id="Trazado_656379" data-name="Trazado 656379" d="M260.9,332.556a4.909,4.909,0,0,0-4.9-4.9v9.807a4.91,4.91,0,0,0,4.9-4.9Zm0,0" transform="translate(-223.896 -286.564)" fill="#3c3a41"/>
    <path id="Trazado_656380" data-name="Trazado 656380" d="M260.9,120.911V104.388a4.91,4.91,0,0,0-4.9-4.9v26.33A4.909,4.909,0,0,0,260.9,120.911Zm0,0" transform="translate(-223.896 -87.009)" fill="#3c3a41"/>
  </g>
</svg>
