<svg xmlns="http://www.w3.org/2000/svg" xmlns:xlink="http://www.w3.org/1999/xlink" width="87.279" height="87.279" viewBox="0 0 87.279 87.279">
  <defs>
    <filter id="Elipse_7745" x="0" y="0" width="87.279" height="87.279" filterUnits="userSpaceOnUse">
      <feOffset dy="3" input="SourceAlpha"/>
      <feGaussianBlur stdDeviation="3" result="blur"/>
      <feFlood flood-opacity="0.161"/>
      <feComposite operator="in" in2="blur"/>
      <feComposite in="SourceGraphic"/>
    </filter>
  </defs>
  <g id="Grupo_949292" data-name="Grupo 949292" transform="translate(-362 -3600.129)">
    <g transform="matrix(1, 0, 0, 1, 362, 3600.13)" filter="url(#Elipse_7745)">
      <ellipse id="Elipse_7745-2" data-name="Elipse 7745" cx="34.639" cy="34.639" rx="34.639" ry="34.639" transform="translate(9 6)" fill="#ffd947"/>
    </g>
    <g id="fabrica-ecologica" transform="translate(380.97 3613.19)">
      <path id="Trazado_653173" data-name="Trazado 653173" d="M7,27.969h6.234l2.994-4.491h6.437A54.473,54.473,0,0,1,21.467,13H9.492A60.563,60.563,0,0,1,7,27.969Z" transform="translate(-1.761 -1.509)" fill="#e8debf"/>
      <path id="Trazado_653174" data-name="Trazado 653174" d="M21.467,13H18.387l.269,3.753a4.182,4.182,0,0,1-4.171,4.479H8.59A61.259,61.259,0,0,1,7,27.969h6.234l2.994-4.491h6.437A54.473,54.473,0,0,1,21.467,13Z" transform="translate(-1.761 -1.509)" fill="#d6c9a5"/>
      <path id="Trazado_653175" data-name="Trazado 653175" d="M0,0H5.239V3.742H0Z" transform="translate(44.158 44.422) rotate(180)" fill="#7f522d"/>
      <path id="Trazado_653176" data-name="Trazado 653176" d="M0,0H5.988V3.742H0Z" transform="translate(35.925 44.422) rotate(180)" fill="#7f522d"/>
      <path id="Trazado_653177" data-name="Trazado 653177" d="M0,0H5.239V3.742H0Z" transform="translate(26.944 44.422) rotate(180)" fill="#7f522d"/>
      <path id="Trazado_653178" data-name="Trazado 653178" d="M28.36,26.711A81.935,81.935,0,0,1,25,37.189H53.441A87.792,87.792,0,0,1,47.453,8H30.987a81.655,81.655,0,0,1-1.624,14.22C29.079,23.65,28.75,25.154,28.36,26.711Zm4.124-1.691a8.974,8.974,0,0,1,.037-.906,12.62,12.62,0,0,1,1.542-5.224,16.316,16.316,0,0,1,5.157-5.651,16.316,16.316,0,0,1,5.157,5.651,12.62,12.62,0,0,1,1.542,5.224,8.977,8.977,0,0,1,.037.906c0,6.931-6.736,6.931-6.736,6.931S32.484,31.95,32.484,25.019Z" transform="translate(-6.289 -0.252)" fill="#e8debf"/>
      <path id="Trazado_653179" data-name="Trazado 653179" d="M53.441,53.736H50.447V50.742H45.208v2.994H42.214V50.742H36.227v2.994H33.233V50.742H27.994v2.994H25V47H53.441Z" transform="translate(-6.289 -10.062)" fill="#a3795a"/>
      <path id="Trazado_653180" data-name="Trazado 653180" d="M32.829,10.994C32.957,9.1,32.957,8,32.957,8H49.423s0,1.1.128,2.994Z" transform="translate(-8.259 -0.252)" fill="#f4eedf"/>
      <path id="Trazado_653181" data-name="Trazado 653181" d="M39.22,41.759c6.225,0,9.989-2.141,11.9-3.686.652,2.179,1.416,4.416,2.32,6.68H25c.9-2.265,1.659-4.5,2.31-6.687C29.218,39.611,32.985,41.759,39.22,41.759Z" transform="translate(-6.289 -7.815)" fill="#d6c9a5"/>
      <path id="Trazado_653182" data-name="Trazado 653182" d="M6,45h4.491v8.233H6Z" transform="translate(-1.509 -9.559)" fill="#8c6239"/>
      <path id="Trazado_653183" data-name="Trazado 653183" d="M12,45h4.491v8.233H12Z" transform="translate(-3.019 -9.559)" fill="#7f522d"/>
      <path id="Trazado_653184" data-name="Trazado 653184" d="M1,33V50.214H4.742V41.981h8.981v8.233h5.239V43.478A81.934,81.934,0,0,0,22.323,33Z" transform="translate(-0.252 -6.541)" fill="#ccc"/>
      <path id="Trazado_653185" data-name="Trazado 653185" d="M24.36,33h2.994a81.934,81.934,0,0,1-3.36,10.478v6.736H21V43.478A81.934,81.934,0,0,0,24.36,33Z" transform="translate(-5.283 -6.541)" fill="#b3b3b3"/>
      <path id="Trazado_653186" data-name="Trazado 653186" d="M18.324,27,15.33,31.491h10.6c.389-1.557.719-3.061,1-4.491Z" transform="translate(-3.856 -5.031)" fill="#999"/>
      <path id="Trazado_653187" data-name="Trazado 653187" d="M37.11,20.651l5.157,2.582V15a16.316,16.316,0,0,0-5.157,5.651Z" transform="translate(-9.335 -2.012)" fill="#87cc46"/>
      <path id="Trazado_653188" data-name="Trazado 653188" d="M44,15v8.233l5.157-2.582A16.316,16.316,0,0,0,44,15Z" transform="translate(-11.069 -2.012)" fill="#5bb234"/>
      <path id="Trazado_653189" data-name="Trazado 653189" d="M50.7,29.53,44,32.876v4.491s6.736,0,6.736-6.931a8.977,8.977,0,0,0-.037-.906Z" transform="translate(-11.069 -5.668)" fill="#5bb234"/>
      <path id="Trazado_653190" data-name="Trazado 653190" d="M44,25.132V31.12l6.7-3.346a12.62,12.62,0,0,0-1.542-5.224Z" transform="translate(-11.069 -3.912)" fill="#87cc46"/>
      <path id="Trazado_653191" data-name="Trazado 653191" d="M35.05,27.774l6.7,3.346V25.132L36.592,22.55a12.619,12.619,0,0,0-1.542,5.224Z" transform="translate(-8.817 -3.912)" fill="#5bb234"/>
      <path id="Trazado_653192" data-name="Trazado 653192" d="M35.037,29.53a8.975,8.975,0,0,0-.037.906c0,6.931,6.736,6.931,6.736,6.931V32.876Z" transform="translate(-8.805 -5.668)" fill="#87cc46"/>
      <g id="Grupo_946707" data-name="Grupo 946707" transform="translate(0 7)">
        <path id="Trazado_653193" data-name="Trazado 653193" d="M4.748,38.994a.748.748,0,0,0,.748-.748v-1.5a.748.748,0,1,0-1.5,0v1.5A.748.748,0,0,0,4.748,38.994Z" transform="translate(-1.006 -14.295)" fill="#252525"/>
        <path id="Trazado_653194" data-name="Trazado 653194" d="M47.847,36.66A87.82,87.82,0,0,1,41.912,7.748.748.748,0,0,0,41.164,7H24.7a.748.748,0,0,0-.748.748,81.261,81.261,0,0,1-1.5,13.472H14.467a.748.748,0,0,0-.623.333l-2.768,4.157H6.232A62.552,62.552,0,0,0,8.457,12.239h10.51a55.8,55.8,0,0,0,.655,6.85A.748.748,0,1,0,21.1,18.86a50.677,50.677,0,0,1-.647-7.362.748.748,0,0,0-.748-.756H7.731a.748.748,0,0,0-.748.74A60.522,60.522,0,0,1,4.674,25.711H.748A.748.748,0,0,0,0,26.459V43.673a.748.748,0,0,0,.748.748H21.7a.748.748,0,0,0,.748-.748V41.428H26.2v2.245a.748.748,0,0,0,.748.748h2.994a.748.748,0,0,0,.748-.748V41.428h4.491v2.245a.748.748,0,0,0,.748.748h2.994a.748.748,0,0,0,.748-.748V41.428h3.742v2.245a.748.748,0,0,0,.748.748h2.994a.748.748,0,0,0,.748-.748V36.937A.749.749,0,0,0,47.847,36.66ZM25.431,8.5h15a90.592,90.592,0,0,0,5.625,27.692H19.8a83.328,83.328,0,0,0,3-9.549c.366-1.462.7-2.942,1.012-4.528A87.616,87.616,0,0,0,25.431,8.5ZM14.868,22.717h7.286q-.32,1.537-.674,2.994H12.873ZM1.5,27.208H21.1a80.629,80.629,0,0,1-3.081,9.452.748.748,0,0,0-.053.278v5.988H14.22V35.441a.748.748,0,0,0-.748-.748H4.491a.748.748,0,0,0-.748.748v7.484H1.5ZM9.73,36.189h2.994v6.736H9.73Zm-1.5,6.736H5.239V36.189H8.233Zm36.673,0V40.68a.748.748,0,0,0-.748-.748H38.919a.748.748,0,0,0-.748.748v2.245h-1.5V40.68a.748.748,0,0,0-.748-.748H29.937a.748.748,0,0,0-.748.748v2.245h-1.5V40.68a.748.748,0,0,0-.748-.748H21.7a.748.748,0,0,0-.748.748v2.245h-1.5V37.686H46.4v5.239Z" transform="translate(0 -7)" fill="#252525"/>
        <path id="Trazado_653195" data-name="Trazado 653195" d="M40.736,34.146V35.7a.748.748,0,1,0,1.5,0V34.146c1.9-.248,6.736-1.48,6.736-7.617a9.319,9.319,0,0,0-.039-.956A13.345,13.345,0,0,0,47.3,20.044a16.973,16.973,0,0,0-5.422-5.933.748.748,0,0,0-.787,0,16.967,16.967,0,0,0-5.42,5.928,13.318,13.318,0,0,0-1.629,5.507,9.5,9.5,0,0,0-.041.982c0,6.137,4.841,7.369,6.736,7.617Zm-5.221-7.322,5.221,2.608v3.218a5.68,5.68,0,0,1-5.221-5.826Zm6.718,5.821V29.431l5.221-2.608A5.7,5.7,0,0,1,42.233,32.644Zm5.143-7.454-5.143,2.569V23.444L46.3,21.409a11.809,11.809,0,0,1,1.079,3.78Zm-1.788-5.1-3.355,1.68V16.245A15.99,15.99,0,0,1,45.588,20.089Zm-4.852-3.844v5.527l-3.355-1.68a15.971,15.971,0,0,1,3.355-3.847Zm-4.064,5.164,4.064,2.034v4.315l-5.144-2.569a11.789,11.789,0,0,1,1.08-3.78Z" transform="translate(-8.553 -8.761)" fill="#252525"/>
        <path id="Trazado_653196" data-name="Trazado 653196" d="M8.748,38.994a.748.748,0,0,0,.748-.748v-1.5a.748.748,0,1,0-1.5,0v1.5A.748.748,0,0,0,8.748,38.994Z" transform="translate(-2.012 -14.295)" fill="#252525"/>
      </g>
    </g>
  </g>
</svg>
