<svg id="exclamation-mark" xmlns="http://www.w3.org/2000/svg" width="48.454" height="59.365" viewBox="0 0 48.454 59.365">
  <g id="Grupo_54835" data-name="Grupo 54835" transform="translate(0.87 0.87)">
    <path id="Trazado_103159" data-name="Trazado 103159" d="M90.411,7.5h-25A10.857,10.857,0,0,0,54.554,18.357V44.908A10.857,10.857,0,0,0,65.411,55.765h6.421a1.477,1.477,0,0,1,1.35.877l3.379,7.606a1.477,1.477,0,0,0,2.7,0l3.379-7.606a1.477,1.477,0,0,1,1.35-.877h6.421a10.857,10.857,0,0,0,10.857-10.857V18.357A10.857,10.857,0,0,0,90.411,7.5Z" transform="translate(-54.554 -7.5)" fill="#f5f5f5"/>
  </g>
  <g id="Grupo_54836" data-name="Grupo 54836" transform="translate(20.649 8.851)">
    <path id="Trazado_103160" data-name="Trazado 103160" d="M230.108,96.426h-2.774a1.073,1.073,0,0,1-1.071-1.006l-1.118-17.947a1.073,1.073,0,0,1,1.071-1.14h5.009a1.073,1.073,0,0,1,1.071,1.14L231.179,95.42A1.073,1.073,0,0,1,230.108,96.426Zm-1.387,5.679a3.162,3.162,0,1,0,3.162,3.162A3.162,3.162,0,0,0,228.721,102.1Z" transform="translate(-225.144 -76.333)" fill="#b3009d"/>
  </g>
  <g id="Grupo_54837" data-name="Grupo 54837" transform="translate(33.248 0.87)">
    <path id="Trazado_103161" data-name="Trazado 103161" d="M337.284,7.5h-3.478a10.857,10.857,0,0,1,10.857,10.857V44.908a10.857,10.857,0,0,1-10.857,10.857h3.478a10.857,10.857,0,0,0,10.857-10.857V18.357A10.857,10.857,0,0,0,337.284,7.5Z" transform="translate(-333.806 -7.5)" fill="#ebe5ed"/>
  </g>
  <g id="Grupo_54838" data-name="Grupo 54838" transform="translate(22.488 34.623)">
    <path id="Trazado_103162" data-name="Trazado 103162" d="M242.739,298.607a3.146,3.146,0,0,0-1.739.522,3.161,3.161,0,0,1,0,5.28,3.162,3.162,0,1,0,1.739-5.8Z" transform="translate(-241 -298.607)" fill="#e600c9"/>
  </g>
  <g id="Grupo_54839" data-name="Grupo 54839" transform="translate(22.488 8.851)">
    <path id="Trazado_103163" data-name="Trazado 103163" d="M245.244,76.333h-3.478a1.073,1.073,0,0,1,1.071,1.14L241.719,95.42a1.072,1.072,0,0,1-.719.946,1.067,1.067,0,0,0,.352.061h2.774A1.073,1.073,0,0,0,245.2,95.42l1.118-17.947A1.073,1.073,0,0,0,245.244,76.333Z" transform="translate(-241 -76.333)" fill="#e600c9"/>
  </g>
  <g id="Grupo_54840" data-name="Grupo 54840" transform="translate(19.78 7.981)">
    <path id="Trazado_103164" data-name="Trazado 103164" d="M223.479,90.666h-2.774a1.946,1.946,0,0,1-1.939-1.822L217.649,70.9a1.943,1.943,0,0,1,1.939-2.063H224.6a1.943,1.943,0,0,1,1.939,2.063l-1.118,17.947A1.946,1.946,0,0,1,223.479,90.666Zm-3.891-20.093a.2.2,0,0,0-.2.216L220.5,88.736a.2.2,0,0,0,.2.191h2.774a.2.2,0,0,0,.2-.191L224.8,70.789a.2.2,0,0,0-.2-.216Z" transform="translate(-217.645 -68.834)" fill="#3c0061"/>
  </g>
  <g id="Grupo_54841" data-name="Grupo 54841" transform="translate(20.195 33.753)">
    <path id="Trazado_103165" data-name="Trazado 103165" d="M225.261,299.169a4.032,4.032,0,1,1,4.031-4.032A4.036,4.036,0,0,1,225.261,299.169Zm0-6.324a2.292,2.292,0,1,0,2.292,2.292A2.295,2.295,0,0,0,225.261,292.845Z" transform="translate(-221.23 -291.106)" fill="#3c0061"/>
  </g>
  <g id="Grupo_54842" data-name="Grupo 54842" transform="translate(0)">
    <path id="Trazado_103166" data-name="Trazado 103166" d="M83.78,0h-25A11.74,11.74,0,0,0,47.054,11.727v5.861a.87.87,0,1,0,1.739,0V11.727a10,10,0,0,1,9.988-9.988h25a10,10,0,0,1,9.988,9.988v15.9a.87.87,0,0,0,1.739,0v-15.9A11.74,11.74,0,0,0,83.78,0Z" transform="translate(-47.054 0)" fill="#3c0061"/>
    <path id="Trazado_103167" data-name="Trazado 103167" d="M94.637,184.223a.87.87,0,0,0-.87.87v7.175a10,10,0,0,1-9.988,9.988H77.358a2.348,2.348,0,0,0-2.145,1.394l-3.379,7.606a.608.608,0,0,1-1.111,0l-3.379-7.606a2.349,2.349,0,0,0-2.145-1.394H58.78a10,10,0,0,1-9.988-9.988V175.056a.87.87,0,0,0-1.739,0v17.211A11.74,11.74,0,0,0,58.78,203.994H65.2a.608.608,0,0,1,.555.361l3.379,7.606a2.347,2.347,0,0,0,4.29,0l3.379-7.606a.608.608,0,0,1,.555-.361H83.78a11.74,11.74,0,0,0,11.727-11.727v-7.175A.87.87,0,0,0,94.637,184.223Z" transform="translate(-47.053 -153.99)" fill="#3c0061"/>
  </g>
</svg>
