<svg xmlns="http://www.w3.org/2000/svg" width="60.412" height="66.824" viewBox="0 0 60.412 66.824">
  <g id="Grupo_946687" data-name="Grupo 946687" transform="translate(-214 -3176.176)">
    <g id="Page-1" transform="translate(214 3183)">
      <g id="_001---Capacitor" data-name="001---Capacitor">
        <g id="Icons" transform="translate(1 1)">
          <path id="Shape" d="M28,3V37.5A1.5,1.5,0,0,1,26.5,39H1.5A1.5,1.5,0,0,1,0,37.5V3A3,3,0,0,1,3,0H25A3,3,0,0,1,28,3Z" fill="#a50491"/>
          <path id="Shape-2" data-name="Shape" d="M25,0H22a3,3,0,0,1,3,3V37.5A1.5,1.5,0,0,1,23.5,39h3A1.5,1.5,0,0,0,28,37.5V3A3,3,0,0,0,25,0Z" fill="#850776"/>
          <path id="Shape-3" data-name="Shape" d="M26.5,43H1.5A1.5,1.5,0,0,0,3,41.5v-1A1.5,1.5,0,0,0,1.5,39h25A1.5,1.5,0,0,0,25,40.5v1A1.5,1.5,0,0,0,26.5,43Z" fill="#3f51b5"/>
          <path id="Shape-4" data-name="Shape" d="M25,41.5v-1A1.5,1.5,0,0,1,26.5,39h-3A1.5,1.5,0,0,0,22,40.5v1A1.5,1.5,0,0,0,23.5,43h3A1.5,1.5,0,0,1,25,41.5Z" fill="#283593"/>
          <path id="Rectangle-path" d="M1.5,0h25A1.5,1.5,0,0,1,28,1.5v1A1.5,1.5,0,0,1,26.5,4H1.5A1.5,1.5,0,0,1,0,2.5v-1A1.5,1.5,0,0,1,1.5,0Z" transform="translate(0 43)" fill="#a50491"/>
          <path id="Shape-5" data-name="Shape" d="M26.5,43h-3A1.5,1.5,0,0,1,25,44.5v1A1.5,1.5,0,0,1,23.5,47h3A1.5,1.5,0,0,0,28,45.5v-1A1.5,1.5,0,0,0,26.5,43Z" fill="#850776"/>
          <g id="Grupo_946687-2" data-name="Grupo 946687">
            <path id="Shape-6" data-name="Shape" d="M5,47H9v3a1,1,0,0,1-1,1H6a1,1,0,0,1-1-1Z" fill="#607d8b"/>
            <path id="Shape-7" data-name="Shape" d="M19,47h4v3a1,1,0,0,1-1,1H20a1,1,0,0,1-1-1Z" fill="#607d8b"/>
          </g>
        </g>
        <g id="Layer_2">
          <g id="Grupo_946688" data-name="Grupo 946688">
            <path id="Shape-8" data-name="Shape" d="M2.5,49H5v2a2,2,0,0,0,2,2v6a1,1,0,0,0,2,0V53a2,2,0,0,0,2-2V49h8v2a2,2,0,0,0,2,2v6a1,1,0,0,0,2,0V53a2,2,0,0,0,2-2V49h2.5A2.5,2.5,0,0,0,30,46.5v-1A2.5,2.5,0,0,0,27.5,43a.5.5,0,0,1-.5-.5v-1a.5.5,0,0,1,.5-.5A2.5,2.5,0,0,0,30,38.5V4a4,4,0,0,0-4-4H4A4,4,0,0,0,0,4V38.5A2.5,2.5,0,0,0,2.5,41a.5.5,0,0,1,.5.5v1a.5.5,0,0,1-.5.5A2.5,2.5,0,0,0,0,45.5v1A2.5,2.5,0,0,0,2.5,49ZM9,51H7V49H9Zm14,0H21V49h2Zm5-4.5a.5.5,0,0,1-.5.5H2.5a.5.5,0,0,1-.5-.5v-1a.5.5,0,0,1,.5-.5h25a.5.5,0,0,1,.5.5ZM2,4A2,2,0,0,1,4,2H26a2,2,0,0,1,2,2V38.5a.5.5,0,0,1-.5.5H2.5a.5.5,0,0,1-.5-.5ZM5,41H25.1a2.73,2.73,0,0,0,0,.5v1a2.73,2.73,0,0,0,0,.5H5a2.73,2.73,0,0,0,.05-.5v-1A2.73,2.73,0,0,0,5,41Z"/>
            <path id="Shape-9" data-name="Shape" d="M13,31H12a1,1,0,0,0-2,0v2.38L5.45,31.11a1,1,0,0,0-.9,1.78l6,3A1,1,0,0,0,12,35V33h1a1,1,0,0,0,0-2Z"/>
            <path id="Shape-10" data-name="Shape" d="M5,29a1,1,0,0,0,1-1V25.16a17.35,17.35,0,0,0,2,1.32V28a1,1,0,0,0,2,0v-.58A8.79,8.79,0,0,0,13,28a1,1,0,0,0,0-2c-3.53,0-7.26-3.67-7.29-3.71A1.006,1.006,0,0,0,4,23v5a1,1,0,0,0,1,1Z"/>
          </g>
          <path id="Shape-11" data-name="Shape" d="M5,19a1,1,0,0,0,1-1V15a1,1,0,0,0-2,0v3A1,1,0,0,0,5,19Z" fill="#f5f5f5"/>
          <path id="Shape-12" data-name="Shape" d="M5,12a1,1,0,0,0,1-1V5A1,1,0,0,0,4,5v6A1,1,0,0,0,5,12Z" fill="#f5f5f5"/>
        </g>
      </g>
    </g>
    <g id="Page-1-2" data-name="Page-1" transform="translate(247 3176.176)">
      <g id="_001---Capacitor-2" data-name="001---Capacitor" transform="translate(0)">
        <g id="Icons-2" data-name="Icons" transform="translate(0.914 0.914)">
          <path id="Shape-13" data-name="Shape" d="M25.585,2.741V34.265a1.371,1.371,0,0,1-1.371,1.371H1.371A1.371,1.371,0,0,1,0,34.265V2.741A2.741,2.741,0,0,1,2.741,0h20.1A2.741,2.741,0,0,1,25.585,2.741Z" fill="#02a9f4"/>
          <path id="Shape-14" data-name="Shape" d="M24.741,0H22a2.741,2.741,0,0,1,2.741,2.741V34.265a1.371,1.371,0,0,1-1.371,1.371h2.741a1.371,1.371,0,0,0,1.371-1.371V2.741A2.741,2.741,0,0,0,24.741,0Z" transform="translate(-1.898)" fill="#0377bc"/>
          <path id="Shape-15" data-name="Shape" d="M24.343,42.655H1.5a1.371,1.371,0,0,0,1.371-1.371v-.914A1.371,1.371,0,0,0,1.5,39H24.343a1.371,1.371,0,0,0-1.371,1.371v.914A1.371,1.371,0,0,0,24.343,42.655Z" transform="translate(-0.129 -3.364)" fill="#3f51b5"/>
          <path id="Shape-16" data-name="Shape" d="M24.741,41.284v-.914A1.371,1.371,0,0,1,26.112,39H23.371A1.371,1.371,0,0,0,22,40.371v.914a1.371,1.371,0,0,0,1.371,1.371h2.741A1.371,1.371,0,0,1,24.741,41.284Z" transform="translate(-1.898 -3.364)" fill="#283593"/>
          <rect id="Rectangle-path-2" data-name="Rectangle-path" width="25" height="4" rx="1.5" transform="translate(0.086 38.91)" fill="#02a9f4"/>
          <path id="Shape-17" data-name="Shape" d="M26.241,43H23.5a1.371,1.371,0,0,1,1.371,1.371v.914A1.371,1.371,0,0,1,23.5,46.655h2.741a1.371,1.371,0,0,0,1.371-1.371v-.914A1.371,1.371,0,0,0,26.241,43Z" transform="translate(-2.027 -3.709)" fill="#0377bc"/>
          <g id="Grupo_946687-3" data-name="Grupo 946687" transform="translate(4.569 42.946)">
            <path id="Shape-18" data-name="Shape" d="M5,47H8.655v2.741a.914.914,0,0,1-.914.914H5.914A.914.914,0,0,1,5,49.741Z" transform="translate(-5 -47)" fill="#607d8b"/>
            <path id="Shape-19" data-name="Shape" d="M19,47h3.655v2.741a.914.914,0,0,1-.914.914H19.914A.914.914,0,0,1,19,49.741Z" transform="translate(-6.208 -47)" fill="#607d8b"/>
          </g>
        </g>
        <g id="Layer_2-2" data-name="Layer_2">
          <g id="Grupo_946688-2" data-name="Grupo 946688">
            <path id="Shape-20" data-name="Shape" d="M2.284,44.773H4.569V46.6A1.827,1.827,0,0,0,6.4,48.428V53.91a.914.914,0,0,0,1.827,0V48.428A1.827,1.827,0,0,0,10.051,46.6V44.773h7.31V46.6a1.827,1.827,0,0,0,1.827,1.827V53.91a.914.914,0,0,0,1.827,0V48.428A1.827,1.827,0,0,0,22.843,46.6V44.773h2.284a2.284,2.284,0,0,0,2.284-2.284v-.914a2.284,2.284,0,0,0-2.284-2.284.457.457,0,0,1-.457-.457V37.92a.457.457,0,0,1,.457-.457,2.284,2.284,0,0,0,2.284-2.284V3.655A3.655,3.655,0,0,0,23.757,0H3.655A3.655,3.655,0,0,0,0,3.655V35.179a2.284,2.284,0,0,0,2.284,2.284.457.457,0,0,1,.457.457v.914a.457.457,0,0,1-.457.457A2.284,2.284,0,0,0,0,41.575v.914a2.284,2.284,0,0,0,2.284,2.284ZM8.224,46.6H6.4V44.773H8.224Zm12.792,0H19.188V44.773h1.827Zm4.569-4.112a.457.457,0,0,1-.457.457H2.284a.457.457,0,0,1-.457-.457v-.914a.457.457,0,0,1,.457-.457H25.128a.457.457,0,0,1,.457.457ZM1.827,3.655A1.827,1.827,0,0,1,3.655,1.827h20.1a1.827,1.827,0,0,1,1.827,1.827V35.179a.457.457,0,0,1-.457.457H2.284a.457.457,0,0,1-.457-.457ZM4.569,37.463H22.935a2.5,2.5,0,0,0,0,.457v.914a2.5,2.5,0,0,0,0,.457H4.569a2.5,2.5,0,0,0,.046-.457V37.92A2.494,2.494,0,0,0,4.569,37.463Z" transform="translate(0)"/>
            <path id="Shape-21" data-name="Shape" d="M12.229,30.914h-.914a.914.914,0,1,0-1.827,0v2.175L5.331,31.014a.914.914,0,0,0-.822,1.626l5.482,2.741a.909.909,0,0,0,1.325-.813V32.741h.914a.914.914,0,1,0,0-1.827Z" transform="translate(-0.351 -2.588)"/>
            <path id="Shape-22" data-name="Shape" d="M4.914,28.4a.914.914,0,0,0,.914-.914v-2.6a15.853,15.853,0,0,0,1.827,1.206v1.389a.914.914,0,0,0,1.827,0v-.53a8.032,8.032,0,0,0,2.741.53.914.914,0,0,0,0-1.827C9,25.655,5.59,22.3,5.562,22.265A.919.919,0,0,0,4,22.914v4.569a.914.914,0,0,0,.914.914Z" transform="translate(-0.345 -1.898)"/>
          </g>
          <path id="Shape-23" data-name="Shape" d="M4.914,18.569a.914.914,0,0,0,.914-.914V14.914a.914.914,0,0,0-1.827,0v2.741A.914.914,0,0,0,4.914,18.569Z" transform="translate(-0.345 -1.208)" fill="#f5f5f5"/>
          <path id="Shape-24" data-name="Shape" d="M4.914,11.31a.914.914,0,0,0,.914-.914V4.914A.914.914,0,1,0,4,4.914V10.4A.914.914,0,0,0,4.914,11.31Z" transform="translate(-0.345 -0.345)" fill="#f5f5f5"/>
        </g>
      </g>
    </g>
  </g>
</svg>
