<svg xmlns="http://www.w3.org/2000/svg" xmlns:xlink="http://www.w3.org/1999/xlink" width="435" height="309" viewBox="0 0 435 309">
  <defs>
    <clipPath id="clip-path">
      <rect id="Rectángulo_350333" data-name="Rectángulo 350333" width="435" height="309" transform="translate(-19402 -14609)" fill="#fff" opacity="0.58"/>
    </clipPath>
    <clipPath id="clip-path-2">
      <path id="Trazado_656520" data-name="Trazado 656520" d="M6269.462,5144.138l.046-.139-2.949-.989-2.732,8.156,2.947.988a1.314,1.314,0,0,1,1.661-.827l.253.085a5.266,5.266,0,0,1,2.349,1.567,3.957,3.957,0,0,0,1.771,1.2l14.285,4.791a3.978,3.978,0,0,0,3.025-.2,1.9,1.9,0,0,1,1.452-.09,1.955,1.955,0,0,1,1.288,1.472c.1.511.318.86.637.967.867.291,2.179-1.3,2.934-3.554s.667-4.312-.2-4.6c-.419-.14-.942.16-1.457.764a1.441,1.441,0,0,1-2.458-.461,3.976,3.976,0,0,0-2.489-2.449l-14.284-4.788a3.957,3.957,0,0,0-2.195-.1,5.441,5.441,0,0,1-3.013-.111l-.047-.014A1.312,1.312,0,0,1,6269.462,5144.138Z" transform="translate(-6263.827 -5143.01)" fill="#f5c300"/>
    </clipPath>
    <clipPath id="clip-path-3">
      <path id="Trazado_656528" data-name="Trazado 656528" d="M6376.341,5109.754c-.2,1.3-32.689,10.19-32.689,10.19s-5.057-19.2-8.18-22.052-4.819-2.027-13.181-3.04-21.54-9.56-22.828-12.774-8.737-10.192-11.125-14.511a11.343,11.343,0,0,0-1.924-2.583c-1.822-1.811-3.609-2.314-4.693-5.025a3.227,3.227,0,0,1,.938-3.793,8.058,8.058,0,0,1,2.61-1.531c14.405,2.806,14.14,8.567,14.14,8.567,2.849.736,11.527,7.046,11.527,7.046s1.474-.016.647-1.854c-1.283-2.849-6.019-8.5-6.019-8.5l-12.586-7.167s-12.958-1.838-14.864-5.437a3.091,3.091,0,0,1-.262-2.566c.765-2.151,3.972-3.535,6.122-3.849a27.334,27.334,0,0,1,3.174-.253c3.308-.093,6.4.236,6.4.057a4.734,4.734,0,0,1,1.3-2.251c3.431-3.9,9.579-4.968,9.579-4.968s5.13-1.313,8.163-.945,25.822,7.118,26.374,8.774,24.808,33.169,25.909,37.12S6376.545,5108.459,6376.341,5109.754Z" transform="translate(-6277.684 -5032.451)" fill="none"/>
    </clipPath>
    <clipPath id="clip-path-4">
      <path id="Trazado_656534" data-name="Trazado 656534" d="M6750.5,5508.04s18.434-29.661,44.144-19.763l11.235,24.541s10.871,7.775,13.308,13.751,53.577,121.7,54,123.72-79.952,6.913-81.97,4.969c-1.55-1.5-26.2-83.4-32.206-105.111a39.269,39.269,0,0,1,.143-21.456l.862-2.958Z" transform="translate(-6750.505 -5486.255)" fill="none"/>
    </clipPath>
    <clipPath id="clip-path-5">
      <path id="Trazado_656543" data-name="Trazado 656543" d="M5377.888,5223.62c-1.052.9-2.043,1.666-2.716,2.166-2.458,1.82-10.748,14.757-12.478,19.039s-10.75,14.119-14.849,17.033c-2.289,1.629-9.576,4.053-15.565,5.875a.145.145,0,0,0-.084.066c-2.945,5.114-5.437,9.347-6.122,11.187-1.291,3.481-10.644,6.649-18.358,6.649a19.888,19.888,0,0,1-5.406-.66s-6.423-.069-7.828-5.555a.132.132,0,0,0-.061-.087l-1.951-1.2a.146.146,0,0,1-.06-.171c.526-1.461,6.181-17.2,10.323-29.735a.175.175,0,0,0,.007-.038c.927-16.047,2.75-47.553,2.838-48.642.364-4.464,6.65-8.2,8.746-8.929,1.072-.373,3.479-.115,5.571.227a.141.141,0,0,0,.135-.057c.34-.444.672-.876.991-1.294a8.912,8.912,0,0,1,8.867-3.311c4.668.956,10.822,2.21,12.037,2.431,2,.364,4.4,2.914,2.748,5.375a.145.145,0,0,0,.144.228c2.167-.445,20.489.039,21.611,1.23,1.019,1.081,2.792,2.39,2.248,3.777,0,0,0,.009,0,.012a.146.146,0,0,0,.152.185,20.75,20.75,0,0,0,4.162-.6c.668-.3,1.453.1,2.106.875,1.313,1.562,2.088,4.648.263,6.594-2.654,2.831-16.486,5.063-17.271,5.185a.143.143,0,0,0-.064.028l-13.127,9.872a.142.142,0,0,0-.048.067c-.226.619-2.916,8.3-1.166,14.838a.144.144,0,0,0,.2.095c1.682-.765,3.35-1.443,4.88-2.028,5.007-1.913,20.494-17.309,25.32-19.312,4.25-1.764,6.312-.847,7.925.765.218.22.431.453.639.692C5383.9,5217.95,5380.684,5221.233,5377.888,5223.62Z" transform="translate(-5292.402 -5186.002)" fill="#f47d62"/>
    </clipPath>
    <clipPath id="clip-path-6">
      <path id="Trazado_656549" data-name="Trazado 656549" d="M4837.964,5709.056s26.941-4.059,41.31,17.407l-9.383,27.343s3.559,5.722,3.542,7.966-21.612,90.365-21.612,90.365-63.949,6.965-82.03-8.7c0,0,40.358-98.562,42.6-100.358s12.536-8.637,12.536-8.637Z" transform="translate(-4769.791 -5708.75)" fill="#f5c300"/>
    </clipPath>
  </defs>
  <g id="Enmascarar_grupo_904788" data-name="Enmascarar grupo 904788" transform="translate(19402 14609)" clip-path="url(#clip-path)">
    <g id="Grupo_949130" data-name="Grupo 949130">
      <g id="Grupo_949114" data-name="Grupo 949114" transform="translate(-19222.637 -14595.656)">
        <g id="Grupo_949110" data-name="Grupo 949110">
          <path id="Trazado_656514" data-name="Trazado 656514" d="M6046.946,5093.465l-1.063,3.18-33.374-12.06.556-1.658Z" transform="translate(-6008.654 -5080.986)" fill="#fff"/>
          <path id="Trazado_656515" data-name="Trazado 656515" d="M5986.468,5071.088l-1.18.406-5.369-1.8,1.065-3.181,5.344,1.792.736,1.014Z" transform="translate(-5979.919 -5066.514)" fill="#fff"/>
        </g>
        <g id="Grupo_949113" data-name="Grupo 949113" transform="translate(33.582 9.048)">
          <path id="Trazado_656516" data-name="Trazado 656516" d="M6269.462,5144.138l.046-.139-2.949-.989-2.732,8.156,2.947.988a1.314,1.314,0,0,1,1.661-.827l.253.085a5.266,5.266,0,0,1,2.349,1.567,3.957,3.957,0,0,0,1.771,1.2l14.285,4.791a3.978,3.978,0,0,0,3.025-.2,1.9,1.9,0,0,1,1.452-.09,1.955,1.955,0,0,1,1.288,1.472c.1.511.318.86.637.967.867.291,2.179-1.3,2.934-3.554s.667-4.312-.2-4.6c-.419-.14-.942.16-1.457.764a1.441,1.441,0,0,1-2.458-.461,3.976,3.976,0,0,0-2.489-2.449l-14.284-4.788a3.957,3.957,0,0,0-2.195-.1,5.441,5.441,0,0,1-3.013-.111l-.047-.014A1.312,1.312,0,0,1,6269.462,5144.138Z" transform="translate(-6263.827 -5143.01)" fill="#f5c300"/>
          <g id="Grupo_949112" data-name="Grupo 949112" clip-path="url(#clip-path-2)">
            <g id="Grupo_949111" data-name="Grupo 949111" transform="translate(2.069 -1.209)">
              <rect id="Rectángulo_350329" data-name="Rectángulo 350329" width="12.87" height="0.2" transform="translate(0 12.202) rotate(-71.467)" fill="#0d1e23"/>
              <rect id="Rectángulo_350330" data-name="Rectángulo 350330" width="12.87" height="0.2" transform="matrix(0.318, -0.948, 0.948, 0.318, 3.963, 13.531)" fill="#0d1e23"/>
              <rect id="Rectángulo_350331" data-name="Rectángulo 350331" width="12.87" height="0.2" transform="matrix(0.318, -0.948, 0.948, 0.318, 23.36, 20.033)" fill="#0d1e23"/>
              <rect id="Rectángulo_350332" data-name="Rectángulo 350332" width="12.87" height="0.2" transform="matrix(0.318, -0.948, 0.948, 0.318, 25.203, 20.651)" fill="#0d1e23"/>
              <path id="Trazado_656517" data-name="Trazado 656517" d="M6358.187,5200.972a.437.437,0,0,1-.28,0l-15.543-5.21a.432.432,0,0,1-.271-.546l.331-.985a.432.432,0,0,1,.545-.271l15.546,5.21a.427.427,0,0,1,.248.215.439.439,0,0,1,.024.33l-.331.986a.434.434,0,0,1-.218.249C6358.22,5200.958,6358.2,5200.965,6358.187,5200.972Zm-15.43-6.821a.2.2,0,0,0-.03.012.223.223,0,0,0-.115.133l-.329.984a.229.229,0,0,0,.145.292l15.542,5.211a.231.231,0,0,0,.177-.012.245.245,0,0,0,.118-.134l.329-.985a.229.229,0,0,0-.011-.177.219.219,0,0,0-.133-.115l-15.546-5.21A.211.211,0,0,0,6342.756,5194.15Z" transform="translate(-6334.884 -5186.705)" fill="#0d1e23"/>
              <path id="Trazado_656518" data-name="Trazado 656518" d="M6351.4,5221.226a.437.437,0,0,1-.278,0l-15.545-5.209a.434.434,0,0,1-.271-.548l.33-.984a.43.43,0,0,1,.545-.271l15.544,5.209a.429.429,0,0,1,.272.545l-.331.987A.427.427,0,0,1,6351.4,5221.226Zm-15.433-6.821a.108.108,0,0,0-.026.012.223.223,0,0,0-.116.133l-.332.984a.232.232,0,0,0,.146.294l15.544,5.209a.231.231,0,0,0,.292-.144l.331-.986a.231.231,0,0,0-.146-.292l-15.544-5.211A.224.224,0,0,0,6335.966,5214.4Z" transform="translate(-6328.899 -5204.564)" fill="#0d1e23"/>
              <path id="Trazado_656519" data-name="Trazado 656519" d="M6365.1,5180.325a.428.428,0,0,1-.277,0l-15.544-5.21a.426.426,0,0,1-.271-.544l.331-.987a.43.43,0,0,1,.544-.271l15.545,5.21a.429.429,0,0,1,.247.215.422.422,0,0,1,.023.33l-.33.986a.429.429,0,0,1-.216.249A.518.518,0,0,1,6365.1,5180.325Zm-15.433-6.821c-.007,0-.018.008-.025.012a.234.234,0,0,0-.118.133l-.331.986a.234.234,0,0,0,.012.175.23.23,0,0,0,.135.115l15.544,5.211a.228.228,0,0,0,.176-.012.226.226,0,0,0,.115-.132l.33-.987a.229.229,0,0,0-.144-.292l-15.545-5.21A.22.22,0,0,0,6349.671,5173.5Z" transform="translate(-6340.984 -5168.501)" fill="#0d1e23"/>
            </g>
          </g>
        </g>
      </g>
      <g id="Grupo_949121" data-name="Grupo 949121" transform="translate(-19187.416 -14599.686)">
        <path id="Trazado_656521" data-name="Trazado 656521" d="M6376.341,5109.754c-.2,1.3-32.689,10.19-32.689,10.19s-5.057-19.2-8.18-22.052-4.819-2.027-13.181-3.04-21.54-9.56-22.828-12.774-8.737-10.192-11.125-14.511a11.343,11.343,0,0,0-1.924-2.583c-1.822-1.811-3.609-2.314-4.693-5.025a3.227,3.227,0,0,1,.938-3.793,8.058,8.058,0,0,1,2.61-1.531c14.405,2.806,14.14,8.567,14.14,8.567,2.849.736,11.527,7.046,11.527,7.046s1.474-.016.647-1.854c-1.283-2.849-6.019-8.5-6.019-8.5l-12.586-7.167s-12.958-1.838-14.864-5.437a3.091,3.091,0,0,1-.262-2.566c.765-2.151,3.972-3.535,6.122-3.849a27.334,27.334,0,0,1,3.174-.253c3.308-.093,6.4.236,6.4.057a4.734,4.734,0,0,1,1.3-2.251c3.431-3.9,9.579-4.968,9.579-4.968s5.13-1.313,8.163-.945,25.822,7.118,26.374,8.774,24.808,33.169,25.909,37.12S6376.545,5108.459,6376.341,5109.754Z" transform="translate(-6277.684 -5032.451)" fill="#f47d62"/>
        <path id="Trazado_656522" data-name="Trazado 656522" d="M6750.5,5508.04s18.434-29.661,44.144-19.763l11.235,24.541s10.871,7.775,13.308,13.751,89.3,203.466,89.727,205.49-100.592,1.944-102.609,0c-1.55-1.5-41.282-160.205-47.289-181.913a39.269,39.269,0,0,1,.143-21.456l.862-2.958Z" transform="translate(-6694.577 -5432.576)" fill="#f5c300"/>
        <g id="Grupo_949117" data-name="Grupo 949117">
          <g id="Grupo_949116" data-name="Grupo 949116" clip-path="url(#clip-path-3)">
            <g id="Grupo_949115" data-name="Grupo 949115" transform="translate(0.168 0.861)">
              <path id="Trazado_656523" data-name="Trazado 656523" d="M6416.087,5106.706l-6.034-3.546c-.1-.051-10.582-5.492-13.011-5.954-2.456-.468-9.919-1.82-9.993-1.833l.064-.348c.073.014,7.538,1.366,10,1.832,2.48.473,12.685,5.766,13.117,5.99l6.041,3.553Z" transform="translate(-6374.28 -5088.483)" fill="#f47d62" style="mix-blend-mode: multiply;isolation: isolate"/>
              <path id="Trazado_656524" data-name="Trazado 656524" d="M6490.578,5049.5c-.01-.012-.974-1.359-4.681-1.84a18.818,18.818,0,0,1-5.97-2.1,23.857,23.857,0,0,0-6.032-2.248c-11.072-2.16-12.825-3.231-12.9-3.278l.191-.3c.018.013,1.85,1.1,12.773,3.231a23.944,23.944,0,0,1,6.119,2.276,18.67,18.67,0,0,0,5.86,2.071c3.895.5,4.89,1.934,4.93,2Z" transform="translate(-6439.483 -5039.732)" fill="#f47d62" style="mix-blend-mode: multiply;isolation: isolate"/>
              <path id="Trazado_656525" data-name="Trazado 656525" d="M6449.423,5273.87l-.276-.223a11.218,11.218,0,0,0,1.974-4.416l.351.065A11.392,11.392,0,0,1,6449.423,5273.87Z" transform="translate(-6429.034 -5242.085)" fill="#f47d62" style="mix-blend-mode: multiply;isolation: isolate"/>
              <path id="Trazado_656526" data-name="Trazado 656526" d="M6314.5,5241.751c-1.822-1.813-3.607-2.314-4.692-5.027a3.227,3.227,0,0,1,.938-3.793c1.565.617,4.264,1.881,4.681,3.378C6316.018,5238.438,6314.5,5241.751,6314.5,5241.751Z" transform="translate(-6305.939 -5210.079)" fill="#f47d62" style="mix-blend-mode: screen;isolation: isolate"/>
              <path id="Trazado_656527" data-name="Trazado 656527" d="M6284.4,5105.487a12.19,12.19,0,0,1-5.294.147c.766-2.151,3.972-3.535,6.12-3.849a27.1,27.1,0,0,1,3.176-.255C6288.795,5103.164,6286.713,5104.751,6284.4,5105.487Z" transform="translate(-6279.104 -5094.221)" fill="#f47d62" style="mix-blend-mode: screen;isolation: isolate"/>
            </g>
          </g>
        </g>
        <g id="Grupo_949120" data-name="Grupo 949120" transform="translate(55.928 53.679)">
          <g id="Grupo_949119" data-name="Grupo 949119" clip-path="url(#clip-path-4)">
            <g id="Grupo_949118" data-name="Grupo 949118" transform="translate(0.77 -4.341)">
              <path id="Trazado_656529" data-name="Trazado 656529" d="M6784.422,5723.61l-.327-.344a57.317,57.317,0,0,1,14.261-8.931,78.717,78.717,0,0,1,17.373-5.6,89.766,89.766,0,0,1,23.82-1.443l-.035.473c-18.463-1.278-32.465,3.1-40.959,7A56.728,56.728,0,0,0,6784.422,5723.61Z" transform="translate(-6780.892 -5676.601)" fill="#1b3f4b"/>
              <path id="Trazado_656530" data-name="Trazado 656530" d="M6768.563,5600.579c-.4,0-1.081-.445-2.677-2.768-1.028-1.5-2.321-3.609-3.848-6.286-2.6-4.549-5-9.208-5.025-9.257l.419-.215c.025.046,2.423,4.7,5.017,9.24,4.911,8.6,5.97,8.85,6.134,8.81.027,0,.118-.027.2-.218.862-1.953-2-12.417-7.155-21.627l.412-.234c5,8.938,8.179,19.779,7.178,22.053a.783.783,0,0,1-.527.489A.559.559,0,0,1,6768.563,5600.579Z" transform="translate(-6757.014 -5562.827)" fill="#1b3f4b"/>
              <path id="Trazado_656531" data-name="Trazado 656531" d="M6848.587,5521.773c-2.387,0-4.729-3.55-6.969-10.567a104.232,104.232,0,0,1-2.8-11.193l.464-.085a104.387,104.387,0,0,0,2.787,11.139c2.263,7.083,4.64,10.61,6.875,10.2a1.6,1.6,0,0,0,1.117-.846c2.734-4.733-4.652-25.72-4.729-25.93l.448-.16c.306.872,7.534,21.406,4.691,26.327a2.058,2.058,0,0,1-1.444,1.073A2.365,2.365,0,0,1,6848.587,5521.773Z" transform="translate(-6829.143 -5489.035)" fill="#1b3f4b"/>
              <path id="Trazado_656532" data-name="Trazado 656532" d="M6959.8,5485.917a1,1,0,0,1-.663-.317c-3.691-3.333-6.241-24.217-6.345-25.1l.468-.058c.027.215,2.636,21.6,6.194,24.812.1.094.293.242.4.178.191-.1.618-.755.452-4.509-.1-2.28-.406-5.369-.9-9.183-.851-6.5-1.987-12.937-2-13l.466-.082c.012.064,1.15,6.507,2,13.02.5,3.828.8,6.931.908,9.224.174,3.946-.28,4.716-.7,4.945A.582.582,0,0,1,6959.8,5485.917Z" transform="translate(-6929.637 -5457.574)" fill="#1b3f4b"/>
              <path id="Trazado_656533" data-name="Trazado 656533" d="M7048.64,5474.75a1.28,1.28,0,0,1-.388-.066c-1.88-.612-3.7-4.849-5.412-12.6-1.258-5.715-2-11.33-2.006-11.387l.468-.061c.007.056.746,5.653,2,11.349,2.082,9.43,3.919,11.864,5.095,12.247a.564.564,0,0,0,.6-.1c2.044-1.873-1.189-18.3-2.607-24.477l.462-.105c.012.056,1.295,5.655,2.242,11.475a77.711,77.711,0,0,1,1,8.408c.135,2.8-.12,4.449-.775,5.047A.976.976,0,0,1,7048.64,5474.75Z" transform="translate(-7007.262 -5449.552)" fill="#1b3f4b"/>
            </g>
          </g>
        </g>
      </g>
      <g id="Grupo_949129" data-name="Grupo 949129" transform="translate(-19365.779 -14581.522)">
        <g id="Grupo_949125" data-name="Grupo 949125" transform="translate(61.818)">
          <g id="Grupo_949124" data-name="Grupo 949124">
            <path id="Trazado_656535" data-name="Trazado 656535" d="M5377.888,5223.62c-1.052.9-2.043,1.666-2.716,2.166-2.458,1.82-10.748,14.757-12.478,19.039s-10.75,14.119-14.849,17.033c-2.289,1.629-9.576,4.053-15.565,5.875a.145.145,0,0,0-.084.066c-2.945,5.114-5.437,9.347-6.122,11.187-1.291,3.481-10.644,6.649-18.358,6.649a19.888,19.888,0,0,1-5.406-.66s-6.423-.069-7.828-5.555a.132.132,0,0,0-.061-.087l-1.951-1.2a.146.146,0,0,1-.06-.171c.526-1.461,6.181-17.2,10.323-29.735a.175.175,0,0,0,.007-.038c.927-16.047,2.75-47.553,2.838-48.642.364-4.464,6.65-8.2,8.746-8.929,1.072-.373,3.479-.115,5.571.227a.141.141,0,0,0,.135-.057c.34-.444.672-.876.991-1.294a8.912,8.912,0,0,1,8.867-3.311c4.668.956,10.822,2.21,12.037,2.431,2,.364,4.4,2.914,2.748,5.375a.145.145,0,0,0,.144.228c2.167-.445,20.489.039,21.611,1.23,1.019,1.081,2.792,2.39,2.248,3.777,0,0,0,.009,0,.012a.146.146,0,0,0,.152.185,20.75,20.75,0,0,0,4.162-.6c.668-.3,1.453.1,2.106.875,1.313,1.562,2.088,4.648.263,6.594-2.654,2.831-16.486,5.063-17.271,5.185a.143.143,0,0,0-.064.028l-13.127,9.872a.142.142,0,0,0-.048.067c-.226.619-2.916,8.3-1.166,14.838a.144.144,0,0,0,.2.095c1.682-.765,3.35-1.443,4.88-2.028,5.007-1.913,20.494-17.309,25.32-19.312,4.25-1.764,6.312-.847,7.925.765.218.22.431.453.639.692C5383.9,5217.95,5380.684,5221.233,5377.888,5223.62Z" transform="translate(-5292.402 -5186.002)" fill="#f47d62"/>
            <g id="Grupo_949123" data-name="Grupo 949123" clip-path="url(#clip-path-5)">
              <g id="Grupo_949122" data-name="Grupo 949122" transform="translate(19.95 4.067)">
                <path id="Trazado_656536" data-name="Trazado 656536" d="M5579.483,5308.83l-.273-.226c.184-.223,4.556-5.467,8.4-5.486,1.917-.01,4.923-1.735,7.833-3.4,2.8-1.6,5.439-3.12,7.089-3.12,3.27,0,19.581-.586,19.746-.592l.014.354c-.166.006-16.483.592-19.759.592-1.555,0-4.158,1.492-6.912,3.072-2.949,1.693-6,3.442-8.009,3.452C5583.934,5303.49,5579.528,5308.777,5579.483,5308.83Z" transform="translate(-5565.234 -5287.057)" fill="#f47d62" style="mix-blend-mode: multiply;isolation: isolate"/>
                <path id="Trazado_656537" data-name="Trazado 656537" d="M5489.854,5264.21l-.321-.149c.116-.25,2.879-6.131,6.189-6.371a12.656,12.656,0,0,0,5.36-1.927c.994-.535,2.121-1.141,3.5-1.727,3.893-1.651,16.623-1.487,17.164-1.478l0,.354c-.132,0-13.2-.172-17.021,1.451-1.367.579-2.485,1.182-3.472,1.712a12.885,12.885,0,0,1-5.5,1.967C5492.647,5258.27,5489.883,5264.149,5489.854,5264.21Z" transform="translate(-5486.165 -5248.744)" fill="#f47d62" style="mix-blend-mode: multiply;isolation: isolate"/>
                <path id="Trazado_656538" data-name="Trazado 656538" d="M5461.354,5229.6l-.3-.2,3.452-5.1,4.394-3.92.235.267-4.358,3.887Z" transform="translate(-5461.058 -5220.38)" fill="#f47d62" style="mix-blend-mode: multiply;isolation: isolate"/>
                <path id="Trazado_656539" data-name="Trazado 656539" d="M5699.575,5479.782l-.243-.259c4.027-3.789,7.257-3.873,7.393-3.874l0,.354,0-.179,0,.179C5706.7,5476,5703.491,5476.1,5699.575,5479.782Z" transform="translate(-5671.146 -5445.455)" fill="#f47d62" style="mix-blend-mode: multiply;isolation: isolate"/>
                <path id="Trazado_656540" data-name="Trazado 656540" d="M5699.782,5603.919l-.179-.307a50.933,50.933,0,0,1,5.944-3l.12.335A50.285,50.285,0,0,0,5699.782,5603.919Z" transform="translate(-5671.386 -5555.634)" fill="#f47d62" style="mix-blend-mode: multiply;isolation: isolate"/>
                <path id="Trazado_656541" data-name="Trazado 656541" d="M6013.93,5445.73a4.791,4.791,0,0,1,.262-3.177c.651-1.6,2.66-3.565,3.854-4.642.218.22.429.453.638.692C6019.94,5440.06,6016.726,5443.346,6013.93,5445.73Z" transform="translate(-5948.393 -5412.179)" fill="#f47d62" style="mix-blend-mode: screen;isolation: isolate"/>
                <path id="Trazado_656542" data-name="Trazado 656542" d="M5931.208,5294.481c-.847.833-3.677.954-5.693,1.174-2.365.262-2.391-1.113-2.391-1.113a13.739,13.739,0,0,1,1.662-.519.145.145,0,0,0,.152.185,20.614,20.614,0,0,0,4.163-.6C5929.77,5293.3,5930.554,5293.7,5931.208,5294.481Z" transform="translate(-5868.469 -5284.854)" fill="#f47d62" style="mix-blend-mode: screen;isolation: isolate"/>
              </g>
            </g>
          </g>
        </g>
        <g id="Grupo_949128" data-name="Grupo 949128" transform="translate(0 61.834)">
          <path id="Trazado_656544" data-name="Trazado 656544" d="M4837.964,5709.056s26.941-4.059,41.31,17.407l-9.383,27.343s3.559,5.722,3.542,7.966-34.954,168.35-34.954,168.35-84.65.341-86.9-1.6c0,0,58.567-183.638,60.805-185.434s12.536-8.637,12.536-8.637Z" transform="translate(-4769.791 -5708.75)" fill="#f5c300"/>
          <g id="Grupo_949127" data-name="Grupo 949127" clip-path="url(#clip-path-6)">
            <g id="Grupo_949126" data-name="Grupo 949126" transform="translate(50.699 -4.242)">
              <path id="Trazado_656545" data-name="Trazado 656545" d="M5257.619,5938.433c-19.473-12.5-58.82-25.874-59.216-26.006l.151-.449c.4.134,39.8,13.521,59.322,26.057Z" transform="translate(-5198.403 -5883.697)" fill="#1b3f4b"/>
              <path id="Trazado_656546" data-name="Trazado 656546" d="M5301.859,5700.089a.79.79,0,0,1-.655-.336c-.613-.812-.409-2.689.621-5.734a85.394,85.394,0,0,1,3.819-9.02c2.961-6.183,6.26-12.049,6.292-12.108l.413.233c-3.643,6.466-12.68,23.8-10.765,26.344a.331.331,0,0,0,.319.148c.777-.074,3.028-1.916,9.4-13.424,3.646-6.587,6.905-13.222,6.938-13.288l.425.208c-.032.066-3.295,6.71-6.949,13.305-2.145,3.879-4.005,6.983-5.526,9.23-2.617,3.867-3.675,4.384-4.242,4.438A.861.861,0,0,1,5301.859,5700.089Z" transform="translate(-5288.741 -5672.891)" fill="#1b3f4b"/>
              <path id="Trazado_656547" data-name="Trazado 656547" d="M5416.916,5722.82a1.386,1.386,0,0,1-1.143-.6c-3.653-4.833,8.585-26.416,9.108-27.332l.41.234c-.031.055-3.208,5.639-5.9,11.732-3.537,7.99-4.657,13.205-3.238,15.08a.927.927,0,0,0,.875.41c1.326-.126,4.2-2.5,10.349-13.082,3.707-6.375,6.864-12.774,6.9-12.836l.424.208c-.031.063-3.2,6.477-6.91,12.866-5.021,8.636-8.625,13.116-10.712,13.314C5417.02,5722.816,5416.967,5722.82,5416.916,5722.82Z" transform="translate(-5389.462 -5692.285)" fill="#1b3f4b"/>
              <path id="Trazado_656548" data-name="Trazado 656548" d="M5530.751,5767.836a1.356,1.356,0,0,1-1.154-.606c-1.424-1.988.133-6.985,4.627-14.861,3.316-5.811,7.085-11.127,7.123-11.182l.387.275c-.04.054-3.795,5.354-7.1,11.144-4.333,7.589-5.941,12.55-4.652,14.349a.907.907,0,0,0,.822.407c1.324-.056,4.335-2.184,11.17-12,4.114-5.908,7.685-11.87,7.721-11.929l.407.24c-.036.062-3.616,6.037-7.739,11.959-5.574,8.008-9.458,12.111-11.54,12.2C5530.8,5767.836,5530.774,5767.836,5530.751,5767.836Z" transform="translate(-5489.97 -5733.108)" fill="#1b3f4b"/>
            </g>
          </g>
        </g>
      </g>
    </g>
  </g>
</svg>
