<svg xmlns="http://www.w3.org/2000/svg" xmlns:xlink="http://www.w3.org/1999/xlink" width="88" height="88" viewBox="0 0 88 88">
  <defs>
    <filter id="Elipse_7199" x="0" y="0" width="88" height="88" filterUnits="userSpaceOnUse">
      <feOffset dy="3" input="SourceAlpha"/>
      <feGaussianBlur stdDeviation="3" result="blur"/>
      <feFlood flood-opacity="0.161"/>
      <feComposite operator="in" in2="blur"/>
      <feComposite in="SourceGraphic"/>
    </filter>
  </defs>
  <g id="Grupo_949289" data-name="Grupo 949289" transform="translate(3521.5 9426.654)">
    <g transform="matrix(1, 0, 0, 1, -3521.5, -9426.65)" filter="url(#Elipse_7199)">
      <circle id="Elipse_7199-2" data-name="Elipse 7199" cx="35" cy="35" r="35" transform="translate(9 6)" fill="#00cca7"/>
    </g>
    <g id="troncos" transform="translate(-3514.751 -9478.889)">
      <path id="Trazado_653092" data-name="Trazado 653092" d="M129.607,207.683a8.1,8.1,0,0,1-8.1,8.1H96.4v-16.2h25.107a8.1,8.1,0,0,1,8.1,8.1Z" transform="translate(-82.561 -103.051)" fill="#865240"/>
      <path id="Trazado_653093" data-name="Trazado 653093" d="M193.745,207.683a8.1,8.1,0,0,1-8.1,8.1H175.455a9.957,9.957,0,0,1,0-16.2h10.191A8.1,8.1,0,0,1,193.745,207.683Z" transform="translate(-146.7 -103.051)" fill="#7b4b39"/>
      <circle id="Elipse_7201" data-name="Elipse 7201" cx="8.099" cy="8.099" r="8.099" transform="translate(5.74 96.532)" fill="#d8b3a7"/>
      <path id="Trazado_653094" data-name="Trazado 653094" d="M265.814,215.783a8.1,8.1,0,0,0,0-16.2H240.706v16.2Z" transform="translate(-206.15 -103.054)" fill="#a96a53"/>
      <path id="Trazado_653095" data-name="Trazado 653095" d="M405.072,207.683a8.1,8.1,0,0,1-8.1,8.1H393.85a8.1,8.1,0,0,0,0-16.2h3.122A8.1,8.1,0,0,1,405.072,207.683Z" transform="translate(-337.309 -103.051)" fill="#925b46"/>
      <circle id="Elipse_7202" data-name="Elipse 7202" cx="8.099" cy="8.099" r="8.099" transform="translate(26.457 96.532)" fill="#d8b3a7"/>
      <path id="Trazado_653096" data-name="Trazado 653096" d="M193.66,102.955a8.1,8.1,0,0,0,0-16.2H168.552v16.2Z" transform="translate(-144.355 -6.423)" fill="#ba7c65"/>
      <path id="Trazado_653097" data-name="Trazado 653097" d="M332.921,94.853a8.1,8.1,0,0,1-8.1,8.1H321.7a8.1,8.1,0,0,0,0-16.2h3.122A8.1,8.1,0,0,1,332.921,94.853Z" transform="translate(-275.517 -6.419)" fill="#a96a53"/>
      <circle id="Elipse_7203" data-name="Elipse 7203" cx="8.099" cy="8.099" r="8.099" transform="translate(16.098 80.335)" fill="#d8b3a7"/>
      <path id="Trazado_653098" data-name="Trazado 653098" d="M101.573,320.511a8.1,8.1,0,0,1-8.1,8.1H63.91v-16.2H93.475A8.1,8.1,0,0,1,101.573,320.511Z" transform="translate(-54.735 -199.683)" fill="#a96a53"/>
      <path id="Trazado_653099" data-name="Trazado 653099" d="M169.977,320.511a8.1,8.1,0,0,1-8.1,8.1H147.945a9.958,9.958,0,0,1,0-16.2h13.935A8.1,8.1,0,0,1,169.977,320.511Z" transform="translate(-123.139 -199.684)" fill="#925b46"/>
      <circle id="Elipse_7204" data-name="Elipse 7204" cx="8.099" cy="8.099" r="8.099" transform="translate(1.077 112.73)" fill="#d8b3a7"/>
      <path id="Trazado_653100" data-name="Trazado 653100" d="M246.911,328.612a8.1,8.1,0,0,0,0-16.2H213.189v16.2Z" transform="translate(-182.584 -199.684)" fill="#ba7c65"/>
      <path id="Trazado_653101" data-name="Trazado 653101" d="M437.552,320.511a8.1,8.1,0,0,1-8.1,8.1H426.33a8.1,8.1,0,1,0,0-16.2h3.124a8.1,8.1,0,0,1,8.1,8.1Z" transform="translate(-365.126 -199.684)" fill="#a96a53"/>
      <circle id="Elipse_7205" data-name="Elipse 7205" cx="8.099" cy="8.099" r="8.099" transform="translate(22.506 112.73)" fill="#d8b3a7"/>
      <path id="Trazado_653102" data-name="Trazado 653102" d="M69.526,231.48a2.353,2.353,0,0,1-2.351-2.351,1.077,1.077,0,1,0-2.153,0,4.5,4.5,0,1,0,4.5-4.5,1.077,1.077,0,0,0,0,2.153,2.351,2.351,0,1,1,0,4.7Z" transform="translate(-55.687 -124.498)"/>
      <path id="Trazado_653103" data-name="Trazado 653103" d="M213.835,224.625a1.077,1.077,0,0,0,0,2.153,2.351,2.351,0,1,1-2.351,2.351,1.077,1.077,0,0,0-2.153,0,4.5,4.5,0,1,0,4.5-4.5Z" transform="translate(-179.28 -124.498)"/>
      <path id="Trazado_653104" data-name="Trazado 653104" d="M349.507,252.623a1.077,1.077,0,0,0,0-2.153H337.029a1.077,1.077,0,0,0,0,2.153Z" transform="translate(-287.723 -146.633)"/>
      <path id="Trazado_653105" data-name="Trazado 653105" d="M141.681,111.8a1.077,1.077,0,0,0,0,2.153,2.351,2.351,0,1,1-2.351,2.351,1.077,1.077,0,1,0-2.153,0,4.5,4.5,0,1,0,4.5-4.5Z" transform="translate(-117.484 -27.868)"/>
      <path id="Trazado_653106" data-name="Trazado 653106" d="M281.519,130.77a1.077,1.077,0,0,0-1.077-1.077H267.01a1.077,1.077,0,0,0,0,2.153h13.432A1.077,1.077,0,0,0,281.519,130.77Z" transform="translate(-227.756 -43.195)"/>
      <path id="Trazado_653107" data-name="Trazado 653107" d="M281.245,161.693a1.077,1.077,0,1,0,0,2.153h6.572a1.077,1.077,0,0,0,0-2.153Z" transform="translate(-239.947 -70.601)"/>
      <path id="Trazado_653108" data-name="Trazado 653108" d="M41.547,341.957a4.509,4.509,0,0,0-4.5-4.5,1.077,1.077,0,1,0,0,2.153,2.351,2.351,0,1,1-2.351,2.351,1.077,1.077,0,0,0-2.153,0,4.5,4.5,0,1,0,9.008,0Z" transform="translate(-27.868 -221.129)"/>
      <path id="Trazado_653109" data-name="Trazado 653109" d="M65.473,111.727a9.171,9.171,0,0,0-5.809-16.272H55.2a9.17,9.17,0,0,0-5.9-16.2H44.6a1.077,1.077,0,1,0,0,2.153h4.706a7.022,7.022,0,0,1,0,14.044H30.094A9.162,9.162,0,0,0,32.831,85.33H35.22a1.077,1.077,0,1,0,0-2.153H31.711a9.253,9.253,0,0,0-1.617-1.765h9.624a1.077,1.077,0,1,0,0-2.153H24.2a9.17,9.17,0,0,0-5.9,16.2H13.839a9.192,9.192,0,0,0-4.346,1.093,1.077,1.077,0,1,0,1.021,1.9,7.023,7.023,0,1,1-3.7,6.186,6.947,6.947,0,0,1,.747-3.15,1.077,1.077,0,0,0-1.924-.968,9.166,9.166,0,0,0,2.39,11.214A9.174,9.174,0,0,0,9.175,130H64.327a9.174,9.174,0,0,0,1.146-18.277Zm-23.9-7.1a7.022,7.022,0,1,1-7.022-7.022A7.03,7.03,0,0,1,41.578,104.631Zm-3.95,16.2a7.022,7.022,0,1,1-7.022-7.022A7.03,7.03,0,0,1,37.627,120.828ZM21.5,119.752h-3.21a9.167,9.167,0,0,0-3.213-5.945h9.636A9.168,9.168,0,0,0,21.5,119.752Zm-3.21,2.153H21.5a9.109,9.109,0,0,0,.331,1.589H17.955A9.1,9.1,0,0,0,18.286,121.905Zm4.187-20.377h3.448a9.155,9.155,0,0,0-.077,5.978H22.55a9.155,9.155,0,0,0-.077-5.978Zm-5.3-13.094A7.022,7.022,0,1,1,24.2,95.455,7.03,7.03,0,0,1,17.175,88.433Zm11.483,9.175a9.253,9.253,0,0,0-1.617,1.765H21.352a9.253,9.253,0,0,0-1.617-1.765Zm-7.15,12.05h5.378a9.248,9.248,0,0,0,1.772,1.994H19.736A9.241,9.241,0,0,0,21.508,109.659ZM2.153,120.828a7.021,7.021,0,0,1,14.04-.183,1.087,1.087,0,0,0-.017.183,1.072,1.072,0,0,0,.017.183,7.021,7.021,0,0,1-14.039-.183Zm12.919,7.022a9.243,9.243,0,0,0,1.906-2.2H22.8a9.246,9.246,0,0,0,1.906,2.2Zm49.254,0H36.5a9.162,9.162,0,0,0,2.737-10.125h16.5a1.077,1.077,0,1,0,0-2.153H38.119a9.253,9.253,0,0,0-1.617-1.765h8.862a1.077,1.077,0,1,0,0-2.153H40.453a9.162,9.162,0,0,0,2.737-10.125h7.891a1.077,1.077,0,1,0,0-2.153H42.069a9.253,9.253,0,0,0-1.617-1.765H59.664a7.022,7.022,0,1,1,0,14.044H50.246a1.077,1.077,0,0,0,0,2.153H64.327a7.022,7.022,0,0,1,0,14.044Z"/>
      <path id="Trazado_653110" data-name="Trazado 653110" d="M186.318,337.453a1.077,1.077,0,0,0,0,2.153,2.351,2.351,0,1,1-2.351,2.351,1.077,1.077,0,0,0-2.153,0,4.5,4.5,0,1,0,4.5-4.5Z" transform="translate(-155.713 -221.129)"/>
      <path id="Trazado_653111" data-name="Trazado 653111" d="M380.376,358.432H367.719a1.077,1.077,0,0,0,0,2.153h12.657a1.077,1.077,0,0,0,0-2.153Z" transform="translate(-314.007 -239.096)"/>
      <path id="Trazado_653112" data-name="Trazado 653112" d="M312.374,360.585h3.671a1.077,1.077,0,1,0,0-2.153h-3.671a1.077,1.077,0,0,0,0,2.153Z" transform="translate(-266.607 -239.096)"/>
      <path id="Trazado_653113" data-name="Trazado 653113" d="M292.151,387.4H275.6a1.077,1.077,0,0,0,0,2.153h16.55a1.077,1.077,0,0,0,0-2.153Z" transform="translate(-235.114 -263.903)"/>
    </g>
  </g>
</svg>
